<svg width="3951" height="2033" viewBox="0 0 3951 2033" fill="none" xmlns="http://www.w3.org/2000/svg">
<g filter="url(#filter0_i_2002_3)">
<path fill-rule="evenodd" clip-rule="evenodd" d="M3610.5 0C3683 14 3710.5 89.5 3649.5 156C3588.5 222.5 3452 264.5 3452 197.5C3452 165.614 3468.22 160.315 3496.58 151.05C3510.47 146.513 3527.27 141.026 3546.5 131C3572.76 117.309 3570.41 97.3712 3567.89 76.0262C3564.79 49.8204 3561.45 21.4933 3610.5 0ZM429.5 270C519 234 485.5 64.0001 413 69.5001C349 69.5001 321 100 313 150.5C305 201 340 306 429.5 270ZM755.5 453.5C852.5 492.5 866.5 601 797 620.5C727.5 640 680 562.077 680 487C680 453.5 714 429.01 755.5 453.5ZM1282.69 941.164C1272.18 946.944 1262.19 952.43 1256 960C1247.15 970.813 1251.16 978.754 1255.91 988.188C1261.52 999.322 1268.18 1012.53 1256 1035C1240.03 1064.45 1156 1052 1156 993.5C1156 901.336 1237 796 1317.5 846C1341.78 908.69 1310.38 925.946 1282.69 941.164ZM2828.5 1241C2792.5 1274.5 2784.5 1310.5 2806.5 1333C2828.5 1355.5 2876 1333 2890 1277.5C2898.93 1242.11 2864.5 1207.5 2828.5 1241ZM3037 704C3006 637 3043 579 3101.5 534.5C3159.5 523 3171 581.5 3171 648.5C3171 715.5 3068 771 3037 704ZM0.000314876 810.5C0.000518082 676 138.3 701.7 197.5 810.5C271.5 946.5 324 866 339.5 829C355 792 367 743 308.5 638C250 533 284 474 339.5 455.5C395 437 509 434.5 500 622.5C496.725 690.914 486.034 734.829 477.324 770.606C462.1 833.143 452.929 870.815 500 971C574 1128.5 716 1008.5 657.5 909.5C599 810.5 684.5 730 774.5 779.5C833.497 811.948 833.624 880.277 833.752 949.558C833.82 985.966 833.888 1022.64 842.5 1054.5C867.5 1147 904.001 1153.5 969 1125.5C1034 1097.5 1247 1033.5 1191.5 1280C1136 1526.5 1191.5 1721 1315 1705.5C1438.5 1690 1389 1560.5 1315 1526.5C1241 1492.5 1244 1356.5 1355 1363C1438.17 1367.87 1444.99 1426.07 1453.69 1500.38C1456.61 1525.25 1459.73 1551.92 1466 1579C1491 1687 1567.5 1798 1685 1705.5C1802.5 1613 1842.5 1458.5 1842.5 1329C1842.5 1199.5 1929 1169 1997 1175C2065 1181 2179 1236.5 2108 1415.5C2037 1594.5 2188.5 1653.5 2247 1551.5C2305.5 1449.5 2339.5 1196.5 2247 1125.5C2154.5 1054.5 2176 860 2333.5 875.5C2491 891 2503 1026.5 2484.5 1205.5C2481.43 1235.21 2478.11 1262.46 2475.06 1287.48C2459.75 1413.19 2451.28 1482.71 2515.5 1526.5C2592.5 1579 2626.5 1483.5 2571 1431C2515.5 1378.5 2537.5 1255.5 2596 1280C2630.61 1294.49 2629.69 1332.96 2628.25 1393.85C2627.25 1435.88 2625.99 1488.6 2636 1551.5C2660.5 1705.5 2808.5 1693.5 2836.5 1610C2840.49 1598.1 2844.48 1584.52 2848.73 1570.06C2874.29 1483.11 2909.18 1364.42 3009.5 1388C3108.19 1411.2 3027.23 1493.8 2971.56 1550.6C2961.23 1561.13 2951.78 1570.78 2944.5 1579C2898 1631.5 2910.5 1668.5 2960 1687C3009.5 1705.5 3216 1665 3194.5 1526.5C3186.16 1472.76 3155.99 1435.28 3126.68 1398.88C3080.45 1341.45 3036.37 1286.69 3083.5 1175C3160.5 992.5 3337 980.5 3401.5 1017.5C3466 1054.5 3611 1017.5 3608 931C3607.81 925.485 3607.64 920.099 3607.48 914.83C3605.08 837.459 3603.47 785.547 3537 727.5C3513.28 706.784 3486.82 690.924 3461.52 675.761C3411.11 645.545 3365.32 618.097 3355 560.5C3339.5 474 3450.5 406.5 3537 483.5C3575.52 517.788 3580.92 546.722 3585.7 572.333C3591.66 604.237 3596.66 630.984 3663.5 656.5C3784 702.5 3851.5 628.5 3808.5 542C3649.5 274 3950.5 105.5 3950.5 266C3950.5 468 3950.5 1677.5 3950.5 1835.5C3950.5 1970.5 3950.5 2033 3950.5 2033H0.000223323C0.000223323 2033 -0.00033553 1241 0.000314876 810.5Z" fill="#FFD4DF"/>
</g>
<defs>
<filter id="filter0_i_2002_3" x="0" y="0" width="3950.5" height="2057" filterUnits="userSpaceOnUse" color-interpolation-filters="sRGB">
<feFlood flood-opacity="0" result="BackgroundImageFix"/>
<feBlend mode="normal" in="SourceGraphic" in2="BackgroundImageFix" result="shape"/>
<feColorMatrix in="SourceAlpha" type="matrix" values="0 0 0 0 0 0 0 0 0 0 0 0 0 0 0 0 0 0 127 0" result="hardAlpha"/>
<feOffset dy="34"/>
<feGaussianBlur stdDeviation="12"/>
<feComposite in2="hardAlpha" operator="arithmetic" k2="-1" k3="1"/>
<feColorMatrix type="matrix" values="0 0 0 0 1 0 0 0 0 1 0 0 0 0 1 0 0 0 1 0"/>
<feBlend mode="normal" in2="shape" result="effect1_innerShadow_2002_3"/>
</filter>
</defs>
</svg>
