<svg width="4072" height="1311" viewBox="0 0 4072 1311" fill="none" xmlns="http://www.w3.org/2000/svg">
<path d="M399.141 274.897C423.14 272.843 419.14 231.772 383.142 210.21C375.609 205.076 356.143 210.21 358.143 231.772C360.143 253.334 375.142 276.95 399.141 274.897Z" fill="white"/>
<path d="M1096.11 90.0773C1100.11 63.3812 1066.11 54.1402 1044.11 70.5686C1027.11 78.0333 1019.11 120.88 1044.11 127.041C1069.11 133.202 1092.11 116.773 1096.11 90.0773Z" fill="white"/>
<path d="M1652.08 196.862C1663.08 174.273 1667.08 144.496 1641.08 127.041C1623.08 127.041 1599.08 151.683 1590.08 196.862C1581.08 242.04 1612.08 274.896 1631.08 273.87C1650.08 272.843 1652.08 254.361 1641.08 241.013C1630.08 227.665 1641.08 219.451 1652.08 196.862Z" fill="white"/>
<path d="M2209.05 187.621C2230.05 161.951 2217.05 115.746 2194.05 100.345C2143.05 73.6487 2120.05 139.362 2127.05 176.326C2134.05 213.29 2188.05 213.29 2209.05 187.621Z" fill="white"/>
<path d="M2948.01 288.244C2952.01 267.709 2956.01 241.013 2932.01 226.638C2916.01 220.477 2909.01 248.2 2916.01 279.003C2923.01 309.807 2944.01 308.78 2948.01 288.244Z" fill="white"/>
<path d="M3513.98 65.4344C3517.98 26.417 3476.98 20.2564 3456.98 31.5509C3433.99 41.8182 3409.99 65.4344 3401.99 109.586C3393.99 153.738 3422.99 179.407 3441.98 171.193C3460.98 162.978 3442.98 144.496 3456.98 118.827C3470.98 93.1578 3509.98 104.452 3513.98 65.4344Z" fill="white"/>
<path d="M3880.96 46.9529C3873.96 25.3906 3890.96 8.96249 3905.96 1.77507C3957.96 -11.573 3964.96 54.1404 3943.96 72.6219C3922.96 91.1034 3887.96 68.5151 3880.96 46.9529Z" fill="white"/>
<path d="M272 361.852C169.6 254.527 48 354.639 0 418.111V1310.5H4072V335.886C4036.67 369.064 3957.6 425.901 3924 387.818C3882 340.214 3900 238.515 3830 234.187C3760 229.86 3746 301.265 3760 376.999C3774 452.732 3724 528.465 3668 541.448C3612 554.431 3576 528.465 3592 483.025C3608 437.585 3636 418.111 3606 387.818C3576 357.524 3556 400.8 3554 448.404C3552 496.008 3504 541.448 3426 500.336C3348 459.223 3396 394.309 3318 318.576C3240 242.843 3153.58 317.958 3142 376.999C3128 448.404 3120 565.25 3026 602.035C2932 638.819 2904 513.319 2926 448.404C2948 383.49 2928 348.869 2890 376.999C2852 405.128 2870 448.404 2880 513.319C2890 578.233 2778 565.25 2794 500.336C2810 435.422 2840 394.309 2794 318.576C2748 242.843 2678.54 300.467 2696 361.852C2712 418.111 2740 500.336 2650 541.448C2581.43 572.771 2558 500.336 2462 483.025C2353.35 463.434 2296 489.517 2286 541.448C2276 593.38 2248 625.837 2188 638.82C2128 651.802 2092 597.707 2098 472.206C2104 346.705 1988 335.886 1960 361.852C1932 387.818 1926 448.404 1978 500.336C2030 552.267 1952 669.113 1898 669.113C1844 669.113 1842 560.922 1842 528.465C1842 496.008 1848 448.404 1796 448.404C1744 448.404 1730 489.517 1762 513.319C1794 537.121 1824 597.707 1796 625.837C1768 653.966 1694 649.639 1646 576.069C1598 502.5 1618 394.309 1520 361.852C1389.33 318.576 1290 348.869 1234 418.111C1194.47 466.991 1050 485.189 1028 394.309C1006 303.429 890 307.757 854 348.869C818 389.982 840 418.111 822 472.206C804 526.302 714 498.172 706 448.404C698 398.637 692 329.395 606 307.757C502.297 281.665 440 361.852 490 448.404C540 534.957 578 669.113 524 725.372C470 781.631 438 727.536 456 669.113C474 610.69 426 567.414 390 597.707C354 628.001 378 664.785 362 740.519C346 816.252 228 785.959 250 708.062C272 630.164 400 496.008 272 361.852Z" fill="url(#paint0_linear_2002_2)"/>
<defs>
<linearGradient id="paint0_linear_2002_2" x1="2025" y1="234" x2="2025" y2="2900" gradientUnits="userSpaceOnUse">
<stop stop-color="white"/>
<stop offset="1" stop-color="white"/>
</linearGradient>
</defs>
</svg>
