<svg width="3940" height="935" viewBox="0 0 3940 935" fill="none" xmlns="http://www.w3.org/2000/svg">
<g filter="url(#filter0_i_2004_15)">
<path d="M274 148.876C150.8 72.0764 0 117.5 0 226.876V934.5H3940C3940 726.5 3940 433 3940 318.876C3940 182 3746.46 272.876 3800 504.876C3824 608.876 3692 636.876 3646 568.876C3600.43 501.518 3623.55 402.761 3645.38 309.539L3646 306.876C3668 212.876 3646 148.876 3556 114.876C3499.44 93.508 3358 128.876 3408 272.876C3469.11 448.876 3270.3 568.876 3174 468.876C3122 414.876 3118 338.876 3106 248.876C3094 158.876 2982 186.876 2998 236.876C3014 286.876 2972 338.876 2934 290.876C2896 242.876 2900 174.876 2900 114.876C2900 54.8764 2878 -15.1237 2790 2.87634C2702 20.8763 2722 214.876 2800 260.876C2878 306.876 2944 584.876 2900 666.876C2856 748.876 2682 690.876 2694 540.876C2706 390.876 2652 338.876 2592 338.876C2532 338.876 2506 400.876 2544 448.876C2582 496.876 2626 552.876 2620 604.876C2614 656.876 2470 666.876 2458 584.876C2446 502.876 2480 476.876 2446 432.876C2412 388.876 2352 400.876 2342 448.876C2332 496.876 2318 526.876 2270 552.876C2222 578.876 2130 552.876 2098 490.876C2066 428.876 2108 374.876 2116 290.876C2124 206.876 2038 184.876 2010 214.876C1982 244.876 1974 292.876 2010 338.876C2046 384.876 1996 442.876 1964 448.876C1932 454.876 1872 470.876 1872 400.876C1872 330.876 1938 262.876 1888 148.876C1838 34.8764 1692 74.8764 1662 114.876C1632 154.876 1614 226.876 1692 306.876C1770 386.876 1782 458.876 1776 490.876C1770 522.876 1726 550.876 1678 552.876C1630 554.876 1586 526.876 1484 400.876C1382 274.876 1208 426.876 1240 604.876C1272 782.876 1006 794.876 1022 666.876C1038 538.876 990 512.876 910 512.876C830 512.876 794 584.876 812 666.876C830 748.876 810 802.876 772 820.876C734 838.876 686 798.876 706 716.876C726 634.876 738 600.876 686 584.876C634 568.876 596 638.876 636 666.876C676 694.876 662 786.876 596 762.876C530 738.876 518 662.876 596 512.876C674 362.876 496 320.876 444 374.876C392 428.876 424 478.876 422 526.876C420 574.876 304 596.876 274 512.876C244 428.876 428 244.876 274 148.876Z" fill="#FF8DB6"/>
</g>
<defs>
<filter id="filter0_i_2004_15" x="-2" y="0" width="3942" height="955.5" filterUnits="userSpaceOnUse" color-interpolation-filters="sRGB">
<feFlood flood-opacity="0" result="BackgroundImageFix"/>
<feBlend mode="normal" in="SourceGraphic" in2="BackgroundImageFix" result="shape"/>
<feColorMatrix in="SourceAlpha" type="matrix" values="0 0 0 0 0 0 0 0 0 0 0 0 0 0 0 0 0 0 127 0" result="hardAlpha"/>
<feOffset dx="-2" dy="39"/>
<feGaussianBlur stdDeviation="10.5"/>
<feComposite in2="hardAlpha" operator="arithmetic" k2="-1" k3="1"/>
<feColorMatrix type="matrix" values="0 0 0 0 1 0 0 0 0 0.85 0 0 0 0 0.903947 0 0 0 0.37 0"/>
<feBlend mode="normal" in2="shape" result="effect1_innerShadow_2004_15"/>
</filter>
</defs>
</svg>
