<svg width="450" height="551" viewBox="0 0 450 551" fill="none" xmlns="http://www.w3.org/2000/svg">
<g filter="url(#filter0_i_2003_4)">
<path d="M335.063 85.7161C330.274 50.9301 282.465 27.6736 253.816 63.9461C236.626 85.7097 244.949 125.297 213.198 151.949C187.797 173.27 156.691 148.527 166.921 119.771C177.15 91.015 182.852 60.3136 154.592 52.7413C127.274 48.7175 107.98 74.0926 117.465 106.52C129.321 147.053 146.671 167.085 115.587 198.31C84.5033 229.535 81.6967 219.994 68.2939 240.574C29.7139 278.581 45.774 390.56 106.49 345.3C132.511 325.903 151.155 319.911 145.348 355.712C139.541 391.513 102.178 432.043 149.436 453.496C196.694 474.948 204.267 439.621 192.96 397.037C181.654 354.453 233.188 352.879 237.193 380.322C241.199 407.765 182.294 481.127 203.133 507.438C252.287 569.502 285.042 434.895 287.275 362.977C288.797 313.937 355.085 353.975 384.767 309.991C422.443 254.162 383.197 197.5 350.966 188.863C292.679 173.246 338.598 111.384 335.063 85.7161Z" fill="#FF466B"/>
<path d="M427.008 123.616C423.742 89.259 387.391 85.0799 372.989 117.266C353.359 149.515 372.305 175.876 391.517 179.464C410.729 183.052 430.275 157.973 427.008 123.616Z" fill="#FF466B"/>
</g>
<path d="M205.631 250.194C205.631 249.765 205.47 249.55 205.148 249.55C204.826 249.55 204.235 249.872 203.377 250.516C202.625 251.16 201.767 251.858 200.801 252.609C199.835 253.253 198.869 253.897 197.903 254.541C197.044 255.185 196.293 255.507 195.649 255.507C193.287 255.507 191.248 255.024 189.531 254.058C187.813 253.092 186.418 251.804 185.345 250.194C184.271 248.477 183.466 246.545 182.93 244.398C182.5 242.144 182.286 239.783 182.286 237.314C182.286 232.484 183.252 228.298 185.184 224.756C187.116 221.107 189.692 218.048 192.912 215.579C196.132 213.11 199.835 211.286 204.021 210.105C208.207 208.817 212.5 208.173 216.901 208.173C222.375 208.173 226.561 209.461 229.459 212.037C232.464 214.613 234.664 217.887 236.06 221.858C237.455 225.722 238.26 229.962 238.475 234.577C238.689 239.192 238.797 243.593 238.797 247.779C238.797 250.999 238.582 254.004 238.153 256.795C237.831 259.478 237.401 262.108 236.865 264.684C236.435 267.26 236.006 269.836 235.577 272.412C235.255 274.881 235.094 277.51 235.094 280.301C235.094 282.233 235.899 283.682 237.509 284.648C239.119 285.614 241.051 286.097 243.305 286.097C244.915 286.097 246.31 286.634 247.491 287.707C248.779 288.78 249.852 290.176 250.711 291.893C251.677 293.503 252.374 295.381 252.804 297.528C253.34 299.675 253.609 301.821 253.609 303.968C253.609 309.227 253.126 313.306 252.16 316.204C251.194 319.102 249.315 321.249 246.525 322.644C243.841 324.039 240.031 324.844 235.094 325.059C230.156 325.381 223.77 325.542 215.935 325.542C209.387 325.542 203.913 325.327 199.513 324.898C195.112 324.469 191.57 323.556 188.887 322.161C186.311 320.873 184.486 318.941 183.413 316.365C182.339 313.682 181.803 310.086 181.803 305.578C181.803 301.714 182.232 298.548 183.091 296.079C183.949 293.61 185.023 291.625 186.311 290.122C187.706 288.619 189.262 287.6 190.98 287.063C192.697 286.419 194.414 286.097 196.132 286.097C197.527 286.097 198.761 285.936 199.835 285.614C201.015 285.292 201.981 284.541 202.733 283.36C203.591 282.072 204.235 280.301 204.665 278.047C205.201 275.793 205.47 272.734 205.47 268.87C205.47 265.757 205.47 262.698 205.47 259.693C205.577 256.688 205.631 253.521 205.631 250.194Z" fill="white"/>
<defs>
<filter id="filter0_i_2003_4" x="47.4016" y="45.6748" width="379.967" height="488.675" filterUnits="userSpaceOnUse" color-interpolation-filters="sRGB">
<feFlood flood-opacity="0" result="BackgroundImageFix"/>
<feBlend mode="normal" in="SourceGraphic" in2="BackgroundImageFix" result="shape"/>
<feColorMatrix in="SourceAlpha" type="matrix" values="0 0 0 0 0 0 0 0 0 0 0 0 0 0 0 0 0 0 127 0" result="hardAlpha"/>
<feOffset dy="20"/>
<feGaussianBlur stdDeviation="5.5"/>
<feComposite in2="hardAlpha" operator="arithmetic" k2="-1" k3="1"/>
<feColorMatrix type="matrix" values="0 0 0 0 1 0 0 0 0 1 0 0 0 0 1 0 0 0 0.48 0"/>
<feBlend mode="normal" in2="shape" result="effect1_innerShadow_2003_4"/>
</filter>
</defs>
</svg>
