<svg width="2492" height="1185" viewBox="0 0 2492 1185" fill="none" xmlns="http://www.w3.org/2000/svg">
<g filter="url(#filter0_i_9_172)">
<path d="M1894.23 1006.91C1962.58 1054.42 2136.35 1155.85 2219.49 1072.1C2260.79 1030.49 2196.25 962.75 2268.08 954.332C2339.91 945.914 2311.38 947.896 2386.03 975.254C2440.75 995.305 2537.95 905.91 2464.91 841.024C2391.87 776.139 2394.83 739.434 2399.65 710.796C2404.47 682.158 2446.82 697.947 2481.62 582.126C2516.43 466.305 2434.01 430.708 2337.06 452.057C2264.33 468.074 2144.97 519.635 2128.96 427.211C2112.94 334.788 2040.32 247.38 1897.47 248.035C1824.79 248.368 1787.19 277.881 1790.08 196.328C1792.97 114.775 1655.36 -45.7224 1538.72 12.5927C1422.08 70.9078 1408.47 190.422 1319.56 205.684C1230.65 220.946 1108.55 152.325 1082.65 93.3224C1056.76 34.3193 911.775 24.3908 919.824 140.141C923.829 197.73 910.907 236.456 865.465 218.371C809.284 196.011 838.131 90.0903 738.161 63.1765C649.404 39.2817 574.887 81.5414 547.09 134.807C519.294 188.074 378.83 228.956 306.74 195.353C234.651 161.749 134.688 265.416 149.751 326.558C164.814 387.7 45.3397 352.784 7.84469 462.731C-36.856 593.806 127.962 664.03 124.094 723.95C122.383 750.446 109.546 774.187 58.5811 799.846C7.61643 825.505 -11.9848 880.914 9.24187 929.398C30.4685 977.882 104.172 995.696 136.206 968.815C168.239 941.934 215.986 1002.92 252.579 1034.23C325.765 1096.85 431.922 1016.86 458.631 989.633C485.34 962.408 541.264 942.745 569.175 1025.72C597.086 1108.69 703.394 1155.18 794.85 1100.46C854.791 1064.59 829.817 1013.6 883.653 1004.02C1005.65 982.309 1017.88 1179.77 1085.92 1184.16C1208.85 1192.1 1156.14 1034.67 1246.65 1040.51C1312.32 1044.75 1370.21 1077.44 1432.85 1128.6C1495.49 1179.75 1681.67 1120.6 1719.43 1041.86C1757.19 963.129 1820.74 955.829 1894.23 1006.91Z" fill="#FF7ABA"/>
</g>
<defs>
<filter id="filter0_i_9_172" x="0.150055" y="0.114258" width="2490.95" height="1207.34" filterUnits="userSpaceOnUse" color-interpolation-filters="sRGB">
<feFlood flood-opacity="0" result="BackgroundImageFix"/>
<feBlend mode="normal" in="SourceGraphic" in2="BackgroundImageFix" result="shape"/>
<feColorMatrix in="SourceAlpha" type="matrix" values="0 0 0 0 0 0 0 0 0 0 0 0 0 0 0 0 0 0 127 0" result="hardAlpha"/>
<feOffset dy="23"/>
<feGaussianBlur stdDeviation="17.5"/>
<feComposite in2="hardAlpha" operator="arithmetic" k2="-1" k3="1"/>
<feColorMatrix type="matrix" values="0 0 0 0 1 0 0 0 0 1 0 0 0 0 1 0 0 0 0.37 0"/>
<feBlend mode="normal" in2="shape" result="effect1_innerShadow_9_172"/>
</filter>
</defs>
</svg>
