<svg width="2316" height="1284" viewBox="0 0 2316 1284" fill="none" xmlns="http://www.w3.org/2000/svg">
<g filter="url(#filter0_i_9_170)">
<path d="M486.864 222.786C438.354 142.477 321.949 68.5934 249.827 169.461C213.996 219.573 277.941 291.53 211.791 306.306C145.642 321.083 155.564 261.976 61.3007 291.53C14.1428 306.315 -35.7188 380.833 35.9434 448.934C107.606 517.036 107.054 558.796 104.298 591.562C101.542 624.328 61.3008 609.551 35.9434 743.185C10.586 876.818 132.412 948.132 201.318 948.132C270.224 948.132 293.376 980.898 313.772 1084.33C334.168 1187.77 461.507 1162.07 514.978 1108.11C568.449 1054.14 698.543 1036.79 700.748 1129.31C702.953 1221.82 828.086 1334.25 932.823 1259.73C1037.56 1185.2 1055.2 1108.11 1136.78 1084.33C1218.37 1060.56 1335.79 1129.31 1363.35 1194.2C1390.91 1259.09 1526.04 1259.73 1511.63 1129.31C1504.47 1064.42 1546.75 1094.85 1590 1112C1643.47 1133.2 1646.58 1216.01 1740.95 1239.17C1824.74 1259.73 1835.22 1170.43 1857.82 1108.11C1880.42 1045.79 2008.31 989.25 2077.21 1022.02C2146.12 1054.78 2232.67 930.143 2215.03 862.041C2197.39 793.94 2262.89 804.834 2291.1 677.653C2324.72 526.031 2215.03 478.488 2215.03 410.386C2215.03 380.272 2202.35 362.844 2248.1 330.078C2293.85 297.312 2331.89 222.786 2309.29 169.461C2286.69 116.136 2217.23 101.36 2189.12 134.125C2161 166.891 2113.04 101.36 2077.21 68.5935C2005.55 3.06175 1911.84 101.36 1888.69 134.125C1865.53 166.891 1814.82 193.232 1783.95 101.36C1753.08 9.48687 1651.65 -35.3597 1570.07 33.2579C1516.59 78.2304 1542.82 134.125 1493.44 148.902C1381.54 182.389 1363.35 48.0348 1299.95 48.0348C1225.53 48.0348 1238.77 134.125 1154.42 134.125C1093.24 134.125 1037.56 101.36 976.372 48.0348C915.183 -5.29 782.333 9.48675 752.014 101.36C721.695 193.233 535.374 303.094 486.864 222.786Z" fill="#FF355E"/>
</g>
<defs>
<filter id="filter0_i_9_170" x="0" y="0" width="2316" height="1307" filterUnits="userSpaceOnUse" color-interpolation-filters="sRGB">
<feFlood flood-opacity="0" result="BackgroundImageFix"/>
<feBlend mode="normal" in="SourceGraphic" in2="BackgroundImageFix" result="shape"/>
<feColorMatrix in="SourceAlpha" type="matrix" values="0 0 0 0 0 0 0 0 0 0 0 0 0 0 0 0 0 0 127 0" result="hardAlpha"/>
<feOffset dy="23"/>
<feGaussianBlur stdDeviation="17.5"/>
<feComposite in2="hardAlpha" operator="arithmetic" k2="-1" k3="1"/>
<feColorMatrix type="matrix" values="0 0 0 0 1 0 0 0 0 1 0 0 0 0 1 0 0 0 0.37 0"/>
<feBlend mode="normal" in2="shape" result="effect1_innerShadow_9_170"/>
</filter>
</defs>
</svg>
