<svg width="450" height="551" viewBox="0 0 450 551" fill="none" xmlns="http://www.w3.org/2000/svg">
<g filter="url(#filter0_i_2003_5)">
<path d="M114.757 85.7161C119.546 50.9301 167.355 27.6736 196.004 63.9461C213.194 85.7097 204.871 125.297 236.622 151.949C262.023 173.27 293.129 148.527 282.899 119.771C272.67 91.015 266.968 60.3136 295.228 52.7413C322.546 48.7175 341.839 74.0926 332.355 106.52C320.499 147.053 303.149 167.085 334.233 198.31C365.317 229.535 368.123 219.994 381.526 240.574C420.106 278.581 404.046 390.56 343.33 345.3C317.308 325.903 298.665 319.911 304.472 355.712C310.279 391.513 347.642 432.043 300.384 453.496C253.126 474.948 245.553 439.621 256.86 397.037C268.166 354.453 216.632 352.879 212.627 380.322C208.621 407.765 267.526 481.127 246.687 507.438C197.533 569.502 164.778 434.895 162.545 362.977C161.023 313.937 94.7353 353.975 65.0526 309.991C27.3766 254.162 66.6229 197.5 98.8541 188.863C157.141 173.246 111.222 111.384 114.757 85.7161Z" fill="#FF007C" fill-opacity="0.91"/>
<path d="M22.8116 123.616C26.0781 89.259 62.4286 85.0799 76.8314 117.266C96.4614 149.515 77.5152 175.876 58.3033 179.464C39.0914 183.052 19.545 157.973 22.8116 123.616Z" fill="#FF007C" fill-opacity="0.91"/>
</g>
<path d="M231.607 280.04C231.607 281.221 232.519 282.241 234.344 283.099C236.168 283.958 238.476 284.387 241.267 284.387C244.809 284.387 248.351 283.904 251.893 282.938C255.542 281.865 258.869 281.328 261.875 281.328C263.592 281.328 264.987 281.972 266.061 283.26C267.134 284.441 267.993 285.944 268.637 287.768C269.281 289.593 269.71 291.579 269.925 293.725C270.139 295.872 270.247 297.858 270.247 299.682C270.247 303.868 269.066 307.679 266.705 311.113C264.451 314.441 261.177 317.285 256.884 319.646C252.59 322.008 247.331 323.779 241.106 324.959C234.88 326.247 227.904 326.891 220.176 326.891C206.652 326.891 196.723 324.906 190.391 320.934C184.058 316.963 180.892 310.791 180.892 302.419C180.892 296.945 182.019 292.33 184.273 288.573C186.634 284.817 189.532 281.543 192.967 278.752C196.723 275.747 200.802 273.117 205.203 270.863C209.603 268.502 213.682 266.033 217.439 263.457C221.195 260.881 224.362 258.037 226.938 254.924C229.514 251.812 230.802 247.948 230.802 243.332C230.802 237 228.333 233.833 223.396 233.833C220.068 233.833 217.492 235.443 215.668 238.663C213.843 241.883 212.931 245.64 212.931 249.933C212.931 253.153 211.374 255.676 208.262 257.5C205.256 259.325 201.339 260.237 196.509 260.237C194.147 260.237 192.162 259.701 190.552 258.627C188.942 257.554 187.654 256.159 186.688 254.441C185.722 252.617 185.024 250.577 184.595 248.323C184.165 246.069 183.951 243.762 183.951 241.4C183.951 228.306 187.117 218.86 193.45 213.064C199.782 207.268 210.086 204.37 224.362 204.37C238.315 204.37 248.458 207.322 254.791 213.225C261.231 219.129 264.451 228.52 264.451 241.4C264.451 246.123 263.646 250.202 262.036 253.636C260.426 257.071 258.386 260.023 255.918 262.491C253.449 264.96 250.819 267.053 248.029 268.77C245.238 270.38 242.608 271.829 240.14 273.117C237.671 274.405 235.632 275.586 234.022 276.659C232.412 277.733 231.607 278.86 231.607 280.04Z" fill="white"/>
<defs>
<filter id="filter0_i_2003_5" x="22.4519" y="45.6748" width="379.967" height="488.675" filterUnits="userSpaceOnUse" color-interpolation-filters="sRGB">
<feFlood flood-opacity="0" result="BackgroundImageFix"/>
<feBlend mode="normal" in="SourceGraphic" in2="BackgroundImageFix" result="shape"/>
<feColorMatrix in="SourceAlpha" type="matrix" values="0 0 0 0 0 0 0 0 0 0 0 0 0 0 0 0 0 0 127 0" result="hardAlpha"/>
<feOffset dy="20"/>
<feGaussianBlur stdDeviation="5.5"/>
<feComposite in2="hardAlpha" operator="arithmetic" k2="-1" k3="1"/>
<feColorMatrix type="matrix" values="0 0 0 0 1 0 0 0 0 1 0 0 0 0 1 0 0 0 0.48 0"/>
<feBlend mode="normal" in2="shape" result="effect1_innerShadow_2003_5"/>
</filter>
</defs>
</svg>
