<svg width="1461" height="1172" viewBox="0 0 1461 1172" fill="none" xmlns="http://www.w3.org/2000/svg">
<g filter="url(#filter0_i_9_173)">
<path d="M391.962 162.451C358.187 113.801 270.185 9.41849 213.471 91.2696C185.294 131.934 214.655 200.664 172.716 207.674C130.776 214.685 147.286 213.257 107.687 184.57C78.6642 163.545 13.2973 250.749 47.8275 316.795C82.3576 382.84 76.6099 419.354 70.6943 447.794C64.7787 476.235 42.3465 459.692 9.67893 574.421C-22.9887 689.149 41.4764 762.502 83.168 768.675C124.86 774.849 134.62 805.611 133.55 898.001C132.481 990.391 237.527 986.525 276.877 944.066C316.226 901.606 372.52 890.849 361.86 972.047C351.2 1053.24 412.029 1215.79 485.062 1159.92C558.096 1104.05 579.07 985.241 631.515 971.738C683.959 958.235 746.089 1028.94 754.353 1088.22C762.617 1147.51 844.292 1160.18 852.486 1044.7C856.563 987.243 868.219 948.907 892.164 967.796C921.768 991.15 893.595 1096.13 947.695 1124.86C995.727 1150.37 1042.94 1109.69 1064.69 1057.15C1086.45 1004.61 1171.16 966.571 1208.6 1001.43C1246.04 1036.29 1314.57 934.922 1312.72 873.717C1310.88 812.511 1375.23 849.587 1408.79 740.763C1448.79 611.026 1362.45 537.904 1371.28 478.278C1375.18 451.912 1385.14 428.504 1417.07 403.916C1449 379.328 1466.31 324.498 1459.55 275.785C1452.79 227.073 1412.68 207.913 1391.42 234.081C1370.16 260.25 1349.64 198.578 1332.21 166.68C1297.35 102.884 1227.9 180.551 1209.64 207.164C1191.39 233.777 1157.29 252.296 1150.52 169.093C1143.75 85.8898 1088.2 37.5377 1029.94 90.3051C991.756 124.889 1000.38 176.177 968.586 184.69C896.537 203.983 911.371 7.01491 873.015 1.33523C803.71 -8.92724 816.41 148.935 765.379 141.379C728.357 135.897 698.918 102.221 668.809 50.0512C638.701 -2.1185 525.87 53.253 495.615 130.974C465.36 208.696 428.271 214.752 391.962 162.451Z" fill="#D10064"/>
</g>
<defs>
<filter id="filter0_i_9_173" x="0.755371" y="0.855469" width="1460.25" height="1193.51" filterUnits="userSpaceOnUse" color-interpolation-filters="sRGB">
<feFlood flood-opacity="0" result="BackgroundImageFix"/>
<feBlend mode="normal" in="SourceGraphic" in2="BackgroundImageFix" result="shape"/>
<feColorMatrix in="SourceAlpha" type="matrix" values="0 0 0 0 0 0 0 0 0 0 0 0 0 0 0 0 0 0 127 0" result="hardAlpha"/>
<feOffset dy="23"/>
<feGaussianBlur stdDeviation="17.5"/>
<feComposite in2="hardAlpha" operator="arithmetic" k2="-1" k3="1"/>
<feColorMatrix type="matrix" values="0 0 0 0 1 0 0 0 0 1 0 0 0 0 1 0 0 0 0.37 0"/>
<feBlend mode="normal" in2="shape" result="effect1_innerShadow_9_173"/>
</filter>
</defs>
</svg>
