<svg width="450" height="551" viewBox="0 0 450 551" fill="none" xmlns="http://www.w3.org/2000/svg">
<g filter="url(#filter0_i_2003_6)">
<path d="M335.063 85.7161C330.274 50.9301 282.465 27.6736 253.816 63.9461C236.626 85.7097 244.949 125.297 213.198 151.949C187.797 173.27 156.691 148.527 166.921 119.771C177.15 91.015 182.852 60.3136 154.592 52.7413C127.274 48.7175 107.98 74.0926 117.465 106.52C129.321 147.053 146.671 167.085 115.587 198.31C84.5033 229.535 81.6967 219.994 68.2939 240.574C29.7139 278.581 45.774 390.56 106.49 345.3C132.511 325.903 151.155 319.911 145.348 355.712C139.541 391.513 102.178 432.043 149.436 453.496C196.694 474.948 204.267 439.621 192.96 397.037C181.654 354.453 233.188 352.879 237.193 380.322C241.199 407.765 182.294 481.127 203.133 507.438C252.287 569.502 285.042 434.895 287.275 362.977C288.797 313.937 355.085 353.975 384.767 309.991C422.443 254.162 383.197 197.5 350.966 188.863C292.679 173.246 338.598 111.384 335.063 85.7161Z" fill="#B90059"/>
<path d="M427.008 123.616C423.742 89.259 387.391 85.0799 372.989 117.266C353.359 149.515 372.305 175.876 391.517 179.464C410.729 183.052 430.275 157.973 427.008 123.616Z" fill="#B90059"/>
</g>
<path d="M224.468 204.792C229.942 204.792 235.04 205.329 239.763 206.402C244.485 207.475 248.564 209.246 251.999 211.715C255.433 214.184 258.117 217.404 260.049 221.375C262.088 225.346 263.108 230.23 263.108 236.026C263.108 238.924 262.732 241.876 261.981 244.881C261.337 247.779 260.371 250.462 259.083 252.931C258.009 254.97 257.151 256.527 256.507 257.6C255.97 258.566 255.541 259.371 255.219 260.015C255.004 260.552 254.843 261.035 254.736 261.464C254.736 261.786 254.736 262.269 254.736 262.913C254.736 264.523 255.326 265.65 256.507 266.294C257.795 266.938 259.136 267.904 260.532 269.192C262.034 270.373 263.376 272.305 264.557 274.988C265.845 277.564 266.489 281.589 266.489 287.063C266.489 292.859 265.737 298.065 264.235 302.68C262.839 307.295 260.371 311.267 256.829 314.594C253.394 317.921 248.832 320.444 243.144 322.161C237.455 323.986 230.425 324.898 222.053 324.898C214.969 324.898 208.904 324.039 203.86 322.322C198.815 320.605 194.683 318.351 191.463 315.56C188.243 312.769 185.828 309.603 184.218 306.061C182.715 302.519 181.964 298.87 181.964 295.113C181.964 292.215 182.393 289.585 183.252 287.224C184.218 284.755 185.452 282.716 186.955 281.106C188.457 279.389 190.175 278.047 192.107 277.081C194.146 276.115 196.239 275.632 198.386 275.632C202.035 275.632 204.933 276.169 207.08 277.242C209.334 278.315 211.266 279.496 212.876 280.784C214.593 281.965 216.257 283.092 217.867 284.165C219.584 285.238 221.677 285.775 224.146 285.775C226.292 285.775 227.849 285.292 228.815 284.326C229.781 283.253 230.264 281.16 230.264 278.047C230.264 276.222 229.834 274.559 228.976 273.056C228.117 271.553 226.292 270.802 223.502 270.802C220.282 270.802 217.491 270.158 215.13 268.87C212.876 267.582 211.749 265.221 211.749 261.786C211.749 259.854 212.178 258.351 213.037 257.278C213.895 256.097 214.969 255.239 216.257 254.702C217.652 254.058 219.208 253.682 220.926 253.575C222.643 253.36 224.307 253.253 225.917 253.253C228.171 253.253 230.103 252.394 231.713 250.677C233.43 248.96 234.289 246.33 234.289 242.788C234.289 237.421 232.035 234.738 227.527 234.738C220.765 234.738 217.384 238.173 217.384 245.042C217.384 246.759 216.901 248.208 215.935 249.389C214.969 250.462 213.734 251.375 212.232 252.126C210.836 252.877 209.226 253.414 207.402 253.736C205.684 254.058 203.967 254.219 202.25 254.219C199.888 254.219 197.849 253.79 196.132 252.931C194.522 252.072 193.18 250.945 192.107 249.55C191.033 248.155 190.228 246.545 189.692 244.72C189.155 242.895 188.887 240.963 188.887 238.924C188.887 228.405 191.785 220.087 197.581 213.969C203.377 207.851 212.339 204.792 224.468 204.792Z" fill="white"/>
<defs>
<filter id="filter0_i_2003_6" x="47.4016" y="45.6748" width="379.967" height="488.675" filterUnits="userSpaceOnUse" color-interpolation-filters="sRGB">
<feFlood flood-opacity="0" result="BackgroundImageFix"/>
<feBlend mode="normal" in="SourceGraphic" in2="BackgroundImageFix" result="shape"/>
<feColorMatrix in="SourceAlpha" type="matrix" values="0 0 0 0 0 0 0 0 0 0 0 0 0 0 0 0 0 0 127 0" result="hardAlpha"/>
<feOffset dy="20"/>
<feGaussianBlur stdDeviation="5.5"/>
<feComposite in2="hardAlpha" operator="arithmetic" k2="-1" k3="1"/>
<feColorMatrix type="matrix" values="0 0 0 0 1 0 0 0 0 1 0 0 0 0 1 0 0 0 0.48 0"/>
<feBlend mode="normal" in2="shape" result="effect1_innerShadow_2003_6"/>
</filter>
</defs>
</svg>
