<svg width="553" height="553" viewBox="0 0 553 553" fill="none" xmlns="http://www.w3.org/2000/svg">
<path d="M461.28 296.43C444.54 400.09 352.261 492.33 253.158 476.327C154.055 460.323 87.2856 363.315 104.025 259.656C120.764 155.996 213.043 63.7553 312.146 79.7592C411.25 95.763 478.019 192.77 461.28 296.43Z" fill="#E9981F" stroke="#E9981F" stroke-miterlimit="10" stroke-linecap="round" stroke-linejoin="round"/>
<path d="M252.229 483.869C244.293 483.869 236.28 483.228 228.428 481.956C203.327 477.903 179.802 468.872 158.506 455.113C137.951 441.836 120.333 424.737 106.137 404.293C76.9776 362.298 65.4863 310.885 73.7813 259.528C77.6689 235.473 85.5215 211.898 97.1234 189.463C108.521 167.426 122.965 147.574 140.053 130.453C176.296 94.1482 220.713 74.1517 265.119 74.1517C273.055 74.1517 281.068 74.7932 288.92 76.0651C314.021 80.1186 337.546 89.1491 358.842 102.908C379.397 116.185 397.015 133.284 411.211 153.728C440.371 195.723 451.862 247.136 443.567 298.493C439.685 322.548 431.827 346.123 420.225 368.558C408.827 390.595 394.383 410.448 377.295 427.568C341.052 463.873 296.635 483.869 252.229 483.869Z" fill="#FBC33B"/>
<path d="M265.119 80.5112C272.657 80.5112 280.255 81.1085 287.908 82.3417C387.012 98.3455 453.891 194.667 437.29 297.481C421.967 392.353 342.313 477.504 252.229 477.504C244.691 477.504 237.093 476.907 229.44 475.674C130.337 459.67 63.4513 363.349 80.0579 260.535C95.3815 165.662 175.036 80.5168 265.119 80.5112ZM265.13 67.7922H265.119C219.01 67.7978 172.995 88.4523 135.551 125.962C117.999 143.542 103.168 163.926 91.4718 186.543C79.5602 209.576 71.4919 233.792 67.4992 258.511C63.1748 285.276 64.0375 312.069 70.0652 338.143C75.8883 363.354 86.2681 386.829 100.912 407.92C115.583 429.051 133.798 446.724 155.056 460.455C177.098 474.695 201.441 484.041 227.416 488.238C235.606 489.56 243.956 490.229 252.234 490.229C298.344 490.229 344.359 469.569 381.802 432.059C399.354 414.479 414.18 394.095 425.882 371.478C437.794 348.445 445.862 324.229 449.854 299.505C454.179 272.74 453.316 245.947 447.289 219.873C441.465 194.667 431.086 171.187 416.442 150.095C401.771 128.965 383.555 111.291 362.298 97.5602C340.255 83.3205 315.912 73.9748 289.938 69.7775C281.742 68.4614 273.398 67.7922 265.13 67.7922Z" fill="#E9981F"/>
<path d="M263.914 117.656C270.041 117.656 276.218 118.137 282.439 119.144C362.995 132.15 417.36 210.45 403.867 294.019C391.414 371.14 326.663 440.354 253.44 440.354C247.313 440.354 241.136 439.873 234.915 438.866C154.353 425.865 99.988 347.566 113.487 263.997C125.94 186.875 190.686 117.662 263.914 117.656ZM263.919 110.467C227.272 110.467 190.663 126.936 160.818 156.825C146.783 170.888 134.916 187.191 125.559 205.29C116.031 223.716 109.577 243.082 106.386 262.846C102.941 284.198 103.627 305.566 108.432 326.364C113.078 346.466 121.35 365.179 133.024 381.996C144.715 398.829 159.225 412.914 176.158 423.852C193.705 435.189 213.093 442.632 233.77 445.972C240.262 447.023 246.881 447.554 253.44 447.554C290.076 447.554 326.69 431.091 356.53 401.196C370.565 387.133 382.433 370.825 391.79 352.731C401.318 334.305 407.771 314.939 410.962 295.175C414.413 273.823 413.722 252.456 408.916 231.657C404.271 211.556 395.998 192.842 384.324 176.025C372.634 159.192 358.123 145.107 341.19 134.169C323.643 122.832 304.255 115.389 283.578 112.049C277.092 110.998 270.472 110.467 263.919 110.467Z" fill="#E9981F"/>
<path d="M232.476 410.768C231.563 410.768 230.69 410.392 230.065 409.729C229.418 409.043 229.091 408.12 229.169 407.179L230.242 393.968C227.786 394.328 224.435 394.659 220.487 394.659C211.34 394.659 197.698 392.829 184.625 384.119C160.022 367.717 174.621 323.361 175.257 321.481C175.672 320.242 176.778 319.369 178.077 319.241L207.01 316.393C207.121 316.382 207.226 316.377 207.336 316.377C208.326 316.377 209.272 316.819 209.908 317.599C210.61 318.462 210.837 319.617 210.505 320.679C210.461 320.817 206.153 335.079 209.499 344.165C210.278 346.278 213.723 346.725 216.477 346.72C220.503 346.72 224.916 345.763 227.454 345.111C228.986 325.241 229.606 302.806 227.996 299.046C227.184 298.426 224.258 297.387 221.891 296.541C211.904 292.979 195.192 287.024 186.776 268.918C180.986 256.465 178.409 242.844 179.316 229.539C180.295 215.272 185.31 202.099 193.832 191.449C201.038 182.44 220.719 177.242 228.207 175.544V152.252C228.207 150.604 229.412 149.21 231.038 148.967L273.752 142.668C273.912 142.646 274.072 142.635 274.238 142.635C275.101 142.635 275.936 142.973 276.561 143.581C277.302 144.305 277.661 145.339 277.534 146.368L274.708 168.825C280.083 167.454 289.131 165.568 298.36 165.568C303.094 165.568 307.391 166.071 311.123 167.067C321.73 169.898 326.37 181.987 324.904 202.995C323.887 217.611 320.27 231.27 320.115 231.845C319.789 233.056 318.81 233.985 317.582 234.24L287.698 240.406C287.477 240.45 287.25 240.472 287.029 240.472C286.305 240.472 285.591 240.234 285.011 239.786C284.248 239.2 283.772 238.31 283.717 237.348L282.771 220.901C282.384 214.238 279.508 210.704 274.216 210.394L274.117 255.84C282.301 258.201 306.268 265.705 314.204 274.819C321.708 283.44 324.921 302.071 322.803 324.661C321.193 341.82 315.923 363.609 305.947 373.297C297.779 381.233 280.509 387.316 274.128 389.373C274.161 394.09 274.222 403.972 274.222 405.072C274.222 408.175 270.981 408.672 269.759 408.861C268.67 409.026 267.165 409.187 265.164 409.347C261.934 409.607 257.449 409.861 251.836 410.105C242.308 410.52 232.658 410.757 232.564 410.757C232.531 410.768 232.503 410.768 232.476 410.768ZM274.216 338.558C279.425 337.452 284.983 335.251 285.138 332.768C285.204 331.706 285.304 330.451 285.42 329.046C285.967 322.311 287.09 308.524 283.877 303.774C282.434 303.226 278.419 302.148 274.216 301.12V338.558ZM227.261 210.809C218.54 211.777 214.326 215.88 212.982 224.396C211.821 231.746 212.922 237.458 216.256 241.384C219.442 245.139 224.125 246.627 227.261 247.213V210.809Z" fill="#FBC33B"/>
<path d="M274.238 145.953L270.782 173.382C270.782 173.382 284.485 168.886 298.355 168.886C302.425 168.886 306.511 169.273 310.266 170.274C331.612 175.965 316.908 230.994 316.908 230.994L287.024 237.16C287.024 237.16 287.024 237.16 286.073 220.713C285.376 208.669 277.562 207.06 273.425 207.06C271.916 207.06 270.893 207.275 270.893 207.275L270.782 258.362C270.782 258.362 303.016 267.038 311.687 277.003C326.641 294.179 320.226 354.799 303.625 370.925C294.191 380.088 270.782 386.94 270.782 386.94C270.782 386.94 270.893 403.651 270.893 405.078C270.893 406.499 232.47 407.45 232.47 407.45L233.891 389.898C233.891 389.898 228.522 391.347 220.476 391.347C211.285 391.347 198.599 389.456 186.455 381.36C163.688 366.18 178.392 322.537 178.392 322.537L207.325 319.689C207.325 319.689 202.586 335.024 206.374 345.304C207.718 348.948 211.926 350.032 216.466 350.032C223.158 350.032 230.562 347.677 230.562 347.677C230.562 347.677 234.356 301.191 230.562 296.922C226.769 292.653 200.628 290.878 189.768 267.514C178.907 244.149 179.332 214.863 196.409 193.517C204.361 183.579 231.514 178.221 231.514 178.221V152.246L274.238 145.953ZM230.579 250.913V207.27C219.519 207.524 211.683 211.357 209.709 223.871C205.434 250.913 230.579 250.913 230.579 250.913ZM270.898 342.462C270.898 342.462 287.975 340.582 288.45 332.972C288.926 325.363 291.298 307.357 286.078 301.191C285.26 300.224 270.898 296.922 270.898 296.922V342.462ZM274.238 139.317C273.918 139.317 273.591 139.339 273.271 139.389L230.557 145.688C227.3 146.169 224.889 148.962 224.889 152.252V172.945C222.162 173.631 218.634 174.599 214.868 175.848C203.139 179.736 195.414 184.166 191.244 189.375C182.297 200.556 177.032 214.365 176.009 229.312C175.058 243.182 177.745 257.361 183.768 270.317C192.77 289.683 210.992 296.181 220.78 299.665C222.256 300.19 223.987 300.81 225.11 301.285C225.458 303.52 225.978 309.702 225.298 325.568C225.016 332.11 224.612 338.37 224.325 342.44C222.041 342.926 219.154 343.396 216.489 343.396C213.978 343.396 212.883 342.965 212.546 342.794C210.223 336.119 212.573 325.286 213.685 321.636C214.332 319.512 213.878 317.206 212.474 315.486C211.207 313.938 209.316 313.048 207.342 313.048C207.126 313.048 206.911 313.059 206.695 313.081L177.762 315.929C175.163 316.183 172.956 317.942 172.121 320.414C171.961 320.895 168.156 332.303 167.283 345.818C166.033 365.079 171.397 379.275 182.794 386.873C196.553 396.048 210.892 397.972 220.492 397.972C222.726 397.972 224.784 397.867 226.614 397.712L225.867 406.903C225.718 408.778 226.365 410.63 227.659 411.996C228.914 413.323 230.662 414.075 232.481 414.075C232.537 414.075 232.592 414.075 232.647 414.075C232.741 414.075 242.424 413.832 251.98 413.417C257.637 413.174 262.166 412.914 265.435 412.654C267.514 412.488 269.095 412.317 270.268 412.14C271.136 412.007 271.811 411.863 272.397 411.686C276.196 410.536 277.545 407.406 277.545 405.072C277.545 404.132 277.501 396.838 277.468 391.773C285.326 389.118 300.401 383.317 308.264 375.675C318.888 365.356 324.451 342.716 326.11 324.965C327.094 314.452 326.934 304.321 325.651 295.667C324.13 285.453 321.122 277.706 316.709 272.635C312.318 267.591 303.686 262.708 290.32 257.72C285.359 255.868 280.736 254.374 277.446 253.374L277.529 215.067C278.557 216.123 279.282 217.954 279.464 221.084L280.415 237.53C280.526 239.454 281.472 241.235 282.998 242.413C284.165 243.309 285.591 243.784 287.04 243.784C287.488 243.784 287.936 243.74 288.379 243.646L318.263 237.48C320.723 236.972 322.687 235.119 323.334 232.697C323.488 232.111 327.188 218.153 328.228 203.222C328.864 194.075 328.36 186.405 326.729 180.411C323.665 169.157 317.024 165.198 311.992 163.854C307.977 162.781 303.398 162.239 298.371 162.239C291.155 162.239 284.049 163.345 278.607 164.501L280.841 146.772C281.101 144.715 280.382 142.652 278.9 141.203C277.634 139.986 275.964 139.317 274.238 139.317ZM223.943 242.822C222.101 242.07 220.216 240.931 218.761 239.206C216.101 236.048 215.261 231.242 216.262 224.911C217.152 219.264 219.336 216.184 223.943 214.802V242.822ZM277.534 334.228V305.383C279.138 305.803 280.543 306.191 281.543 306.495C281.991 307.639 282.572 309.929 282.721 314.237C282.893 319.131 282.461 324.484 282.113 328.781C282.013 329.97 281.925 331.103 281.859 332.104C281.195 332.784 279.569 333.553 277.534 334.228Z" fill="#E9981F"/>
<path opacity="0.18" d="M368.851 117.789L77.5417 298.896C77.8238 336.777 89.1658 372.611 113.99 404.265L436.317 230.048C424.704 183.043 402.573 143.387 368.851 117.789Z" fill="white"/>
</svg>
