<svg width="1000" height="1000" viewBox="0 0 1000 1000" fill="none" xmlns="http://www.w3.org/2000/svg">
<path d="M834.14 536.04C803.87 723.49 637 890.29 457.79 861.35C278.58 832.41 157.84 656.99 188.11 469.54C218.38 282.09 385.25 115.29 564.46 144.23C743.67 173.17 864.41 348.59 834.14 536.04Z" fill="#E19539" stroke="#E19539" stroke-miterlimit="10" stroke-linecap="round" stroke-linejoin="round"/>
<path d="M456.11 874.99C441.76 874.99 427.27 873.83 413.07 871.53C367.68 864.2 325.14 847.87 286.63 822.99C249.46 798.98 217.6 768.06 191.93 731.09C139.2 655.15 118.42 562.18 133.42 469.31C140.45 425.81 154.65 383.18 175.63 342.61C196.24 302.76 222.36 266.86 253.26 235.9C318.8 170.25 399.12 134.09 479.42 134.09C493.77 134.09 508.26 135.25 522.46 137.55C567.85 144.88 610.39 161.21 648.9 186.09C686.07 210.1 717.93 241.02 743.6 277.99C796.33 353.93 817.11 446.9 802.11 539.77C795.09 583.27 780.88 625.9 759.9 666.47C739.29 706.32 713.17 742.22 682.27 773.18C616.73 838.83 536.41 874.99 456.11 874.99Z" fill="#FBC33B"/>
<path d="M479.42 145.59C493.05 145.59 506.79 146.67 520.63 148.9C699.84 177.84 820.78 352.02 790.76 537.94C763.05 709.5 619.01 863.48 456.11 863.48C442.48 863.48 428.74 862.4 414.9 860.17C235.69 831.23 114.74 657.05 144.77 471.13C172.48 299.57 316.52 145.6 479.42 145.59ZM479.44 122.59H479.42C396.04 122.6 312.83 159.95 245.12 227.78C213.38 259.57 186.56 296.43 165.41 337.33C143.87 378.98 129.28 422.77 122.06 467.47C114.24 515.87 115.8 564.32 126.7 611.47C137.23 657.06 156 699.51 182.48 737.65C209.01 775.86 241.95 807.82 280.39 832.65C320.25 858.4 364.27 875.3 411.24 882.89C426.05 885.28 441.15 886.49 456.12 886.49C539.5 886.49 622.71 849.13 690.42 781.3C722.16 749.51 748.97 712.65 770.13 671.75C791.67 630.1 806.26 586.31 813.48 541.6C821.3 493.2 819.74 444.75 808.84 397.6C798.31 352.02 779.54 309.56 753.06 271.42C726.53 233.21 693.59 201.25 655.15 176.42C615.29 150.67 571.27 133.77 524.3 126.18C509.48 123.8 494.39 122.59 479.44 122.59Z" fill="#E19539"/>
<path d="M477.24 212.76C488.32 212.76 499.49 213.63 510.74 215.45C656.41 238.97 754.72 380.56 730.32 531.68C707.8 671.14 590.71 796.3 458.3 796.3C447.22 796.3 436.05 795.43 424.8 793.61C279.12 770.1 180.81 628.51 205.22 477.39C227.74 337.93 344.82 212.77 477.24 212.76ZM477.25 199.76C410.98 199.76 344.78 229.54 290.81 283.59C265.43 309.02 243.97 338.5 227.05 371.23C209.82 404.55 198.15 439.57 192.38 475.31C186.15 513.92 187.39 552.56 196.08 590.17C204.48 626.52 219.44 660.36 240.55 690.77C261.69 721.21 287.93 746.68 318.55 766.46C350.28 786.96 385.34 800.42 422.73 806.46C434.47 808.36 446.44 809.32 458.3 809.32C524.55 809.32 590.76 779.55 644.72 725.49C670.1 700.06 691.56 670.57 708.48 637.85C725.71 604.53 737.38 569.51 743.15 533.77C749.39 495.16 748.14 456.52 739.45 418.91C731.05 382.56 716.09 348.72 694.98 318.31C673.84 287.87 647.6 262.4 616.98 242.62C585.25 222.12 550.19 208.66 512.8 202.62C501.07 200.72 489.1 199.76 477.25 199.76Z" fill="#E19539"/>
<path d="M451.28 742.67C449.26 742.59 447.42 741.5 446.38 739.77L326.35 540.36C324.89 537.93 325.33 534.81 327.4 532.88C328.54 531.81 330.02 531.27 331.5 531.27C332.7 531.27 333.9 531.63 334.94 532.35L453.6 615.43L598.33 522.78C599.32 522.14 600.45 521.83 601.56 521.83C603.16 521.83 604.75 522.47 605.92 523.7C607.9 525.79 608.12 528.99 606.44 531.33L456.39 740.18C455.26 741.75 453.44 742.68 451.52 742.68C451.44 742.68 451.36 742.68 451.28 742.67ZM455.99 602.41C454.78 602.41 453.58 602.05 452.54 601.32L330.61 515.77C328.09 514 327.32 510.62 328.82 507.94L455.93 280.15C456.95 278.32 458.86 277.15 460.96 277.08C461.03 277.08 461.1 277.08 461.17 277.08C463.19 277.08 465.08 278.1 466.19 279.79L609.1 498.23C609.98 499.57 610.28 501.2 609.95 502.77C609.62 504.34 608.67 505.7 607.32 506.57L459.23 601.47C458.24 602.1 457.12 602.41 455.99 602.41Z" fill="#FBC33B"/>
<path d="M461.17 283.07L604.09 501.51L456 596.41L334.07 510.86L461.17 283.07ZM601.56 527.83L451.52 736.68L331.5 537.26L453.45 622.64L453.41 622.67H453.5L453.46 622.64L601.56 527.83ZM461.17 271.07C461.03 271.07 460.89 271.07 460.75 271.08C456.55 271.23 452.74 273.56 450.69 277.23L323.58 505.01C320.58 510.38 322.13 517.15 327.17 520.68L334.1 525.54C333.24 525.35 332.37 525.26 331.5 525.26C328.54 525.26 325.6 526.35 323.31 528.49C319.17 532.36 318.29 538.6 321.22 543.45L441.24 742.86C443.32 746.32 447 748.5 451.03 748.66C451.19 748.67 451.36 748.67 451.52 748.67C455.37 748.67 459 746.82 461.26 743.67L611.18 535C612.68 533 613.57 530.51 613.57 527.82C613.57 521.92 609.31 517.01 603.69 516.01L610.56 511.61C613.26 509.88 615.15 507.15 615.82 504.02C616.49 500.89 615.88 497.62 614.13 494.94L471.21 276.5C468.99 273.1 465.21 271.07 461.17 271.07ZM453.75 608.21L453.74 608.2C453.74 608.2 453.75 608.2 453.75 608.21Z" fill="#E19539"/>
<path opacity="0.18" d="M667 213L140.22 540.5C140.73 609 161.24 673.8 206.13 731.04L789 416C768 331 727.98 259.29 667 213Z" fill="white"/>
</svg>
