<svg width="242" height="192" viewBox="0 0 242 192" fill="none" xmlns="http://www.w3.org/2000/svg">
<path d="M108.927 159.784C112.708 159.784 116.11 163.089 116.11 167.635C116.11 171.767 113.086 175.485 108.927 175.485C105.147 175.485 101.744 172.18 101.744 167.635C101.744 163.089 105.147 159.784 108.927 159.784ZM220.073 111.853C216.293 111.853 212.89 108.547 212.89 104.002C212.89 99.8702 215.915 96.1514 220.073 96.1514C223.854 96.1514 227.256 99.457 227.256 104.002C227.256 108.134 223.854 111.853 220.073 111.853ZM220.073 80.0367C207.976 80.0367 198.147 90.7799 198.147 104.002C198.147 106.481 198.525 108.961 199.281 111.44L127.074 153.586C122.915 146.975 116.11 143.256 108.927 143.256C100.61 143.256 93.0494 148.628 89.2689 156.478L24.2448 119.291C17.4399 115.159 12.1473 103.176 12.9034 91.6063C13.2814 85.8215 15.1716 81.2763 17.818 79.6235C19.7082 78.3839 21.5984 78.7971 24.2448 80.0367L24.6228 80.4499C42.013 90.3667 98.342 122.596 100.61 123.836C104.391 125.488 106.281 126.315 112.708 123.009L229.146 56.8976C231.037 56.0712 232.927 54.4185 232.927 51.5261C232.927 47.8073 229.524 46.1545 229.524 46.1545C222.72 42.8489 212.512 37.4774 202.683 32.519C181.512 21.7758 157.317 9.37991 146.732 3.18194C137.659 -2.18963 130.098 2.35555 128.964 3.18194L126.318 4.42154C78.3055 30.8662 14.7936 65.1616 11.0131 67.6408C4.58632 71.7728 0.427801 80.4499 0.0497539 91.1931C-0.706341 108.134 7.23265 125.902 18.5741 132.1L87.3787 170.94C88.8909 182.51 98.342 191.6 108.927 191.6C121.025 191.6 130.476 181.27 130.854 168.048L206.464 123.422C210.244 126.728 215.159 128.381 220.073 128.381C232.171 128.381 242 117.638 242 104.415C242 90.7799 232.171 80.0367 220.073 80.0367Z" fill="#FFD8DF"/>
</svg>
