<svg width="1279" height="779" viewBox="0 0 1279 779" fill="none" xmlns="http://www.w3.org/2000/svg">
<path d="M564.056 4.72241C563.953 3.96019 563.689 3.45009 562.883 3.06312C561.439 2.37712 559.841 2.10154 558.214 1.91978C555.195 1.57385 552.139 1.53281 549.141 0.975798C546.334 0.453969 543.454 0.231167 540.573 0.102175C536.388 -0.0795854 532.204 -0.00922447 528.011 0.237032C521.393 0.624006 514.841 1.35105 508.406 2.60578C486.074 6.96804 464.915 13.7225 444.797 22.6112C430.733 28.8262 417.416 35.9383 404.693 43.7834C402.054 45.4075 399.291 46.9143 397.048 48.9372C393.325 52.2909 389.463 55.5509 385.74 58.8988C385.087 59.4851 384.64 59.6083 383.761 59.2917C381.54 58.4884 379.297 57.7262 377.025 57.0284C362.814 52.631 348.068 49.9339 333.051 48.0811C326.125 47.2251 319.162 46.5977 312.171 46.1287C305.743 45.6948 299.308 45.3313 292.858 45.2844C282.202 45.2081 271.538 45.1378 260.889 45.771C254.403 46.1521 247.931 46.5743 241.474 47.1958C231.36 48.1632 221.334 49.5411 211.418 51.3939C201.428 53.2642 191.63 55.633 182.146 58.7874C181.362 59.0454 180.585 59.4969 179.793 59.5086C178.818 59.5203 178.467 58.6115 177.873 58.1014C175.022 55.6506 172.251 53.1294 169.378 50.6903C167.832 49.371 166.425 47.9404 164.637 46.8029C154.904 40.6407 144.885 34.8009 134.434 29.436C123.645 23.9011 112.498 18.8939 100.844 14.6196C89.14 10.3335 77.1056 6.80387 64.6023 4.30612C55.7488 2.54128 46.8073 1.25137 37.712 0.624004C35.0075 0.43638 32.2885 0.354294 29.584 0.201849C26.5718 0.0318152 23.5742 0.166672 20.5693 0.10804C20.3494 0.102176 20.1222 0.154947 19.9097 0.219443C16.1059 1.36864 12.0969 1.62076 8.10989 2.0136C5.80123 2.24226 3.51457 2.54129 1.33784 3.22142C0.934745 3.35041 0.473012 3.39146 0.282457 3.81948C-0.340513 5.23252 0.0625789 6.39344 1.53572 7.40778C3.48525 8.7446 5.65465 9.79412 7.92666 10.7322C10.3452 11.7231 12.8151 12.6495 15.0945 13.828C18.9349 15.8098 22.1524 18.3486 25.106 21.1161C32.9114 28.4334 38.3936 36.7416 41.5744 46.0114C43.8171 52.5548 44.0809 59.2975 44.4547 66.0227C44.5793 68.1979 44.1835 70.3615 44.1908 72.5426C44.1982 74.3016 44.0223 76.0781 43.6925 77.8136C43.0548 81.1674 42.8276 84.5447 42.5418 87.916C42.3 90.7597 42.1387 93.6034 41.8749 96.447C41.7723 97.5669 41.5744 98.7103 41.8455 99.836C42.4685 102.457 43.0695 105.078 43.8904 107.663C45.1436 111.627 46.8 115.473 49.138 119.114C52.4141 124.221 56.8335 128.636 62.4402 132.207C68.8165 136.264 75.1415 140.421 83.0349 142.831C81.657 145.458 80.3158 148.003 78.9965 150.553C73.4558 161.306 67.9077 172.059 62.3962 182.819C61.2822 184.994 59.941 187.099 59.2227 189.391C56.7235 197.43 54.2317 205.468 51.7544 213.507C48.8008 223.064 45.7959 232.609 43.304 242.248C41.4424 249.46 39.7494 256.695 38.3349 263.972C37.668 267.402 37.0817 270.843 36.532 274.291C35.7844 278.946 35.1688 283.614 34.707 288.287C34.4872 290.497 34.3992 292.719 34.1794 294.924C33.8569 298.131 33.9155 301.344 33.7176 304.551C33.549 307.26 33.6956 309.987 33.8495 312.707C34.0328 316.049 34.2087 319.391 34.5531 322.733C34.9929 327.008 35.6818 331.247 36.6492 335.462C38.6867 344.374 41.9408 352.964 47.3277 360.979C50.4865 365.67 54.3196 369.973 58.9882 373.79C63.0119 377.08 67.5999 379.806 72.3271 382.392C80.3304 386.777 88.7735 390.548 97.5391 393.884C103.366 396.1 109.266 398.176 115.231 400.14C128.519 404.514 142.048 408.378 155.527 412.341C168.763 416.24 181.816 420.468 194.4 425.592C201.714 428.571 209.102 431.438 216.614 434.1C225.937 437.407 235.575 439.787 245.689 440.919C254.755 441.939 263.791 443.129 272.806 444.425C277.841 445.146 282.913 445.316 288.014 444.7C293.43 444.044 298.868 443.487 304.299 442.883C310.346 442.209 316.399 441.528 322.395 440.584C331.255 439.189 339.786 436.938 348.171 434.287C359.076 430.834 369.601 426.706 380.17 422.666C388.803 419.365 397.451 416.094 406.4 413.379C417.768 409.926 429.194 406.595 440.561 403.136C452.735 399.43 464.769 395.455 476.29 390.559C486.074 386.402 495.404 381.735 503.569 375.661C508.252 372.172 512.305 368.302 515.53 363.893C519.766 358.112 522.756 351.903 525.058 345.477C527.381 338.992 528.979 332.396 529.968 325.694C530.694 320.798 531.258 315.891 531.302 310.96C531.353 304.792 531.412 298.629 530.642 292.479C530.217 289.066 529.77 285.654 529.067 282.271C527.909 276.707 526.619 271.154 525.432 265.596C524.252 260.079 523.196 254.544 521.972 249.032C520.133 240.765 518.374 232.486 516.307 224.248C514.049 215.248 511.506 206.307 508.399 197.471C507.431 194.727 506.567 191.959 505.284 189.297C504.045 186.723 502.616 184.208 501.282 181.658C495.06 169.761 488.83 157.859 482.622 145.956C482.109 144.977 481.464 144.027 481.215 143.007C483.326 142.133 485.364 141.336 487.35 140.462C495.126 137.027 502.36 133.034 508.399 127.745C513.954 122.879 517.956 117.338 520.301 111.017C522.361 105.453 522.837 99.7187 522.976 93.9786C523.064 90.2261 522.822 86.4678 522.471 82.7153C522.221 80.0534 522.229 77.3739 521.972 74.7179C521.613 71.0181 521.349 67.3126 521.327 63.6011C521.313 60.3412 521.276 57.0812 521.628 53.8212C522.104 49.3828 522.991 45.0205 524.867 40.8283C526.685 36.7651 529.14 32.9364 531.984 29.2601C534.52 25.9767 537.371 22.8809 540.61 20.0196C544.494 16.5896 548.877 13.6932 554.286 11.9049C554.916 11.6997 555.517 11.4417 556.118 11.1896C558.222 10.2925 560.303 9.37783 562.113 8.1231C563.381 7.22602 564.261 6.2234 564.056 4.72241ZM531.881 13.8632C525.893 17.3636 522.126 22.2535 518.557 27.2549C514.027 33.6048 511.257 40.4765 509.549 47.6238C508.743 51.001 508.318 54.4252 508.355 57.8786C508.391 61.5138 508.369 65.149 508.487 68.7784C508.575 71.3523 508.853 73.9205 509.044 76.4944C509.212 78.7049 509.322 80.9212 509.527 83.1316C509.879 86.8958 509.872 90.6542 509.806 94.4125C509.718 99.4021 509.036 104.339 506.918 109.082C505.299 112.712 502.821 115.936 499.699 118.851C494.474 123.729 488.09 127.469 481.171 130.647C476.254 132.905 471.145 134.857 465.92 136.616C465.502 136.757 465.069 136.851 464.696 137.156C465.084 137.859 465.428 138.574 465.861 139.26C472.618 150.037 478.584 161.089 483.964 172.347C490.025 185.029 495.426 197.887 499.677 211.044C502.294 219.141 504.456 227.315 506.413 235.529C508.655 244.934 510.641 254.379 512.562 263.825C513.837 270.105 515.266 276.367 516.446 282.664C517.054 285.918 517.362 289.213 517.699 292.496C518.286 298.154 518.33 303.818 518.19 309.482C518.066 314.542 517.531 319.591 516.71 324.615C515.889 329.64 514.76 334.612 513.17 339.52C511.001 346.204 508.098 352.665 503.708 358.651C501.487 361.671 498.878 364.45 495.91 367.03C488.764 373.239 480.204 377.942 471.057 382.011C459.895 386.977 448.103 390.805 436.171 394.376C423.873 398.058 411.421 401.377 399.093 404.977C389.089 407.897 379.305 411.227 369.674 414.851C361.187 418.046 352.693 421.247 343.957 423.991C340.534 425.07 337.089 426.132 333.557 426.935C330.735 427.574 327.811 427.949 324.93 428.43C316.568 429.825 308.198 431.215 299.843 432.616C294.068 433.584 288.241 434.24 282.319 434.059C279.549 433.971 276.822 433.525 274.074 433.232C267.969 432.587 261.886 431.837 255.781 431.197C242.464 429.808 229.579 427.134 217.215 422.93C211.484 420.984 205.811 418.937 200.197 416.797C188.954 412.511 177.55 408.548 165.809 405.212C153.922 401.834 141.96 398.609 130.256 394.834C121.806 392.107 113.472 389.17 105.169 386.156C99.2394 384.004 93.3908 381.706 87.7841 379.056C82.4046 376.517 77.3475 373.632 72.6789 370.296C63.994 364.098 58.3286 356.377 54.4442 347.717C51.1901 340.452 49.1453 332.953 47.892 325.313C47.1884 321.056 46.7707 316.782 46.4775 312.49C46.1624 307.958 46.133 303.426 46.3456 298.899C46.5801 293.986 47.0785 289.078 47.8407 284.188C48.8301 277.821 50.3912 271.529 51.6152 265.191C53.125 257.387 54.8106 249.607 56.5403 241.832C58.4898 233.072 60.6812 224.354 63.2904 215.705C66.5152 205.011 70.5974 194.527 75.2294 184.173C80.5723 172.241 86.6921 160.556 93.1123 148.976C95.2231 145.171 97.4438 141.401 99.6132 137.613C99.6791 137.49 99.7231 137.361 99.8477 137.073C95.89 135.666 92.013 134.3 88.2458 132.752C81.8256 130.114 75.7278 127.088 70.2676 123.301C62.3449 117.801 57.0753 111.064 55.5362 102.656C55.0452 99.9709 54.6714 97.2738 54.7007 94.5474C54.7374 91.0529 54.6201 87.5466 54.8546 84.058C55.0891 80.5401 55.2138 77.0104 55.6975 73.5042C55.8001 72.783 55.7414 72.0559 55.8001 71.3289C56.2178 65.8468 56.3937 60.3588 56.0346 54.8766C55.6901 49.6642 54.3489 44.5808 52.4654 39.5853C49.4238 31.494 44.4547 24.2353 37.8805 17.645C36.8398 16.6014 35.4839 15.8626 34.2526 15.0007C32.0393 13.4469 29.7746 11.9459 27.5246 10.4274C27.356 10.3101 27.1361 10.2339 27.2314 9.92312C28.2721 9.83517 29.3129 10.0814 30.3316 10.2046C41.5304 11.5472 52.6339 13.2769 63.5835 15.6163C76.4607 18.3721 89.0007 21.8841 101.138 26.305C112.813 30.5559 123.997 35.5162 134.624 41.2504C141.338 44.8739 148.022 48.5443 154.632 52.2909C158.891 54.7066 162.848 57.4154 166.146 60.6988C167.495 62.0474 168.484 63.566 169.679 65.0963C168.199 65.8644 166.747 66.6383 165.267 67.3771C159.653 70.1973 153.936 72.8885 148.886 76.3654C146.82 77.7902 144.863 79.2912 143.507 81.2319C143.096 81.8124 142.503 82.3108 141.99 82.8443C142.459 83.1316 142.774 82.8326 143.111 82.7212C154.588 78.8632 166.044 74.9758 177.536 71.1471C185.671 68.4325 193.689 65.4715 202.073 63.2611C209.124 61.4024 216.314 60.0187 223.614 58.9516C230.847 57.8962 238.132 57.1574 245.454 56.6825C249.177 56.4363 252.9 56.2897 256.631 56.1255C261.959 55.8851 267.287 55.9027 272.616 55.8675C275.335 55.8499 278.068 55.7209 280.773 55.7737C286.101 55.8792 291.429 55.7796 296.758 55.9555C299.653 56.0493 302.547 55.9906 305.45 55.9789C310.492 55.9613 315.513 56.2838 320.504 56.835C327.444 57.603 334.378 58.4298 341.267 59.4558C349.505 60.6871 357.684 62.1177 365.665 64.1816C370.085 65.3249 374.314 66.867 378.594 68.3035C392.937 73.1113 407.265 77.9485 421.601 82.7798C421.952 82.8971 422.26 83.1609 422.685 82.9381C422.737 82.6215 422.473 82.4456 422.268 82.2345C418.706 78.4879 414.396 75.357 409.75 72.5133C405.601 69.9745 401.248 67.6995 396.411 66.0578C395.333 65.6885 395.231 65.5243 395.597 64.592C396.103 63.308 397.195 62.3112 398.287 61.3262C402.377 57.6499 407.17 54.6069 411.985 51.5873C420.956 45.9645 430.337 40.799 440.107 36.1084C454.215 29.3305 468.983 23.6548 484.543 19.3043C496.643 15.9212 509.007 13.3707 521.62 11.6117C526.458 10.9375 531.346 10.4625 536.213 9.90552C536.601 9.85861 537.004 9.89966 537.649 9.89966C535.634 11.301 533.867 12.7023 531.881 13.8632Z" fill="#F32951"/>
<path d="M499.34 307.882C496.797 302.435 492.15 298.366 486.118 295.311C475.814 290.093 464.483 288.521 452.559 290.016C442.642 291.259 433.159 293.827 423.902 296.929C416.016 299.573 408.32 302.546 400.552 305.384C389.441 309.441 378.015 312.748 365.995 314.572C353.829 316.418 341.633 318.154 329.299 319.098C324.798 319.444 320.276 319.591 315.762 319.813C312.772 319.96 309.759 319.983 306.784 320.23C301.712 320.646 296.618 320.763 291.539 320.869C286.841 320.968 282.129 320.98 277.416 320.781C272.271 320.564 267.126 320.429 261.981 320.224C256.389 320.001 250.804 319.725 245.22 319.403C239.979 319.104 234.746 318.734 229.513 318.318C220.565 317.603 211.667 316.63 202.821 315.328C192.428 313.798 182.351 311.476 172.655 308.116C164.343 305.237 156.303 301.895 148.073 298.882C140.656 296.167 133.078 293.816 125.14 292.262C119.145 291.083 113.055 290.421 106.884 290.051C100.756 289.682 94.71 289.922 88.8908 291.347C78.6814 293.845 70.5608 298.512 65.9874 306.562C63.0925 311.658 62.4622 316.923 63.8474 322.346C65.3058 328.069 68.8458 333.006 73.2359 337.579C77.8239 342.352 83.2401 346.456 89.1473 350.161C95.6921 354.26 102.691 357.737 110.475 360.164C119.16 362.879 128.189 364.591 137.314 365.998C144.482 367.106 151.686 367.998 158.891 368.941C161.236 369.246 163.574 369.592 165.926 369.809C167.949 369.991 169.994 369.991 172.024 370.108C177.265 370.419 182.505 370.741 187.738 371.087C192.187 371.381 196.635 371.674 201.077 372.049C206.698 372.524 212.327 372.899 217.955 373.251C221.679 373.485 225.402 373.626 229.125 373.826C233.64 374.066 238.154 374.289 242.684 374.353C245.176 374.388 247.675 374.424 250.167 374.429C257.364 374.447 264.554 374.74 271.743 374.857C277.922 374.963 284.108 374.981 290.293 374.77C295.101 374.605 299.924 374.605 304.739 374.494C309.84 374.377 314.956 374.476 320.057 374.353C321.647 374.353 323.245 374.418 324.828 374.342C328.829 374.142 332.831 373.884 336.833 373.65C341.795 373.356 346.756 373.093 351.711 372.77C356.614 372.454 361.502 372.072 366.398 371.744C371.074 371.433 375.75 371.146 380.426 370.853C384.596 370.595 388.774 370.396 392.937 370.091C396.704 369.815 400.5 369.774 404.245 369.229C415.767 367.564 427.303 365.951 438.641 363.565C450.316 361.108 461.5 357.737 471.658 352.395C477.983 349.071 483.905 345.389 488.779 340.698C494.737 334.964 498.336 328.368 500.212 321.109C501.363 316.624 501.363 312.22 499.34 307.882ZM486.228 317.65C485.063 323.396 482.578 328.655 478.122 333.281C474.326 337.21 469.591 340.27 464.292 342.803C458.041 345.793 451.335 347.939 444.423 349.722C434.602 352.255 424.54 353.967 414.47 355.661C408.364 356.687 402.201 357.233 395.986 357.573C390.342 357.883 384.692 358.089 379.056 358.388C373.419 358.687 367.798 359.144 362.191 359.765C359.897 360.023 357.581 360.123 355.273 360.276C351.102 360.545 346.94 360.803 342.769 361.055C337.925 361.349 333.058 361.542 328.229 361.935C322.123 362.439 316.018 362.521 311.43 362.457C306.432 362.457 302.958 362.345 299.506 362.48C292.353 362.762 285.2 362.703 278.054 362.58C266.928 362.38 255.803 362.586 244.677 362.433C241.46 362.392 238.25 362.07 235.039 361.87C230.246 361.577 225.453 361.29 220.667 360.979C215.991 360.674 211.33 360.305 206.654 360.023C202.315 359.76 197.962 359.578 193.623 359.349C189.277 359.121 184.938 358.868 180.599 358.651C177.997 358.522 175.388 358.528 172.801 358.311C169.151 358.001 165.516 357.555 161.874 357.145C156.67 356.564 151.466 355.984 146.263 355.368C134.294 353.949 122.582 351.78 111.582 347.605C105.315 345.231 99.32 342.504 94.0358 338.875C88.0992 334.8 83.328 330.01 80.4257 324.152C78.8866 321.05 78.0584 317.79 78.3736 314.46C78.9232 308.638 82.5658 305.155 89.631 303.367C93.5081 302.388 97.5537 301.848 101.365 300.682C102.237 300.412 103.029 300.775 103.879 300.752C106.715 300.676 109.522 300.963 112.329 301.268C120.472 302.147 128.218 304.1 135.738 306.691C142.092 308.878 148.234 311.417 154.376 313.956C164.996 318.342 176.165 321.473 187.752 323.718C191.102 324.369 194.466 324.973 197.83 325.6C201.7 326.327 205.672 326.392 209.6 326.72C214.43 327.125 219.275 327.418 224.112 327.764C229.572 328.151 235.025 328.544 240.485 328.925C246.971 329.382 253.472 329.558 259.973 329.769C273.363 330.197 286.761 329.957 300.151 329.986C303.156 329.992 306.168 330.021 309.166 329.886C312.676 329.722 316.187 329.769 319.697 329.623C325.458 329.388 331.226 329.165 336.972 328.796C345.591 328.239 354.166 327.412 362.697 326.263C375.156 324.586 387.176 321.783 398.712 317.685C403.52 315.979 408.262 314.149 413.033 312.373C419.849 309.828 426.628 307.201 433.708 305.132C440.817 303.056 448.125 301.667 455.652 301.139C461.09 300.758 466.52 300.922 471.812 302.2C476.136 303.25 479.83 305.038 482.784 307.841C485.789 310.719 486.998 313.88 486.228 317.65Z" fill="#F32951"/>
<path d="M487.071 194.516C486.14 193.15 484.858 191.989 483.436 190.945C480.167 188.541 476.517 186.565 472.648 184.824C471.541 184.325 469.921 184.331 469.372 183.311C468.844 182.338 468.8 181.2 468.507 180.145C467.759 177.46 467.385 174.692 466.257 172.089C462.504 163.476 456.553 155.971 448.366 149.609C442.664 145.176 436.134 141.7 429.113 138.78C421.703 135.696 413.905 133.427 405.829 131.732C395.773 129.621 385.52 128.56 375.156 128.279C371.704 128.185 368.245 128.255 364.786 128.378C358.901 128.589 353.059 129.076 347.255 129.838C337.331 131.146 327.715 133.333 318.393 136.346C309.693 139.161 301.433 142.614 293.987 147.229C290.095 149.638 285.845 151.667 282.187 154.417C280.883 153.655 279.556 152.887 278.237 152.113C270.314 147.475 262.084 143.224 253.296 139.7C243.021 135.578 232.247 132.594 220.975 130.765C213.485 129.551 205.914 128.8 198.277 128.501C196.518 128.431 194.759 128.472 193.007 128.39C189.394 128.226 185.781 127.88 182.263 128.941C182.05 129.006 181.816 129.012 181.596 129.053C177.03 129.815 172.376 129.768 167.759 130.038C164.988 130.202 162.233 130.407 159.565 131.058C148.681 133.702 138.318 137.279 128.68 142.133C119.834 146.59 111.977 151.931 105.872 158.797C99.6059 165.844 96.1759 173.672 95.7361 182.32C95.7068 182.948 95.4503 183.293 94.7907 183.604C91.2214 185.275 87.6522 186.958 84.3981 189.016C81.6717 190.74 79.1358 192.61 77.67 195.208C76.9298 196.515 76.6439 197.899 77.1863 199.288C78.1097 201.651 80.8361 202.9 83.9657 202.531C85.8639 202.308 87.4836 201.604 89.2866 200.707C89.2426 201.217 89.2353 201.534 89.1839 201.845C88.6709 204.888 88.3924 207.96 88.2532 211.021C88.0479 215.459 88.3704 219.892 89.14 224.301C90.276 230.797 92.5406 237.03 96.1832 242.923C101.453 251.442 109.016 258.449 118.39 264.236C128.995 270.785 140.861 275.423 153.438 278.952C162.013 281.356 170.756 283.168 179.932 283.32C183.978 283.385 187.943 283.068 191.842 282.224C193.059 281.96 193.073 281.943 193.476 282.863C195.675 287.917 199.552 292.057 204.485 295.58C209.468 299.139 215.192 301.807 221.261 303.994C229.565 306.985 238.264 308.984 247.176 310.391C251.779 311.118 256.418 311.652 261.087 312.091C266.144 312.566 271.223 312.883 276.302 312.977C281.286 313.071 286.277 313.094 291.275 312.883C295.116 312.719 298.956 312.525 302.782 312.226C308.579 311.775 314.333 311.071 320.035 310.098C329.526 308.48 338.76 306.24 347.394 302.599C353.975 299.825 359.582 296.179 363.818 291.253C366.164 288.527 368.524 285.806 370.803 283.045C371.353 282.382 371.961 282.171 372.899 282.189C374.548 282.224 376.146 282.558 377.766 282.711C379.437 282.869 381.093 283.133 382.823 282.922C387.125 282.388 391.464 282.113 395.788 281.761C399.672 281.444 403.549 281.063 407.309 280.178C415.312 278.29 423.045 275.862 430.425 272.731C440.011 268.662 448.674 263.643 456.003 257.188C462.358 251.589 467.283 245.303 470.691 238.244C473.901 231.607 475.587 224.711 476.07 217.617C476.173 216.128 476.195 214.632 476.253 213.143C476.297 211.941 476.122 210.71 476.07 209.49C476.019 208.318 475.99 207.145 475.784 205.972C475.484 204.272 475.403 202.542 475.227 200.731C475.697 200.907 475.997 201.024 476.305 201.129C479.031 202.027 481.824 202.501 484.755 201.851C486.412 201.481 487.628 200.637 487.914 199.288C488.251 197.658 488.097 196.011 487.071 194.516ZM286.101 204.401C290.022 203.357 293.379 201.516 296.611 199.505C296.919 199.312 297.19 199.077 297.725 198.948C297.901 199.916 298.143 200.86 298.231 201.81C298.443 204.143 299.477 206.295 300.459 208.459C301.917 211.689 303.126 214.99 305.325 217.986C307.92 221.522 311.079 224.694 314.531 227.708C318.327 231.014 322.527 233.999 326.301 237.446C322.453 238.736 318.378 239.381 314.721 240.876C311.049 242.377 307.465 244.019 303.823 245.602C300.869 243.181 297.879 240.888 295.116 238.426C292.294 235.91 290.374 232.914 288.835 229.771C287.01 226.042 286.042 222.155 285.544 218.18C285.031 214.075 284.877 209.965 284.84 205.843C284.84 205.052 285.104 204.671 286.101 204.401ZM283.316 240.272C285.801 243.087 287.757 246.165 290.088 249.061C290.337 249.366 290.433 249.683 289.832 249.771C285.317 250.433 280.795 251.026 276.214 250.105C275.943 250.052 275.679 249.953 275.423 249.871C275.056 249.753 274.69 249.63 274.235 249.478C275.1 248.182 276.075 247.132 277.086 246.095C279.138 244.002 281.132 241.885 281.96 239.158C282.678 239.428 282.979 239.891 283.316 240.272ZM279.967 216.298C279.476 221.064 277.995 225.65 275.577 230.029C273.898 233.067 271.765 235.893 269.296 238.56C268.343 239.586 267.265 240.495 265.99 241.275C264.231 242.348 262.487 243.444 261.263 244.957C260.911 245.397 260.508 245.338 259.958 245.245C257.716 244.858 255.678 244.084 253.692 243.21C250.526 241.809 247.506 240.196 244.142 239.076C242.222 238.437 240.258 237.945 237.927 237.693C239.188 236.608 240.221 235.67 241.313 234.773C245.036 231.718 248.935 228.804 252.453 225.585C257.305 221.158 261.402 216.362 263.916 210.78C265.03 208.3 265.77 205.75 266.122 203.135C266.305 201.757 266.401 200.367 266.54 198.913C267.507 199.089 268.196 199.576 268.958 199.933C272.044 201.37 275.086 202.847 278.186 204.266C278.963 204.618 279.285 205.046 279.424 205.744C280.113 209.25 280.326 212.774 279.967 216.298ZM194.393 249.73C191.373 253.729 189.196 257.974 188.713 262.67C188.427 265.385 188.61 268.094 189.504 270.75C189.592 271.013 189.717 271.266 189.673 271.553C187.599 271.553 185.51 271.641 183.436 271.529C180.453 271.377 177.47 271.137 174.502 270.832C164.512 269.806 154.874 267.736 145.669 264.447C138.083 261.732 131.048 258.302 124.73 253.951C115.407 247.531 108.364 239.839 104.34 230.481C103.051 227.485 102.34 224.371 101.783 221.235C100.984 216.702 100.559 212.152 100.698 207.579C100.837 203.141 101.431 198.772 103.051 194.481C104.099 191.69 106.363 190.065 109.507 188.946C113.773 187.427 118.266 186.542 122.788 185.692C128.299 184.66 133.884 183.874 139.3 182.525C139.96 182.361 140.751 181.751 141.301 182.215C141.873 182.695 141.22 183.387 141.022 183.974C139.879 187.374 138.604 190.751 137.842 194.228C136.706 199.429 136.955 204.571 138.582 209.69C140.465 215.606 143.06 221.281 147.267 226.412C154.347 235.066 164.27 240.56 176.686 243.245C183.055 244.623 189.548 245.274 196.152 245.203C196.753 245.198 197.361 245.203 198.196 245.203C196.848 246.839 195.521 248.235 194.393 249.73ZM186.162 169.298C181.134 168.987 176.099 168.782 171.057 168.882C164.439 169.011 157.85 169.433 151.312 170.289C144.731 171.151 138.157 172.065 131.553 172.839C127.94 173.261 124.517 174.182 121.051 175.02C117.745 175.824 114.447 176.639 110.981 177.489C110.797 175.788 111.303 174.34 111.765 172.91C113.363 167.938 116.543 163.663 120.86 159.887C126.635 154.827 133.635 151.116 141.169 147.985C148.227 145.053 155.622 142.778 163.222 140.92C165.509 140.363 167.891 140.275 170.236 139.988C174.091 139.513 177.968 139.184 181.831 138.727C183.809 138.492 185.774 138.522 187.76 138.563C190.757 138.627 193.755 138.744 196.753 138.868C201.553 139.067 206.332 139.477 211.088 139.993C219.341 140.885 227.483 142.216 235.479 144.068C242.332 145.657 248.994 147.657 255.436 150.131C260.845 152.207 265.638 154.986 270.087 158.181C272.491 159.911 275.012 161.523 277.878 162.754C278.596 163.059 278.772 163.452 278.757 164.056C278.691 166.824 278.794 169.603 278.596 172.364C278.362 175.718 278.42 179.072 278.252 182.426C278.083 185.779 277.951 189.133 277.944 192.487C277.944 192.669 277.973 192.862 277.907 193.026C277.79 193.343 277.511 193.466 277.138 193.261C276.954 193.161 276.793 193.021 276.647 192.886C273.202 189.86 268.841 187.92 264.209 186.407C254.528 183.235 244.765 180.204 234.842 177.536C223.401 174.458 211.733 172.089 199.809 170.582C195.279 169.996 190.728 169.579 186.162 169.298ZM354.437 282.347C350.34 286.633 344.99 289.747 339.083 292.274C330.72 295.856 321.742 298.002 312.486 299.462C306.153 300.465 299.755 301.039 293.32 301.373C290.044 301.543 286.753 301.649 284.203 301.555C271.59 301.631 259.848 300.646 248.254 298.629C239.496 297.105 230.979 294.965 222.991 291.623C219.517 290.169 216.123 288.603 213.28 286.416C209.791 283.737 207.46 280.418 205.606 276.888C203.422 272.726 202.073 268.404 202.271 263.843C202.44 260.137 203.693 256.731 206.603 253.77C208.604 251.741 211.286 250.51 214.21 249.583C217.105 248.669 220.052 247.86 222.976 246.998C223.914 246.722 224.896 246.828 225.842 246.869C234.395 247.256 242.149 249.624 249.536 252.937C252.644 254.333 255.729 255.775 259.013 256.901C263.476 258.431 268.226 259.058 272.975 259.656C275.43 259.967 277.9 260.19 280.355 260.495C283.301 260.864 286.233 260.618 289.15 260.336C296.31 259.645 303.002 257.757 309.429 255.189C313.526 253.547 317.535 251.764 321.72 250.258C326.755 248.452 331.937 246.968 337.463 246.622C348.523 245.93 357.794 250.398 360.74 259.615C363.415 267.965 360.916 275.575 354.437 282.347ZM360.858 170.916C349.38 172.47 338.167 174.774 327.166 177.811C317.191 180.567 307.531 183.886 298.223 187.873C294.94 189.28 291.744 190.804 288.285 192.464C288.124 189.45 288.021 186.7 287.801 183.95C287.574 181.153 287.648 178.345 287.266 175.548C287.134 174.604 287.237 173.648 287.164 172.693C286.981 170.119 286.907 167.533 286.79 164.953C286.79 164.906 286.805 164.859 286.79 164.818C286.05 162.989 287.494 161.881 288.857 160.714C292.617 157.501 297.029 154.992 301.829 152.893C308.66 149.908 315.916 147.768 323.325 145.921C329.98 144.262 336.694 142.767 343.495 141.559C348.295 140.709 353.162 140.122 358.006 139.425C359.509 139.208 361.026 139.038 362.521 138.78C364.764 138.399 367.021 138.522 369.286 138.563C372.342 138.621 375.398 138.727 378.455 138.862C384.391 139.131 390.284 139.683 396.132 140.503C403.219 141.5 410.16 142.954 416.822 145.171C424.137 147.61 430.857 150.811 436.728 155.138C443.126 159.858 447.861 165.475 451.349 171.807C452.053 173.091 452.617 174.422 453.292 175.718C453.563 176.24 453.673 176.75 453.467 177.43C453.064 177.342 452.654 177.266 452.251 177.16C448.755 176.246 445.259 175.325 441.763 174.416C439.381 173.795 436.889 173.619 434.441 173.261C427.486 172.247 420.516 171.315 413.546 170.371C409.698 169.849 405.829 169.497 401.937 169.28C397.583 169.034 393.23 168.799 388.876 168.876C379.481 169.046 370.136 169.661 360.858 170.916ZM463.112 215.518C462.966 220.865 462.255 226.171 460.166 231.278C457.762 237.165 453.753 242.354 448.696 247.015C441.829 253.353 433.613 258.331 424.356 262.248C413.378 266.892 401.688 269.712 389.404 270.996C384.86 271.471 380.28 271.676 375.692 271.664C375.413 271.664 375.134 271.635 374.753 271.617C375.853 266.939 375.816 262.336 374.292 257.763C372.767 253.189 369.88 249.179 366.171 245.198C371.008 245.332 375.457 245.01 379.869 244.394C390.973 242.858 401.057 239.504 409.544 233.465C418.024 227.432 423.33 219.892 425.639 210.997C426.672 207.028 427.09 203.017 426.856 198.983C426.555 193.871 425.448 188.852 423.565 183.95C423.352 183.393 423.154 182.83 422.935 182.226C424.093 181.974 425.111 182.39 426.115 182.578C433.723 183.991 441.287 185.533 448.623 187.697C452.236 188.764 455.747 190.019 459.25 191.291C460.086 191.596 460.437 192.059 460.591 192.716C461.339 196.052 462.006 199.394 462.46 202.765C463.039 207.01 463.23 211.261 463.112 215.518Z" fill="#F32951"/>
<path d="M245.007 288.035C235.626 287.952 227.439 283.133 225.087 277.815C223.482 274.191 224.112 270.879 227.073 267.871C228.07 266.856 229.462 266.206 230.906 265.666C231.881 265.303 232.929 265.068 233.874 264.664C235.831 263.819 237.891 263.796 239.979 264.06C246.011 264.81 251.171 266.886 255.099 270.697C257.239 272.772 258.595 275.13 258.617 277.879C258.639 280.922 256.8 283.25 253.992 285.132C251.119 287.055 247.792 288.076 245.007 288.035Z" fill="#F32951"/>
<path d="M324.535 263.901C327.562 263.995 330.119 264.277 332.56 265.086C337.793 266.833 340.226 270.656 339.552 274.93C338.768 279.885 335.572 283.707 330.251 286.34C324.791 289.043 316.993 288.961 312.222 285.859C308.565 283.479 306.366 280.459 306.373 276.631C306.381 272.602 308.733 269.548 312.955 267.419C314.78 266.499 316.854 265.995 318.847 265.373C319.851 265.062 320.885 264.804 321.838 264.423C322.834 264.025 323.846 263.831 324.535 263.901Z" fill="#F32951"/>
<path d="M301.082 346.509C297.813 346.702 294.398 346.55 291.004 346.673C283.001 346.972 274.998 346.837 267.002 346.773C262.186 346.732 257.364 346.685 252.556 346.538C247.294 346.38 242.039 346.216 236.784 345.987C231.588 345.758 226.399 345.518 221.217 345.16C211.198 344.468 201.194 343.688 191.226 342.598C182.256 341.619 173.373 340.288 164.461 339.062C157.938 338.165 151.43 337.198 144.987 336.002C136.493 334.425 128.101 332.554 120.23 329.453C116.756 328.086 113.575 326.374 110.658 324.328C109.698 323.66 109.955 322.95 110.05 322.229C110.196 321.08 110.863 320.194 112.314 319.766C113.025 319.555 113.626 319.714 114.286 319.86C125.302 322.381 136.31 324.932 147.34 327.389C154.266 328.931 161.317 330.062 168.396 331.065C178.752 332.537 189.16 333.703 199.611 334.659C206.735 335.31 213.851 336.072 220.982 336.699C224.574 337.016 228.194 337.151 231.8 337.374C235.802 337.62 239.796 337.901 243.798 338.124C246.561 338.283 249.339 338.359 252.102 338.494C256.572 338.711 261.05 338.558 265.506 338.892C265.675 338.904 265.844 338.898 266.02 338.898C276.185 338.933 286.343 339.033 296.508 338.98C301.199 338.957 305.897 338.886 310.58 338.494C313.614 338.242 316.678 338.236 319.727 338.077C323.728 337.866 327.73 337.608 331.732 337.391C334.444 337.245 337.163 337.192 339.86 336.981C349.527 336.225 359.194 335.398 368.832 334.419C379.158 333.363 389.426 332.056 399.65 330.502C408.225 329.2 416.602 327.312 424.935 325.26C432.719 323.349 440.473 321.355 448.469 320.036C450.294 319.737 452.053 319.602 453.665 320.587C454.303 320.98 454.538 321.402 454.479 322.077C454.31 324.006 453.042 325.337 451.188 326.439C449.151 327.641 446.879 328.444 444.504 329.054C436.64 331.071 428.864 333.293 420.868 334.987C411.56 336.957 402.164 338.564 392.666 339.807C386.311 340.64 379.942 341.425 373.559 342.117C368.128 342.709 362.682 343.184 357.23 343.63C351.212 344.117 345.188 344.533 339.163 344.932C335.33 345.184 331.49 345.342 327.657 345.553C323.142 345.805 318.62 345.981 314.098 346.128C311.386 346.216 308.675 346.362 305.956 346.374C304.372 346.391 302.804 346.661 301.082 346.509Z" fill="#F32951"/>
<path d="M1278.06 337.722C1277.95 336.96 1277.69 336.45 1276.88 336.063C1275.44 335.377 1273.84 335.102 1272.21 334.92C1269.19 334.574 1266.14 334.533 1263.14 333.976C1260.33 333.454 1257.45 333.231 1254.57 333.102C1250.39 332.92 1246.2 332.991 1242.01 333.237C1235.39 333.624 1228.84 334.351 1222.41 335.606C1200.07 339.968 1178.92 346.723 1158.8 355.611C1144.73 361.826 1131.42 368.938 1118.69 376.783C1116.05 378.407 1113.29 379.914 1111.05 381.937C1107.33 385.291 1103.46 388.551 1099.74 391.899C1099.09 392.485 1098.64 392.608 1097.76 392.292C1095.54 391.488 1093.3 390.726 1091.03 390.028C1076.81 385.631 1062.07 382.934 1047.05 381.081C1040.13 380.225 1033.16 379.598 1026.17 379.129C1019.74 378.695 1013.31 378.331 1006.86 378.284C996.202 378.208 985.538 378.138 974.889 378.771C968.403 379.152 961.931 379.574 955.474 380.196C945.36 381.163 935.334 382.541 925.418 384.394C915.428 386.264 905.63 388.633 896.146 391.787C895.362 392.045 894.585 392.497 893.793 392.509C892.818 392.52 892.467 391.612 891.873 391.101C889.022 388.651 886.251 386.129 883.378 383.69C881.832 382.371 880.425 380.94 878.637 379.803C868.904 373.641 858.885 367.801 848.434 362.436C837.645 356.901 826.498 351.894 814.844 347.62C803.14 343.334 791.106 339.804 778.602 337.306C769.749 335.541 760.807 334.251 751.712 333.624C749.008 333.436 746.288 333.354 743.584 333.202C740.572 333.032 737.574 333.167 734.569 333.108C734.349 333.102 734.122 333.155 733.91 333.219C730.106 334.369 726.097 334.621 722.11 335.014C719.801 335.242 717.515 335.541 715.338 336.221C714.935 336.35 714.473 336.391 714.282 336.819C713.659 338.233 714.063 339.393 715.536 340.408C717.485 341.745 719.655 342.794 721.927 343.732C724.345 344.723 726.815 345.65 729.094 346.828C732.935 348.81 736.152 351.349 739.106 354.116C746.911 361.433 752.394 369.742 755.574 379.011C757.817 385.555 758.081 392.298 758.455 399.023C758.579 401.198 758.184 403.361 758.191 405.543C758.198 407.302 758.022 409.078 757.692 410.814C757.055 414.167 756.828 417.545 756.542 420.916C756.3 423.76 756.139 426.603 755.875 429.447C755.772 430.567 755.574 431.71 755.846 432.836C756.469 435.457 757.069 438.078 757.89 440.663C759.144 444.627 760.8 448.473 763.138 452.114C766.414 457.221 770.833 461.636 776.44 465.207C782.816 469.264 789.141 473.421 797.035 475.831C795.657 478.458 794.316 481.003 792.997 483.553C787.456 494.306 781.908 505.059 776.396 515.819C775.282 517.994 773.941 520.099 773.223 522.391C770.724 530.43 768.232 538.468 765.754 546.507C762.801 556.064 759.796 565.609 757.304 575.248C755.442 582.46 753.749 589.695 752.335 596.972C751.668 600.402 751.082 603.843 750.532 607.291C749.784 611.946 749.169 616.614 748.707 621.287C748.487 623.497 748.399 625.719 748.179 627.924C747.857 631.131 747.916 634.344 747.718 637.551C747.549 640.26 747.696 642.987 747.85 645.707C748.033 649.049 748.209 652.391 748.553 655.733C748.993 660.008 749.682 664.247 750.649 668.462C752.687 677.374 755.941 685.964 761.328 693.979C764.487 698.67 768.32 702.973 772.988 706.79C777.012 710.08 781.6 712.806 786.327 715.392C794.33 719.777 802.774 723.548 811.539 726.884C817.366 729.1 823.266 731.176 829.231 733.14C842.519 737.514 856.048 741.378 869.527 745.341C882.763 749.24 895.816 753.468 908.4 758.592C915.714 761.571 923.102 764.438 930.614 767.1C939.937 770.407 949.575 772.787 959.689 773.919C968.755 774.939 977.791 776.129 986.806 777.425C991.841 778.146 996.913 778.316 1002.01 777.7C1007.43 777.044 1012.87 776.487 1018.3 775.883C1024.35 775.209 1030.4 774.528 1036.39 773.584C1045.26 772.189 1053.79 769.938 1062.17 767.287C1073.08 763.834 1083.6 759.706 1094.17 755.666C1102.8 752.365 1111.45 749.094 1120.4 746.379C1131.77 742.926 1143.19 739.595 1154.56 736.136C1166.73 732.43 1178.77 728.455 1190.29 723.559C1200.07 719.402 1209.4 714.735 1217.57 708.661C1222.25 705.172 1226.31 701.302 1229.53 696.893C1233.77 691.112 1236.76 684.903 1239.06 678.477C1241.38 671.992 1242.98 665.396 1243.97 658.694C1244.69 653.798 1245.26 648.891 1245.3 643.96C1245.35 637.792 1245.41 631.629 1244.64 625.479C1244.22 622.066 1243.77 618.654 1243.07 615.271C1241.91 609.707 1240.62 604.154 1239.43 598.596C1238.25 593.079 1237.2 587.544 1235.97 582.032C1234.13 573.765 1232.37 565.486 1230.31 557.248C1228.05 548.248 1225.51 539.307 1222.4 530.471C1221.43 527.727 1220.57 524.959 1219.28 522.297C1218.05 519.723 1216.62 517.208 1215.28 514.658C1209.06 502.761 1202.83 490.859 1196.62 478.956C1196.11 477.977 1195.46 477.027 1195.22 476.007C1197.33 475.133 1199.36 474.336 1201.35 473.462C1209.13 470.027 1216.36 466.034 1222.4 460.745C1227.95 455.879 1231.96 450.338 1234.3 444.017C1236.36 438.453 1236.84 432.719 1236.98 426.979C1237.06 423.226 1236.82 419.468 1236.47 415.715C1236.22 413.053 1236.23 410.374 1235.97 407.718C1235.61 404.018 1235.35 400.313 1235.33 396.601C1235.31 393.341 1235.28 390.081 1235.63 386.821C1236.1 382.383 1236.99 378.021 1238.87 373.828C1240.68 369.765 1243.14 365.936 1245.98 362.26C1248.52 358.977 1251.37 355.881 1254.61 353.02C1258.49 349.59 1262.88 346.693 1268.29 344.905C1268.92 344.7 1269.52 344.442 1270.12 344.19C1272.22 343.292 1274.3 342.378 1276.11 341.123C1277.38 340.226 1278.26 339.223 1278.06 337.722ZM1245.88 346.863C1239.89 350.364 1236.13 355.254 1232.56 360.255C1228.03 366.605 1225.26 373.476 1223.55 380.624C1222.74 384.001 1222.32 387.425 1222.35 390.879C1222.39 394.514 1222.37 398.149 1222.49 401.778C1222.57 404.352 1222.85 406.92 1223.04 409.494C1223.21 411.705 1223.32 413.921 1223.53 416.132C1223.88 419.896 1223.87 423.654 1223.81 427.413C1223.72 432.402 1223.04 437.339 1220.92 442.082C1219.3 445.712 1216.82 448.936 1213.7 451.851C1208.47 456.729 1202.09 460.469 1195.17 463.647C1190.25 465.905 1185.15 467.857 1179.92 469.616C1179.5 469.757 1179.07 469.851 1178.7 470.156C1179.08 470.859 1179.43 471.574 1179.86 472.26C1186.62 483.037 1192.58 494.089 1197.96 505.347C1204.02 518.029 1209.43 530.887 1213.68 544.044C1216.29 552.141 1218.46 560.315 1220.41 568.529C1222.66 577.934 1224.64 587.379 1226.56 596.825C1227.84 603.105 1229.27 609.367 1230.45 615.664C1231.05 618.918 1231.36 622.213 1231.7 625.496C1232.29 631.154 1232.33 636.818 1232.19 642.482C1232.07 647.542 1231.53 652.591 1230.71 657.615C1229.89 662.64 1228.76 667.612 1227.17 672.52C1225 679.204 1222.1 685.665 1217.71 691.651C1215.49 694.671 1212.88 697.45 1209.91 700.03C1202.76 706.239 1194.2 710.942 1185.06 715.011C1173.9 719.977 1162.1 723.805 1150.17 727.376C1137.87 731.058 1125.42 734.377 1113.09 737.977C1103.09 740.897 1093.3 744.227 1083.67 747.851C1075.19 751.046 1066.69 754.247 1057.96 756.991C1054.53 758.07 1051.09 759.132 1047.56 759.935C1044.74 760.574 1041.81 760.949 1038.93 761.43C1030.57 762.825 1022.2 764.215 1013.84 765.616C1008.07 766.584 1002.24 767.24 996.319 767.059C993.549 766.971 990.822 766.525 988.074 766.232C981.969 765.587 975.886 764.837 969.781 764.197C956.464 762.808 943.579 760.134 931.215 755.93C925.484 753.984 919.811 751.937 914.197 749.797C902.954 745.511 891.55 741.548 879.809 738.212C867.922 734.834 855.96 731.609 844.256 727.834C835.806 725.107 827.472 722.17 819.169 719.156C813.239 717.004 807.391 714.706 801.784 712.056C796.405 709.517 791.348 706.632 786.679 703.296C777.994 697.098 772.329 689.377 768.444 680.717C765.19 673.452 763.145 665.953 761.892 658.313C761.188 654.056 760.771 649.782 760.478 645.49C760.162 640.958 760.133 636.426 760.346 631.899C760.58 626.986 761.078 622.078 761.841 617.188C762.83 610.821 764.391 604.529 765.615 598.191C767.125 590.387 768.811 582.607 770.54 574.832C772.49 566.072 774.681 557.354 777.29 548.705C780.515 538.011 784.597 527.527 789.229 517.173C794.572 505.241 800.692 493.556 807.112 481.976C809.223 478.171 811.444 474.401 813.613 470.613C813.679 470.49 813.723 470.361 813.848 470.073C809.89 468.666 806.013 467.3 802.246 465.752C795.826 463.114 789.728 460.088 784.268 456.301C776.345 450.801 771.075 444.064 769.536 435.656C769.045 432.971 768.671 430.274 768.701 427.547C768.737 424.053 768.62 420.547 768.855 417.058C769.089 413.54 769.214 410.01 769.697 406.504C769.8 405.783 769.741 405.056 769.8 404.329C770.218 398.847 770.394 393.359 770.035 387.877C769.69 382.664 768.349 377.581 766.465 372.585C763.424 364.494 758.455 357.235 751.881 350.645C750.84 349.601 749.484 348.863 748.253 348.001C746.039 346.447 743.775 344.946 741.525 343.427C741.356 343.31 741.136 343.234 741.231 342.923C742.272 342.835 743.313 343.081 744.332 343.205C755.53 344.547 766.634 346.277 777.584 348.616C790.461 351.372 803.001 354.884 815.138 359.305C826.813 363.556 837.997 368.516 848.624 374.25C855.338 377.874 862.022 381.544 868.632 385.291C872.891 387.707 876.848 390.415 880.146 393.699C881.495 395.047 882.484 396.566 883.679 398.096C882.199 398.864 880.747 399.638 879.267 400.377C873.653 403.197 867.936 405.889 862.886 409.365C860.82 410.79 858.863 412.291 857.507 414.232C857.096 414.812 856.503 415.311 855.99 415.844C856.459 416.132 856.774 415.833 857.111 415.721C868.588 411.863 880.044 407.976 891.536 404.147C899.671 401.432 907.689 398.472 916.073 396.261C923.124 394.402 930.314 393.019 937.614 391.952C944.847 390.896 952.132 390.157 959.454 389.683C963.177 389.436 966.9 389.29 970.631 389.125C975.959 388.885 981.287 388.903 986.616 388.868C989.335 388.85 992.068 388.721 994.773 388.774C1000.1 388.879 1005.43 388.78 1010.76 388.955C1013.65 389.049 1016.55 388.991 1019.45 388.979C1024.49 388.961 1029.51 389.284 1034.5 389.835C1041.44 390.603 1048.38 391.43 1055.27 392.456C1063.5 393.687 1071.68 395.118 1079.67 397.182C1084.08 398.325 1088.31 399.867 1092.59 401.303C1106.94 406.111 1121.27 410.949 1135.6 415.78C1135.95 415.897 1136.26 416.161 1136.69 415.938C1136.74 415.622 1136.47 415.446 1136.27 415.235C1132.71 411.488 1128.4 408.357 1123.75 405.513C1119.6 402.974 1115.25 400.7 1110.41 399.058C1109.33 398.688 1109.23 398.524 1109.6 397.592C1110.1 396.308 1111.19 395.311 1112.29 394.326C1116.38 390.65 1121.17 387.607 1125.98 384.587C1134.96 378.964 1144.34 373.799 1154.11 369.108C1168.22 362.33 1182.98 356.655 1198.54 352.304C1210.64 348.921 1223.01 346.371 1235.62 344.612C1240.46 343.937 1245.35 343.463 1250.21 342.906C1250.6 342.859 1251 342.9 1251.65 342.9C1249.63 344.301 1247.87 345.702 1245.88 346.863Z" fill="#F32951"/>
<path d="M1213.34 640.882C1210.8 635.435 1206.15 631.366 1200.12 628.311C1189.81 623.093 1178.48 621.521 1166.56 623.016C1156.64 624.259 1147.16 626.827 1137.9 629.929C1130.02 632.573 1122.32 635.546 1114.55 638.384C1103.44 642.441 1092.01 645.748 1080 647.572C1067.83 649.418 1055.63 651.154 1043.3 652.098C1038.8 652.444 1034.28 652.591 1029.76 652.813C1026.77 652.96 1023.76 652.983 1020.78 653.23C1015.71 653.646 1010.62 653.763 1005.54 653.869C1000.84 653.968 996.129 653.98 991.416 653.781C986.271 653.564 981.126 653.429 975.981 653.224C970.389 653.001 964.804 652.725 959.22 652.403C953.979 652.104 948.746 651.734 943.513 651.318C934.565 650.603 925.667 649.63 916.821 648.328C906.428 646.798 896.351 644.476 886.655 641.116C878.343 638.237 870.303 634.895 862.073 631.882C854.656 629.167 847.078 626.816 839.14 625.262C833.145 624.083 827.055 623.421 820.884 623.051C814.756 622.682 808.71 622.922 802.891 624.347C792.681 626.845 784.561 631.512 779.987 639.562C777.092 644.658 776.462 649.923 777.847 655.346C779.306 661.069 782.846 666.006 787.236 670.579C791.824 675.352 797.24 679.456 803.147 683.161C809.692 687.26 816.691 690.737 824.475 693.164C833.16 695.879 842.189 697.591 851.314 698.998C858.482 700.106 865.686 700.998 872.891 701.941C875.236 702.246 877.574 702.592 879.926 702.809C881.949 702.991 883.994 702.991 886.024 703.108C891.265 703.419 896.505 703.741 901.738 704.087C906.187 704.381 910.635 704.674 915.077 705.049C920.698 705.524 926.327 705.899 931.955 706.251C935.679 706.485 939.402 706.626 943.125 706.826C947.64 707.066 952.154 707.289 956.684 707.353C959.176 707.388 961.675 707.424 964.167 707.429C971.364 707.447 978.554 707.74 985.743 707.857C991.922 707.963 998.108 707.981 1004.29 707.77C1009.1 707.605 1013.92 707.605 1018.74 707.494C1023.84 707.377 1028.96 707.476 1034.06 707.353C1035.65 707.353 1037.24 707.418 1038.83 707.342C1042.83 707.142 1046.83 706.884 1050.83 706.65C1055.79 706.356 1060.76 706.093 1065.71 705.77C1070.61 705.454 1075.5 705.072 1080.4 704.744C1085.07 704.433 1089.75 704.146 1094.43 703.853C1098.6 703.595 1102.77 703.396 1106.94 703.091C1110.7 702.815 1114.5 702.774 1118.25 702.229C1129.77 700.564 1141.3 698.951 1152.64 696.565C1164.32 694.108 1175.5 690.737 1185.66 685.395C1191.98 682.071 1197.91 678.389 1202.78 673.698C1208.74 667.964 1212.34 661.368 1214.21 654.109C1215.36 649.624 1215.36 645.22 1213.34 640.882ZM1200.23 650.65C1199.06 656.396 1196.58 661.655 1192.12 666.281C1188.33 670.21 1183.59 673.27 1178.29 675.803C1172.04 678.793 1165.33 680.939 1158.42 682.722C1148.6 685.255 1138.54 686.967 1128.47 688.661C1122.36 689.687 1116.2 690.233 1109.99 690.573C1104.34 690.883 1098.69 691.089 1093.06 691.388C1087.42 691.687 1081.8 692.144 1076.19 692.765C1073.9 693.023 1071.58 693.123 1069.27 693.276C1065.1 693.545 1060.94 693.803 1056.77 694.055C1051.92 694.349 1047.06 694.542 1042.23 694.935C1036.12 695.439 1030.02 695.521 1025.43 695.457C1020.43 695.457 1016.96 695.345 1013.51 695.48C1006.35 695.762 999.2 695.703 992.054 695.58C980.928 695.38 969.803 695.586 958.677 695.433C955.46 695.392 952.25 695.07 949.039 694.87C944.246 694.577 939.453 694.29 934.667 693.979C929.991 693.674 925.33 693.305 920.654 693.023C916.315 692.76 911.962 692.578 907.623 692.349C903.277 692.121 898.938 691.868 894.599 691.651C891.997 691.522 889.388 691.528 886.801 691.311C883.151 691.001 879.516 690.555 875.874 690.145C870.67 689.564 865.466 688.984 860.263 688.368C848.294 686.949 836.582 684.78 825.582 680.605C819.315 678.231 813.32 675.504 808.036 671.875C802.099 667.8 797.328 663.01 794.426 657.152C792.887 654.05 792.058 650.79 792.374 647.46C792.923 641.638 796.566 638.155 803.631 636.367C807.508 635.388 811.554 634.848 815.365 633.682C816.237 633.412 817.029 633.775 817.879 633.752C820.715 633.676 823.522 633.963 826.329 634.268C834.472 635.147 842.218 637.1 849.738 639.691C856.092 641.878 862.234 644.417 868.376 646.956C878.996 651.342 890.165 654.473 901.752 656.718C905.102 657.369 908.466 657.973 911.83 658.6C915.7 659.327 919.672 659.392 923.6 659.72C928.43 660.125 933.275 660.418 938.112 660.764C943.572 661.151 949.025 661.544 954.485 661.925C960.971 662.382 967.472 662.558 973.973 662.769C987.363 663.197 1000.76 662.957 1014.15 662.986C1017.16 662.992 1020.17 663.021 1023.17 662.886C1026.68 662.722 1030.19 662.769 1033.7 662.623C1039.46 662.388 1045.23 662.165 1050.97 661.796C1059.59 661.239 1068.17 660.412 1076.7 659.263C1089.16 657.586 1101.18 654.783 1112.71 650.685C1117.52 648.979 1122.26 647.149 1127.03 645.373C1133.85 642.828 1140.63 640.201 1147.71 638.132C1154.82 636.056 1162.12 634.667 1169.65 634.139C1175.09 633.758 1180.52 633.922 1185.81 635.2C1190.14 636.25 1193.83 638.038 1196.78 640.841C1199.79 643.719 1201 646.88 1200.23 650.65Z" fill="#F32951"/>
<path d="M1201.07 527.516C1200.14 526.15 1198.86 524.989 1197.44 523.945C1194.17 521.541 1190.52 519.565 1186.65 517.824C1185.54 517.325 1183.92 517.331 1183.37 516.311C1182.84 515.338 1182.8 514.2 1182.51 513.145C1181.76 510.46 1181.39 507.692 1180.26 505.089C1176.5 496.476 1170.55 488.971 1162.37 482.609C1156.66 478.176 1150.13 474.7 1143.11 471.78C1135.7 468.696 1127.91 466.427 1119.83 464.732C1109.77 462.621 1099.52 461.56 1089.16 461.279C1085.7 461.185 1082.25 461.255 1078.79 461.378C1072.9 461.589 1067.06 462.076 1061.25 462.838C1051.33 464.146 1041.72 466.333 1032.39 469.346C1023.69 472.161 1015.43 475.614 1007.99 480.229C1004.1 482.638 999.845 484.667 996.187 487.417C994.883 486.655 993.556 485.887 992.237 485.113C984.314 480.475 976.084 476.224 967.296 472.7C957.021 468.578 946.247 465.594 934.975 463.765C927.485 462.551 919.914 461.8 912.277 461.501C910.518 461.431 908.759 461.472 907.007 461.39C903.394 461.226 899.781 460.88 896.263 461.941C896.05 462.006 895.816 462.012 895.596 462.053C891.03 462.815 886.376 462.768 881.759 463.038C878.988 463.202 876.233 463.407 873.565 464.058C862.681 466.702 852.318 470.279 842.68 475.133C833.834 479.59 825.977 484.931 819.872 491.797C813.606 498.844 810.176 506.672 809.736 515.32C809.707 515.948 809.45 516.293 808.791 516.604C805.221 518.275 801.652 519.958 798.398 522.016C795.672 523.74 793.136 525.61 791.67 528.208C790.93 529.515 790.644 530.899 791.186 532.288C792.11 534.651 794.836 535.9 797.966 535.531C799.864 535.308 801.484 534.604 803.287 533.707C803.243 534.217 803.235 534.534 803.184 534.845C802.671 537.888 802.392 540.96 802.253 544.021C802.048 548.459 802.37 552.892 803.14 557.301C804.276 563.797 806.541 570.03 810.183 575.923C815.453 584.442 823.016 591.449 832.39 597.236C842.995 603.785 854.861 608.423 867.438 611.952C876.013 614.356 884.756 616.168 893.932 616.32C897.978 616.385 901.943 616.068 905.842 615.224C907.059 614.96 907.073 614.943 907.476 615.863C909.675 620.917 913.552 625.057 918.485 628.58C923.468 632.139 929.192 634.807 935.261 636.994C943.565 639.985 952.264 641.984 961.176 643.391C965.779 644.118 970.418 644.652 975.087 645.091C980.144 645.566 985.223 645.883 990.302 645.977C995.286 646.071 1000.28 646.094 1005.28 645.883C1009.12 645.719 1012.96 645.525 1016.78 645.226C1022.58 644.775 1028.33 644.071 1034.03 643.098C1043.53 641.48 1052.76 639.24 1061.39 635.599C1067.98 632.825 1073.58 629.179 1077.82 624.253C1080.16 621.527 1082.52 618.806 1084.8 616.045C1085.35 615.382 1085.96 615.171 1086.9 615.189C1088.55 615.224 1090.15 615.558 1091.77 615.711C1093.44 615.869 1095.09 616.133 1096.82 615.922C1101.12 615.388 1105.46 615.113 1109.79 614.761C1113.67 614.444 1117.55 614.063 1121.31 613.178C1129.31 611.29 1137.04 608.862 1144.42 605.731C1154.01 601.662 1162.67 596.643 1170 590.188C1176.36 584.589 1181.28 578.303 1184.69 571.244C1187.9 564.607 1189.59 557.711 1190.07 550.617C1190.17 549.128 1190.19 547.632 1190.25 546.143C1190.3 544.941 1190.12 543.71 1190.07 542.49C1190.02 541.318 1189.99 540.145 1189.78 538.972C1189.48 537.272 1189.4 535.542 1189.23 533.731C1189.7 533.907 1190 534.024 1190.3 534.129C1193.03 535.027 1195.82 535.501 1198.76 534.851C1200.41 534.481 1201.63 533.637 1201.91 532.288C1202.25 530.658 1202.1 529.011 1201.07 527.516ZM1000.1 537.401C1004.02 536.357 1007.38 534.516 1010.61 532.505C1010.92 532.312 1011.19 532.077 1011.72 531.948C1011.9 532.916 1012.14 533.86 1012.23 534.81C1012.44 537.143 1013.48 539.295 1014.46 541.459C1015.92 544.689 1017.13 547.99 1019.33 550.986C1021.92 554.522 1025.08 557.694 1028.53 560.708C1032.33 564.014 1036.53 566.999 1040.3 570.446C1036.45 571.736 1032.38 572.381 1028.72 573.876C1025.05 575.377 1021.47 577.019 1017.82 578.602C1014.87 576.181 1011.88 573.888 1009.12 571.426C1006.29 568.91 1004.37 565.914 1002.83 562.771C1001.01 559.042 1000.04 555.155 999.544 551.18C999.031 547.075 998.877 542.965 998.84 538.843C998.84 538.052 999.104 537.671 1000.1 537.401ZM997.316 573.272C999.801 576.087 1001.76 579.165 1004.09 582.061C1004.34 582.366 1004.43 582.683 1003.83 582.771C999.317 583.433 994.795 584.026 990.214 583.105C989.943 583.052 989.679 582.953 989.423 582.871C989.056 582.753 988.69 582.63 988.235 582.478C989.1 581.182 990.075 580.132 991.086 579.095C993.138 577.002 995.132 574.885 995.96 572.158C996.678 572.428 996.979 572.891 997.316 573.272ZM993.967 549.298C993.476 554.064 991.995 558.65 989.577 563.029C987.898 566.067 985.765 568.893 983.296 571.56C982.343 572.586 981.265 573.495 979.99 574.275C978.231 575.348 976.487 576.444 975.263 577.957C974.911 578.397 974.508 578.338 973.958 578.245C971.716 577.858 969.678 577.084 967.692 576.21C964.526 574.809 961.506 573.196 958.142 572.076C956.222 571.437 954.258 570.945 951.927 570.693C953.188 569.608 954.221 568.67 955.313 567.773C959.036 564.718 962.935 561.804 966.453 558.585C971.305 554.158 975.402 549.362 977.916 543.78C979.03 541.3 979.77 538.75 980.122 536.135C980.305 534.757 980.401 533.367 980.54 531.913C981.507 532.089 982.196 532.576 982.958 532.933C986.044 534.37 989.086 535.847 992.186 537.266C992.963 537.618 993.285 538.046 993.424 538.744C994.113 542.25 994.326 545.774 993.967 549.298ZM908.393 582.73C905.373 586.729 903.196 590.974 902.713 595.67C902.427 598.385 902.61 601.094 903.504 603.75C903.592 604.013 903.717 604.266 903.673 604.553C901.599 604.553 899.51 604.641 897.436 604.529C894.453 604.377 891.47 604.137 888.502 603.832C878.512 602.806 868.874 600.736 859.669 597.447C852.083 594.732 845.048 591.302 838.73 586.951C829.407 580.531 822.364 572.839 818.34 563.481C817.051 560.485 816.34 557.371 815.783 554.235C814.984 549.702 814.559 545.152 814.698 540.579C814.837 536.141 815.431 531.772 817.051 527.481C818.099 524.69 820.363 523.065 823.507 521.946C827.773 520.427 832.266 519.542 836.788 518.692C842.299 517.66 847.884 516.874 853.3 515.525C853.96 515.361 854.751 514.751 855.301 515.215C855.873 515.695 855.22 516.387 855.022 516.974C853.879 520.374 852.604 523.751 851.842 527.228C850.706 532.429 850.955 537.571 852.582 542.69C854.465 548.606 857.06 554.281 861.267 559.412C868.347 568.066 878.27 573.56 890.686 576.245C897.055 577.623 903.548 578.274 910.152 578.203C910.753 578.198 911.361 578.203 912.196 578.203C910.848 579.839 909.521 581.235 908.393 582.73ZM900.162 502.298C895.134 501.987 890.099 501.782 885.057 501.882C878.439 502.011 871.85 502.433 865.312 503.289C858.731 504.151 852.157 505.065 845.553 505.839C841.94 506.261 838.517 507.182 835.051 508.02C831.745 508.824 828.447 509.639 824.981 510.489C824.797 508.788 825.303 507.34 825.765 505.91C827.363 500.938 830.543 496.663 834.86 492.887C840.635 487.827 847.635 484.116 855.169 480.985C862.227 478.053 869.622 475.778 877.222 473.92C879.509 473.363 881.891 473.275 884.236 472.988C888.091 472.513 891.968 472.184 895.831 471.727C897.809 471.492 899.774 471.522 901.76 471.563C904.757 471.627 907.755 471.744 910.753 471.868C915.553 472.067 920.332 472.477 925.088 472.993C933.341 473.885 941.483 475.216 949.479 477.068C956.332 478.657 962.994 480.657 969.436 483.131C974.845 485.207 979.638 487.986 984.087 491.181C986.491 492.911 989.012 494.523 991.878 495.754C992.596 496.059 992.772 496.452 992.757 497.056C992.691 499.824 992.794 502.603 992.596 505.364C992.362 508.718 992.42 512.072 992.252 515.426C992.083 518.779 991.951 522.133 991.944 525.487C991.944 525.669 991.973 525.862 991.907 526.026C991.79 526.343 991.511 526.466 991.138 526.261C990.954 526.161 990.793 526.021 990.647 525.886C987.202 522.86 982.841 520.92 978.209 519.407C968.528 516.235 958.765 513.204 948.842 510.536C937.401 507.458 925.733 505.089 913.809 503.582C909.279 502.996 904.728 502.579 900.162 502.298ZM1068.44 615.347C1064.34 619.633 1058.99 622.747 1053.08 625.274C1044.72 628.856 1035.74 631.002 1026.49 632.462C1020.15 633.465 1013.76 634.039 1007.32 634.373C1004.04 634.543 1000.75 634.649 998.203 634.555C985.59 634.631 973.848 633.646 962.254 631.629C953.496 630.105 944.979 627.965 936.991 624.623C933.517 623.169 930.123 621.603 927.28 619.416C923.791 616.737 921.46 613.418 919.606 609.888C917.422 605.726 916.073 601.404 916.271 596.843C916.44 593.137 917.693 589.731 920.603 586.77C922.604 584.741 925.286 583.51 928.21 582.583C931.105 581.669 934.052 580.86 936.976 579.998C937.914 579.722 938.896 579.828 939.842 579.869C948.395 580.256 956.149 582.624 963.536 585.937C966.644 587.333 969.729 588.775 973.013 589.901C977.476 591.431 982.226 592.058 986.975 592.656C989.43 592.967 991.9 593.19 994.355 593.495C997.301 593.864 1000.23 593.618 1003.15 593.336C1010.31 592.645 1017 590.757 1023.43 588.189C1027.53 586.547 1031.54 584.764 1035.72 583.258C1040.76 581.452 1045.94 579.968 1051.46 579.622C1062.52 578.93 1071.79 583.398 1074.74 592.615C1077.42 600.965 1074.92 608.575 1068.44 615.347ZM1074.86 503.916C1063.38 505.47 1052.17 507.774 1041.17 510.811C1031.19 513.567 1021.53 516.886 1012.22 520.873C1008.94 522.28 1005.74 523.804 1002.29 525.464C1002.12 522.45 1002.02 519.7 1001.8 516.95C1001.57 514.153 1001.65 511.345 1001.27 508.548C1001.13 507.604 1001.24 506.648 1001.16 505.693C1000.98 503.119 1000.91 500.533 1000.79 497.953C1000.79 497.906 1000.8 497.859 1000.79 497.818C1000.05 495.989 1001.49 494.881 1002.86 493.714C1006.62 490.501 1011.03 487.992 1015.83 485.893C1022.66 482.908 1029.92 480.768 1037.33 478.921C1043.98 477.262 1050.69 475.767 1057.49 474.559C1062.3 473.709 1067.16 473.122 1072.01 472.425C1073.51 472.208 1075.03 472.038 1076.52 471.78C1078.76 471.399 1081.02 471.522 1083.29 471.563C1086.34 471.621 1089.4 471.727 1092.45 471.862C1098.39 472.131 1104.28 472.683 1110.13 473.503C1117.22 474.5 1124.16 475.954 1130.82 478.171C1138.14 480.61 1144.86 483.811 1150.73 488.138C1157.13 492.858 1161.86 498.475 1165.35 504.807C1166.05 506.091 1166.62 507.422 1167.29 508.718C1167.56 509.24 1167.67 509.75 1167.47 510.43C1167.06 510.342 1166.65 510.266 1166.25 510.16C1162.75 509.246 1159.26 508.325 1155.76 507.416C1153.38 506.795 1150.89 506.619 1148.44 506.261C1141.49 505.247 1134.52 504.315 1127.55 503.371C1123.7 502.849 1119.83 502.497 1115.94 502.28C1111.58 502.034 1107.23 501.799 1102.88 501.876C1093.48 502.046 1084.14 502.661 1074.86 503.916ZM1177.11 548.518C1176.97 553.865 1176.26 559.171 1174.17 564.278C1171.76 570.165 1167.75 575.354 1162.7 580.015C1155.83 586.353 1147.61 591.331 1138.36 595.248C1127.38 599.892 1115.69 602.712 1103.4 603.996C1098.86 604.471 1094.28 604.676 1089.69 604.664C1089.41 604.664 1089.13 604.635 1088.75 604.617C1089.85 599.939 1089.82 595.336 1088.29 590.763C1086.77 586.189 1083.88 582.179 1080.17 578.198C1085.01 578.332 1089.46 578.01 1093.87 577.394C1104.97 575.858 1115.06 572.504 1123.54 566.465C1132.02 560.432 1137.33 552.892 1139.64 543.997C1140.67 540.028 1141.09 536.017 1140.86 531.983C1140.56 526.871 1139.45 521.852 1137.56 516.95C1137.35 516.393 1137.15 515.83 1136.93 515.226C1138.09 514.974 1139.11 515.39 1140.12 515.578C1147.72 516.991 1155.29 518.533 1162.62 520.697C1166.24 521.764 1169.75 523.019 1173.25 524.291C1174.09 524.596 1174.44 525.059 1174.59 525.716C1175.34 529.052 1176.01 532.394 1176.46 535.765C1177.04 540.01 1177.23 544.261 1177.11 548.518Z" fill="#F32951"/>
<path d="M959.007 621.034C949.626 620.952 941.439 616.133 939.087 610.815C937.482 607.191 938.112 603.879 941.073 600.871C942.07 599.856 943.462 599.206 944.906 598.666C945.881 598.303 946.929 598.068 947.874 597.664C949.831 596.819 951.891 596.796 953.979 597.06C960.011 597.81 965.171 599.886 969.099 603.697C971.239 605.772 972.595 608.129 972.617 610.879C972.639 613.922 970.8 616.25 967.992 618.132C965.119 620.055 961.792 621.076 959.007 621.034Z" fill="#F32951"/>
<path d="M1038.53 596.901C1041.56 596.995 1044.12 597.277 1046.56 598.086C1051.79 599.833 1054.23 603.656 1053.55 607.93C1052.77 612.885 1049.57 616.707 1044.25 619.34C1038.79 622.043 1030.99 621.961 1026.22 618.859C1022.56 616.479 1020.37 613.459 1020.37 609.631C1020.38 605.602 1022.73 602.548 1026.95 600.419C1028.78 599.499 1030.85 598.995 1032.85 598.373C1033.85 598.062 1034.88 597.804 1035.84 597.423C1036.83 597.025 1037.85 596.831 1038.53 596.901Z" fill="#F32951"/>
<path d="M1015.08 679.509C1011.81 679.702 1008.4 679.55 1005 679.673C997.001 679.972 988.998 679.837 981.002 679.773C976.186 679.732 971.364 679.685 966.556 679.538C961.294 679.38 956.039 679.216 950.784 678.987C945.588 678.758 940.399 678.518 935.217 678.16C925.198 677.468 915.194 676.688 905.226 675.598C896.256 674.619 887.373 673.288 878.461 672.062C871.938 671.165 865.43 670.198 858.987 669.002C850.493 667.425 842.101 665.554 834.23 662.453C830.756 661.086 827.575 659.374 824.658 657.328C823.698 656.66 823.955 655.95 824.05 655.229C824.196 654.08 824.863 653.194 826.314 652.766C827.025 652.555 827.626 652.714 828.286 652.86C839.302 655.381 850.31 657.932 861.34 660.389C868.266 661.931 875.317 663.062 882.396 664.065C892.752 665.537 903.16 666.703 913.611 667.659C920.735 668.31 927.851 669.072 934.982 669.699C938.574 670.016 942.194 670.151 945.8 670.374C949.802 670.62 953.796 670.901 957.798 671.124C960.561 671.283 963.339 671.359 966.102 671.494C970.572 671.711 975.05 671.558 979.506 671.892C979.675 671.904 979.844 671.898 980.02 671.898C990.185 671.933 1000.34 672.033 1010.51 671.98C1015.2 671.957 1019.9 671.886 1024.58 671.494C1027.61 671.242 1030.68 671.236 1033.73 671.077C1037.73 670.866 1041.73 670.608 1045.73 670.391C1048.44 670.245 1051.16 670.192 1053.86 669.981C1063.53 669.225 1073.19 668.398 1082.83 667.419C1093.16 666.363 1103.43 665.056 1113.65 663.502C1122.23 662.2 1130.6 660.312 1138.94 658.26C1146.72 656.349 1154.47 654.355 1162.47 653.036C1164.29 652.737 1166.05 652.602 1167.67 653.587C1168.3 653.98 1168.54 654.402 1168.48 655.077C1168.31 657.006 1167.04 658.337 1165.19 659.439C1163.15 660.641 1160.88 661.444 1158.5 662.054C1150.64 664.071 1142.86 666.293 1134.87 667.987C1125.56 669.957 1116.16 671.564 1106.67 672.807C1100.31 673.64 1093.94 674.425 1087.56 675.117C1082.13 675.709 1076.68 676.184 1071.23 676.63C1065.21 677.117 1059.19 677.533 1053.16 677.932C1049.33 678.184 1045.49 678.342 1041.66 678.553C1037.14 678.805 1032.62 678.981 1028.1 679.128C1025.39 679.216 1022.67 679.362 1019.96 679.374C1018.37 679.391 1016.8 679.661 1015.08 679.509Z" fill="#F32951"/>
</svg>
