<svg width="3840" height="244" viewBox="0 0 3840 244" fill="none" xmlns="http://www.w3.org/2000/svg">
<path d="M3624.47 102.145C3726.09 137.395 3800.33 116.833 3840 102.145V1.52588e-05L0.000244141 1.00143V177.752C57.1743 168.572 186.824 143.103 244.032 118.668C315.541 88.1248 396.052 82.6172 465.561 118.668C535.07 154.719 634.083 127.18 656.086 102.145C678.088 77.1098 819.107 24.5348 849.611 82.6172C880.115 140.7 833.109 212.802 869.113 237.837C905.118 262.873 996.13 207.294 962.625 149.212C929.121 91.1295 1018.13 58.0825 1062.14 82.6172C1106.14 107.152 1120.15 179.755 1250.16 176.751C1380.18 173.746 1482.69 58.0825 1570.7 58.0825C1658.72 58.0825 1714.72 138.196 1861.24 149.212C2007.76 160.227 2137.28 58.0825 2203.79 58.0825C2270.3 58.0825 2377.81 102.145 2433.32 102.145C2488.82 102.145 2560.33 80.1138 2618.34 58.0825C2676.35 36.0513 2767.36 58.0825 2842.37 102.145C2917.38 146.208 3068.9 165.735 3179.41 102.145C3289.93 38.5549 3497.46 58.0826 3624.47 102.145Z" fill="#FFD4DF"/>
</svg>
