<svg width="2047" height="991" viewBox="0 0 2047 991" fill="none" xmlns="http://www.w3.org/2000/svg">
<g filter="url(#filter0_i_101_5)">
<path d="M115.552 63.9186C86.3452 15.8519 0.0248795 -51.4999 0.0250702 63.9186L0.0239258 991H2047V266.069C2047 189.139 1965.88 275.727 1975.48 235.746C1987.49 185.77 1973.98 102.103 1928.47 106.033C1882.96 109.964 1879.96 184.086 1906.97 216.654C1933.98 249.223 1889.96 364.336 1845.45 285.722C1800.94 207.108 1859.96 164.994 1824.95 87.5031C1789.94 10.0123 1696.42 38.6502 1749.93 129.056C1803.44 219.462 1770.44 423.296 1725.43 359.282C1680.42 295.268 1714.42 275.053 1691.92 189.139C1669.41 103.226 1591.4 114.456 1577.89 164.994C1564.39 215.531 1615.9 269.438 1635.91 331.767C1655.91 394.097 1570.39 445.757 1561.39 400.835C1552.39 355.913 1582.39 342.998 1570.39 308.183C1558.39 273.368 1528.88 289.091 1522.38 300.322C1515.88 311.552 1506.38 321.66 1522.38 364.336C1538.38 407.012 1507.38 473.272 1485.37 400.835C1463.37 328.398 1498.87 198.685 1432.86 189.139C1366.84 179.593 1325.33 266.63 1306.83 300.322C1288.33 334.013 1205.81 321.66 1201.3 248.1C1196.8 174.54 1268.32 114.456 1228.31 68.4111C1188.3 22.3659 1165.8 62.2343 1165.8 87.5031C1165.8 112.772 1189.3 114.456 1179.3 175.101C1169.3 235.746 1119.79 204.862 1116.79 175.101C1113.78 145.34 1142.29 125.125 1126.79 47.0731C1111.28 -30.9792 1029.26 4.39703 1035.27 62.2343C1041.27 120.072 1101.78 277.299 1043.77 342.998C985.755 408.697 963.249 330.644 961.249 300.322C959.248 269.999 911.237 153.202 839.22 182.401C767.203 211.601 743.698 318.291 726.694 321.66C709.69 325.029 681.684 304.252 699.688 248.1C717.692 191.947 713.191 147.586 704.189 125.125C695.187 102.664 658.678 92.5568 638.173 114.456C617.669 136.356 605.666 169.486 633.172 245.292C660.679 321.098 593.663 378.936 560.655 368.267C527.648 357.598 528.648 320.537 539.15 277.299C549.653 234.062 518.146 228.446 515.145 227.323C512.144 226.2 486.638 230.131 494.64 290.776C502.642 351.421 442.628 368.267 442.628 310.429C442.628 252.592 486.638 222.831 494.64 153.202C502.642 83.5723 455.631 68.4111 442.628 62.2343C429.625 56.0575 356.608 70.0957 394.117 175.101C424.124 259.106 377.279 338.88 350.107 368.267C251.584 436.211 240.081 321.66 252.084 277.299C264.086 232.939 284.591 153.202 252.084 147.586C219.576 141.971 188.069 172.294 205.573 222.831C223.077 273.368 190.069 321.66 155.561 288.53C121.053 255.4 152.06 124.002 115.552 63.9186Z" fill="#FF6080"/>
</g>
<defs>
<filter id="filter0_i_101_5" x="0.0239258" y="0.197266" width="2046.98" height="1010.8" filterUnits="userSpaceOnUse" color-interpolation-filters="sRGB">
<feFlood flood-opacity="0" result="BackgroundImageFix"/>
<feBlend mode="normal" in="SourceGraphic" in2="BackgroundImageFix" result="shape"/>
<feColorMatrix in="SourceAlpha" type="matrix" values="0 0 0 0 0 0 0 0 0 0 0 0 0 0 0 0 0 0 127 0" result="hardAlpha"/>
<feOffset dy="22"/>
<feGaussianBlur stdDeviation="10"/>
<feComposite in2="hardAlpha" operator="arithmetic" k2="-1" k3="1"/>
<feColorMatrix type="matrix" values="0 0 0 0 1 0 0 0 0 0.720833 0 0 0 0 0.777018 0 0 0 0.59 0"/>
<feBlend mode="normal" in2="shape" result="effect1_innerShadow_101_5"/>
</filter>
</defs>
</svg>
