<svg width="523" height="304" viewBox="0 0 523 304" fill="none" xmlns="http://www.w3.org/2000/svg">
<path d="M57.2299 28.8517C54.3895 30.667 40.0089 37.2751 33.1737 40.3522C29.5532 41.9926 18.9752 46.3099 12.7902 44.2462C3.98574 41.3083 3.75053 28.8203 6.73468 22.64C9.71883 16.4597 16.9271 13.3689 24.0245 11.9494C31.1219 10.53 45.0144 8.24125 54.3062 11.3072C63.598 14.3731 63.6746 18.0085 64.0018 20.518C64.3291 23.0274 60.7805 26.5825 57.2299 28.8517Z" fill="#FF466B"/>
<path d="M60.0822 37.0853C56.7274 37.4161 41.3408 41.1198 34.0668 42.9303C30.2074 43.881 19.2254 47.0323 15.6425 52.4798C10.542 60.2345 18.0822 70.192 24.25 73.2019C30.4178 76.2119 37.9934 74.1814 44.4479 70.9063C50.9024 67.6311 63.2338 60.8356 68.6379 52.6788C74.042 44.522 71.8533 41.6182 70.5581 39.4441C69.2629 37.27 64.2756 36.6719 60.0822 37.0853Z" fill="#FF466B"/>
<path d="M126.461 83.3478C123.621 85.1631 109.24 91.7712 102.405 94.8483C98.7845 96.4887 88.2065 100.806 82.0215 98.7423C73.2171 95.8044 72.9818 83.3164 75.966 77.1361C78.9502 70.9558 86.1584 67.8649 93.2558 66.4455C100.353 65.0261 114.246 62.7373 123.538 65.8033C132.829 68.8692 132.906 72.5046 133.233 75.014C133.56 77.5235 130.012 81.0786 126.461 83.3478Z" fill="#FF466B"/>
<path d="M129.313 91.5814C125.959 91.9122 110.572 95.6159 103.298 97.4264C99.4387 98.3771 88.4568 101.528 84.8738 106.976C79.7733 114.731 87.3135 124.688 93.4813 127.698C99.6491 130.708 107.225 128.677 113.679 125.402C120.134 122.127 132.465 115.332 137.869 107.175C143.273 99.0181 141.085 96.1143 139.789 93.9402C138.494 91.7661 133.507 91.168 129.313 91.5814Z" fill="#FF466B"/>
<path d="M224.034 56.5154C220.719 57.1281 204.909 57.8375 197.418 58.1156C193.446 58.2726 182.021 58.291 177.068 54.051C170.017 48.0153 174.499 36.3571 179.59 31.7545C184.681 27.1519 192.522 27.0015 199.632 28.3578C206.742 29.7142 220.474 32.8228 227.929 39.1606C235.383 45.4984 234.086 48.8954 233.445 51.3434C232.803 53.7914 228.177 55.7495 224.034 56.5154Z" fill="#FF466B"/>
<path d="M223.577 65.2171C220.345 64.2608 204.696 61.9007 197.275 60.8402C193.342 60.2684 181.981 59.0544 176.611 62.7527C168.967 68.0174 172.205 80.0806 176.786 85.1907C181.367 90.3008 189.15 91.2711 196.363 90.6662C203.575 90.0614 217.558 88.407 225.635 82.8841C233.711 77.3612 232.777 73.8472 232.395 71.3455C232.013 68.8438 227.618 66.4124 223.577 65.2171Z" fill="#FF466B"/>
<path d="M267.662 133.062C264.347 133.675 248.537 134.384 241.046 134.662C237.074 134.819 225.649 134.838 220.696 130.598C213.645 124.562 218.127 112.904 223.218 108.301C228.309 103.699 236.151 103.548 243.26 104.905C250.37 106.261 264.102 109.37 271.557 115.707C279.011 122.045 277.714 125.442 277.073 127.89C276.431 130.338 271.805 132.296 267.662 133.062Z" fill="#FF466B"/>
<path d="M267.205 141.764C263.973 140.808 248.324 138.448 240.903 137.387C236.97 136.815 225.609 135.601 220.239 139.3C212.595 144.564 215.833 156.628 220.414 161.738C224.996 166.848 232.778 167.818 239.991 167.213C247.203 166.608 261.186 164.954 269.263 159.431C277.339 153.908 276.405 150.394 276.023 147.892C275.641 145.391 271.246 142.959 267.205 141.764Z" fill="#FF466B"/>
<path d="M360.069 130.884C356.713 130.568 341.311 126.932 334.029 125.153C330.165 124.219 319.17 121.116 315.563 115.684C310.429 107.951 317.925 97.9612 324.08 94.9243C330.235 91.8875 337.819 93.8848 344.288 97.1318C350.757 100.379 363.117 107.12 368.557 115.253C373.997 123.387 371.821 126.3 370.535 128.48C369.249 130.659 364.265 131.279 360.069 130.884Z" fill="#FF466B"/>
<path d="M357.253 139.13C354.405 137.327 339.996 130.782 333.147 127.735C329.519 126.11 318.923 121.839 312.747 123.93C303.955 126.906 303.774 139.395 306.786 145.562C309.797 151.729 317.018 154.789 324.122 156.177C331.225 157.566 345.128 159.794 354.406 156.687C363.684 153.581 363.745 149.945 364.061 147.434C364.378 144.923 360.814 141.384 357.253 139.13Z" fill="#FF466B"/>
<path d="M381.128 216.436C377.772 216.12 362.369 212.484 355.087 210.705C351.224 209.771 340.228 206.668 336.622 201.236C331.487 193.504 338.984 183.513 345.139 180.477C351.293 177.44 358.878 179.437 365.346 182.684C371.815 185.931 384.176 192.673 389.616 200.806C395.055 208.939 392.879 211.852 391.594 214.032C390.308 216.212 385.323 216.832 381.128 216.436Z" fill="#FF466B"/>
<path d="M378.312 224.682C375.463 222.88 361.054 216.334 354.206 213.287C350.578 211.662 339.981 207.391 333.805 209.482C325.014 212.458 324.833 224.947 327.844 231.114C330.855 237.282 338.077 240.341 345.18 241.729C352.284 243.118 366.186 245.346 375.465 242.24C384.743 239.133 384.804 235.497 385.12 232.987C385.436 230.476 381.872 226.936 378.312 224.682Z" fill="#FF466B"/>
<path d="M468.947 189.594C465.623 190.152 449.803 190.602 442.308 190.757C438.335 190.849 426.911 190.68 422.028 186.359C415.076 180.209 419.75 168.626 424.915 164.107C430.081 159.589 437.924 159.567 445.011 161.04C452.097 162.513 465.777 165.846 473.126 172.305C480.476 178.765 479.123 182.14 478.441 184.577C477.76 187.014 473.103 188.896 468.947 189.594Z" fill="#FF466B"/>
<path d="M468.348 198.287C465.131 197.278 449.523 194.661 442.121 193.479C438.197 192.843 426.858 191.443 421.428 195.052C413.699 200.191 416.738 212.306 421.235 217.49C425.732 222.675 433.498 223.773 440.719 223.286C447.941 222.8 461.948 221.375 470.115 215.985C478.281 210.596 477.404 207.067 477.064 204.559C476.723 202.052 472.368 199.548 468.348 198.287Z" fill="#FF466B"/>
<path d="M511.314 266.846C507.989 267.405 492.169 267.854 484.675 268.01C480.701 268.101 469.278 267.932 464.394 263.612C457.443 257.461 462.116 245.878 467.282 241.36C472.448 236.841 480.291 236.819 487.377 238.292C494.464 239.765 508.143 243.099 515.493 249.558C522.842 256.017 521.489 259.392 520.808 261.829C520.126 264.267 515.469 266.148 511.314 266.846Z" fill="#FF466B"/>
<path d="M510.714 275.539C507.498 274.53 491.89 271.914 484.488 270.732C480.564 270.095 469.225 268.695 463.795 272.305C456.066 277.443 459.105 289.558 463.602 294.743C468.099 299.927 475.865 301.025 483.086 300.539C490.308 300.052 504.315 298.627 512.482 293.238C520.648 287.848 519.771 284.319 519.43 281.812C519.09 279.304 514.735 276.801 510.714 275.539Z" fill="#FF466B"/>
</svg>
