<svg width="163" height="158" viewBox="0 0 163 158" fill="none" xmlns="http://www.w3.org/2000/svg">
<path d="M114.82 47.2898C114.852 47.2898 114.896 47.2898 114.939 47.2898C116.07 47.2898 117.12 47.6308 117.98 48.2183L117.964 48.2078C118.592 48.7376 119.014 49.4825 119.117 50.3218V50.3376C119.225 50.9776 119.284 51.712 119.284 52.4621C119.284 52.8031 119.274 53.1388 119.247 53.4745V53.4273C118.029 65.8543 112.747 95.9908 110.063 109.902C108.926 115.793 106.691 117.766 104.527 117.954C99.824 118.379 96.2523 114.943 91.6956 112.048C84.563 107.51 80.5313 104.688 73.6098 100.266C65.6059 95.1619 70.7957 92.345 75.3523 87.7603C76.5483 86.5538 97.2805 68.2726 97.6864 66.6149C97.708 66.5153 97.7188 66.4051 97.7188 66.2897C97.7188 65.8805 97.5619 65.5081 97.3075 65.2248C97.0261 65.0465 96.6744 64.9468 96.3064 64.9468C96.0629 64.9468 95.8301 64.994 95.6137 65.0727L95.6245 65.0675C94.9102 65.2248 83.5168 72.5233 61.4443 86.963C59.0361 88.8042 55.9947 89.9687 52.6828 90.1051H52.6503C47.9584 89.5543 43.6994 88.5419 39.6568 87.0993L40.0573 87.2252C34.9811 85.62 30.9494 84.7755 31.2958 82.0582C31.4798 80.6454 33.4893 79.1993 37.3244 77.72C60.9482 67.7428 76.7016 61.1664 84.5847 57.991C93.2812 53.5165 103.363 49.834 113.965 47.4472L114.814 47.2846L114.82 47.2898ZM81.3106 0C36.3828 0.104914 0 35.4346 0 79C0 122.628 36.4856 158 81.5 158C126.514 158 163 122.634 163 79C163 35.4346 126.617 0.104914 81.7002 0H81.6894C81.5631 0 81.4369 0 81.3106 0Z" fill="#FFD8DF"/>
</svg>
