<svg width="1653" height="995" viewBox="0 0 1653 995" fill="none" xmlns="http://www.w3.org/2000/svg">
<path d="M575.282 27.3616C574.799 26.3148 574.278 25.6746 573.267 25.3767C571.459 24.853 569.7 24.9578 567.957 25.2044C564.718 25.6499 561.593 26.5382 558.272 26.6782C555.161 26.809 552.125 27.3856 549.135 28.095C544.794 29.1337 540.578 30.5292 536.442 32.1759C529.912 34.7729 523.618 37.8307 517.705 41.5989C497.189 54.6873 479.052 70.7979 463.033 89.6064C451.834 102.757 441.841 116.945 432.814 131.987C430.941 135.102 428.883 138.09 427.61 141.647C425.494 147.546 423.19 153.355 421.072 159.246C420.7 160.278 420.307 160.59 419.257 160.415C416.602 159.965 413.945 159.581 411.291 159.298C394.672 157.475 378.354 158.225 362.18 160.253C354.719 161.186 347.336 162.455 340 163.956C333.256 165.332 326.539 166.811 319.965 168.741C309.103 171.934 298.236 175.136 287.734 179.33C281.335 181.878 274.971 184.479 268.721 187.358C258.929 191.859 249.429 196.914 240.277 202.606C231.06 208.346 222.283 214.733 214.217 222.134C213.549 222.742 212.984 223.621 212.186 223.883C211.201 224.201 210.392 223.024 209.536 222.486C205.423 219.901 201.356 217.191 197.226 214.629C195 213.241 192.86 211.652 190.479 210.596C177.531 204.89 164.454 199.728 151.173 195.372C137.465 190.88 123.655 187.247 109.695 184.806C95.6767 182.366 81.6995 181.097 67.7585 181.435C57.8889 181.679 48.1659 182.622 38.6157 184.551C35.7755 185.123 32.9728 185.849 30.1501 186.47C27.0059 187.162 24.0282 188.282 20.9468 189.129C20.7206 189.189 20.516 189.334 20.3321 189.491C17.0394 192.295 13.0925 193.893 9.23785 195.684C7.00644 196.722 4.83233 197.854 2.95919 199.49C2.61383 199.798 2.16521 199.999 2.18428 200.663C2.25345 202.856 3.23959 204.374 5.23982 205.353C7.88412 206.641 10.609 207.455 13.3828 208.079C16.3318 208.732 19.3007 209.278 22.2014 210.24C27.0868 211.855 31.6161 214.452 35.9909 217.453C47.5543 225.391 57.2499 235.451 65.0857 247.584C70.6142 256.149 74.2318 265.609 77.9523 275.01C79.1594 278.05 79.8322 281.234 80.9231 284.318C81.8044 286.805 82.5082 289.374 83.0354 291.932C84.0538 296.875 85.5007 301.725 86.8851 306.584C88.0521 310.683 89.3009 314.757 90.4456 318.863C90.8977 320.48 91.2646 322.159 92.0993 323.668C94.034 327.184 95.9464 330.707 98.0647 334.112C101.307 339.333 104.9 344.263 109.083 348.691C114.948 354.904 121.63 359.783 129.099 363.1C137.591 366.867 146.081 370.791 155.296 371.757C155.201 375.901 155.103 379.917 155.03 383.935C154.743 400.868 154.45 417.803 154.196 434.735C154.145 438.158 153.829 441.552 154.238 445.019C155.693 457.168 157.155 469.316 158.632 481.458C160.379 495.897 162.069 510.336 164.326 524.748C166.018 535.53 167.892 546.293 170.07 557.028C171.097 562.088 172.211 567.14 173.365 572.189C174.918 579.009 176.612 585.804 178.464 592.56C179.339 595.756 180.353 598.928 181.225 602.116C182.491 606.754 184.146 611.283 185.539 615.883C186.713 619.769 188.216 623.581 189.724 627.384C191.57 632.056 193.409 636.731 195.419 641.354C197.989 647.266 200.795 653.052 203.872 658.718C210.369 670.699 217.941 681.847 227.394 691.521C232.933 697.181 238.964 702.084 245.603 706.04C251.324 709.448 257.338 711.886 263.424 714.081C273.732 717.809 284.181 720.53 294.742 722.537C301.761 723.869 308.785 724.979 315.821 725.911C331.49 727.986 347.152 729.264 362.812 730.7C378.193 732.118 393.552 734.059 408.879 737.414C417.789 739.364 426.717 741.133 435.67 742.574C446.782 744.367 457.754 744.751 468.589 743.22C478.305 741.857 488.075 740.743 497.876 739.785C503.348 739.246 508.584 737.917 513.46 735.466C518.635 732.859 523.882 730.387 529.098 727.851C534.905 725.024 540.716 722.187 546.337 718.995C554.644 714.276 562.191 708.448 569.391 702.101C578.753 693.837 587.392 684.737 596.121 675.748C603.25 668.403 610.409 661.095 618.151 654.482C627.981 646.075 637.933 637.824 647.761 629.408C658.285 620.395 668.534 611.043 677.805 600.547C685.678 591.634 692.836 582.141 698.112 571.017C701.136 564.629 703.33 557.898 704.416 550.66C705.847 541.167 705.799 531.455 704.945 521.648C704.083 511.752 702.429 501.923 700.105 492.133C698.41 484.98 696.546 477.86 694.141 470.869C691.129 462.124 688.127 453.386 684.29 444.92C682.163 440.223 680.014 435.532 677.619 430.962C673.678 423.447 669.61 415.989 665.643 408.491C661.703 401.049 657.882 393.543 653.9 386.122C647.925 374.993 642.026 363.822 635.834 352.804C629.07 340.767 622.045 328.901 614.5 317.36C612.154 313.776 609.901 310.128 607.275 306.758C604.739 303.499 602.037 300.382 599.416 297.186C587.185 282.278 574.945 267.363 562.727 252.442C561.719 251.215 560.592 250.071 559.832 248.704C561.542 246.815 563.216 245.055 564.799 243.204C570.991 235.934 576.355 228.043 579.862 218.689C583.088 210.082 584.4 201.002 583.642 191.331C582.97 182.819 580.605 174.557 577.895 166.391C576.121 161.054 574.008 155.81 571.786 150.609C570.211 146.919 568.887 143.125 567.307 139.446C565.105 134.321 562.996 129.159 561.13 123.914C559.496 119.305 557.839 114.703 556.577 109.981C554.856 103.552 553.59 97.1047 553.413 90.5912C553.241 84.2784 553.833 78.1 554.895 72.017C555.839 66.5853 557.197 61.3216 559.066 56.2694C561.308 50.2126 564.321 44.7566 568.927 40.5511C569.465 40.0655 569.947 39.5143 570.433 38.9714C572.123 37.0506 573.783 35.1117 574.999 32.7755C575.841 31.1134 576.236 29.4222 575.282 27.3616ZM547.142 50.2603C542.799 57.0679 541.401 65.1544 540.26 73.3372C538.814 83.7257 539.414 94.3079 541.23 104.951C542.088 109.98 543.358 114.957 545.11 119.833C546.954 124.966 548.737 130.117 550.659 135.217C552.027 138.832 553.586 142.38 555.058 145.963C556.327 149.039 557.54 152.141 558.846 155.206C561.074 160.424 562.933 165.745 564.733 171.084C567.123 178.172 568.883 185.369 569.088 192.737C569.245 198.375 568.331 203.706 566.607 208.796C563.723 217.318 559.097 224.588 553.648 231.227C549.774 235.945 545.555 240.29 541.121 244.397C540.767 244.725 540.374 244.992 540.146 245.539C540.89 246.415 541.595 247.32 542.375 248.157C554.592 261.315 566.142 275.108 577.199 289.373C589.656 305.443 601.53 321.966 612.383 339.269C619.063 349.917 625.32 360.814 631.388 371.832C638.338 384.446 645.048 397.198 651.69 409.97C656.105 418.462 660.668 426.881 664.994 435.427C667.229 439.843 669.178 444.411 671.152 448.953C674.558 456.778 677.416 464.78 680.089 472.838C682.476 480.037 684.44 487.347 686.102 494.712C687.765 502.076 689.088 509.462 689.911 516.899C691.027 527.03 691.289 537.072 689.804 546.903C689.048 551.864 687.779 556.605 686.045 561.175C681.871 572.174 675.512 581.479 668.243 590.07C659.372 600.554 649.296 609.624 638.95 618.372C628.287 627.391 617.288 635.943 606.555 644.855C597.843 652.085 589.559 659.828 581.577 667.937C574.544 675.087 567.506 682.248 559.996 688.836C557.055 691.423 554.083 693.992 550.894 696.222C548.346 698 545.562 699.437 542.875 701.009C535.074 705.573 527.263 710.132 519.472 714.702C514.086 717.86 508.494 720.593 502.389 722.17C499.531 722.903 496.541 723.117 493.603 723.553C487.082 724.531 480.53 725.352 474.011 726.339C459.794 728.496 445.379 728.702 430.732 726.582C423.943 725.602 417.165 724.463 410.399 723.173C396.85 720.589 383.298 718.511 369.714 717.426C355.962 716.328 342.21 715.468 328.446 713.749C318.508 712.508 308.584 710.932 298.653 709.238C291.561 708.029 284.479 706.588 277.467 704.574C270.742 702.647 264.172 700.13 257.773 696.855C245.872 690.774 236.282 681.601 228.034 670.549C221.12 661.276 215.318 651.297 210.25 640.874C207.421 635.068 204.873 629.149 202.443 623.166C199.872 616.85 197.59 610.445 195.558 603.974C193.355 596.948 191.423 589.849 189.768 582.693C187.61 573.376 186.071 563.99 184.165 554.641C181.822 543.13 179.669 531.598 177.564 520.06C175.193 507.06 173.087 494.044 171.442 480.997C169.404 464.865 168.343 448.765 167.904 432.678C167.404 414.138 167.815 395.707 168.584 377.332C168.838 371.293 169.221 365.271 169.543 359.239C169.548 359.044 169.529 358.848 169.513 358.403C164.794 357.637 160.177 356.904 155.582 355.88C147.75 354.135 140.053 351.742 132.625 348.072C121.846 342.743 113.147 334.841 107.407 323.42C105.574 319.772 103.854 316.071 102.53 312.203C100.831 307.247 98.9701 302.321 97.4753 297.312C95.9659 292.261 94.339 287.227 93.0886 282.116C92.8346 281.064 92.4139 280.053 92.1122 279.006C89.8132 271.119 87.2657 263.298 84.1776 255.651C81.2383 248.382 77.3507 241.603 72.9559 235.117C65.847 224.609 57.1938 215.876 47.2423 208.585C45.6668 207.431 43.9225 206.805 42.2437 205.967C39.2236 204.453 36.1777 203.031 33.1379 201.578C32.9084 201.465 32.6472 201.425 32.5896 200.956C33.603 200.509 34.7825 200.535 35.8784 200.394C47.9205 198.826 60.0581 197.835 72.3422 197.755C86.7911 197.667 101.273 198.754 115.797 201.252C129.768 203.652 143.592 207.208 157.235 212.032C165.855 215.081 174.467 218.205 183.043 221.46C188.568 223.56 193.934 226.168 198.915 229.793C200.955 231.284 202.714 233.126 204.688 234.922C203.566 236.467 202.476 238.012 201.339 239.516C197.038 245.245 192.568 250.824 189.166 257.308C187.775 259.964 186.533 262.694 186.119 265.86C185.991 266.809 185.635 267.698 185.379 268.612C185.999 268.873 186.17 268.352 186.457 268.09C196.199 259.077 205.903 250.028 215.674 241.052C222.589 234.691 229.262 228.018 236.681 222.294C242.919 217.48 249.535 213.295 256.419 209.525C263.243 205.791 270.275 202.49 277.476 199.551C281.136 198.049 284.845 196.689 288.553 195.301C293.845 193.311 299.266 191.686 304.661 189.986C307.414 189.12 310.127 188.09 312.9 187.328C318.364 185.827 323.727 184.036 329.226 182.635C332.214 181.871 335.125 180.892 338.067 179.977C343.18 178.39 348.44 177.292 353.783 176.526C361.215 175.464 368.668 174.487 376.175 173.806C385.155 172.997 394.173 172.489 403.306 172.938C408.363 173.187 413.424 174.06 418.485 174.767C435.442 177.13 452.399 179.538 469.361 181.936C469.776 181.993 470.22 182.271 470.541 181.824C470.436 181.36 470.08 181.193 469.767 180.957C464.288 176.759 458.355 173.662 452.223 171.077C446.748 168.769 441.196 166.898 435.467 166.072C434.189 165.883 434.003 165.683 433.913 164.25C433.788 162.276 434.402 160.528 435.022 158.795C437.35 152.327 440.707 146.536 444.098 140.772C450.417 130.037 457.38 119.822 464.973 110.159C475.937 96.1986 488.118 83.5938 501.761 72.6191C512.371 64.0846 523.663 56.6465 535.601 50.2515C540.18 47.7994 544.909 45.6136 549.575 43.3184C549.947 43.1317 550.377 43.065 551.032 42.8652C549.681 45.4724 548.583 48.0024 547.142 50.2603Z" fill="#1B1B1B"/>
<path d="M660.19 464.258C654.729 456.931 647.768 452.358 639.873 449.757C626.386 445.315 613.692 446.673 601.948 452.819C592.182 457.929 583.549 464.884 575.428 472.562C568.51 479.107 561.96 486.081 555.265 492.878C545.688 502.596 535.396 511.293 523.72 517.962C511.903 524.714 499.998 531.309 487.541 536.764C482.997 538.756 478.328 540.457 473.705 542.27C470.643 543.469 467.495 544.491 464.499 545.835C459.392 548.12 454.108 549.964 448.833 551.786C443.955 553.474 439.017 555.035 433.971 556.28C428.461 557.641 422.994 559.124 417.491 560.502C411.51 562 405.509 563.417 399.485 564.763C393.833 566.032 388.154 567.193 382.45 568.283C372.695 570.143 362.861 571.6 352.912 572.548C341.224 573.659 329.46 573.482 317.565 571.625C307.369 570.035 297.22 567.662 287.039 565.844C277.865 564.206 268.709 563.167 259.585 563.439C252.69 563.638 245.961 564.64 239.297 566.108C232.679 567.562 226.459 569.903 221.084 573.944C211.654 581.03 205.527 590.682 204.857 604.24C204.432 612.821 206.471 620.916 210.705 628.587C215.17 636.682 221.415 642.918 228.366 648.331C235.627 653.978 243.414 658.353 251.512 661.969C260.48 665.965 269.606 668.881 279.017 669.967C289.521 671.189 299.872 670.796 310.167 669.915C318.255 669.227 326.271 668.202 334.314 667.257C336.931 666.945 339.561 666.697 342.141 666.252C344.356 665.861 346.501 665.192 348.691 664.702C354.349 663.451 360.012 662.218 365.68 661.022C370.497 660.003 375.315 658.985 380.167 658.093C386.309 656.963 392.406 655.681 398.492 654.364C402.519 653.496 406.497 652.487 410.505 651.566C415.365 650.447 420.216 649.302 425.001 647.915C427.634 647.151 430.274 646.385 432.891 645.578C440.451 643.246 448.145 641.33 455.748 639.151C462.285 637.285 468.783 635.285 475.165 632.942C480.125 631.122 485.185 629.542 490.18 627.798C495.471 625.951 500.889 624.424 506.178 622.569C507.847 622.048 509.556 621.621 511.178 620.988C515.274 619.379 519.34 617.682 523.418 616.019C528.474 613.955 533.544 611.934 538.577 609.828C543.559 607.748 548.492 605.575 553.46 603.48C558.207 601.482 562.965 599.52 567.721 597.549C571.964 595.797 576.244 594.13 580.455 592.309C584.267 590.662 588.229 589.357 591.878 587.313C603.112 581.045 614.388 574.85 625.06 567.561C636.05 560.056 646.055 551.342 653.973 540.012C658.905 532.96 663.229 525.504 665.938 516.88C669.249 506.338 669.642 495.277 667.888 483.789C666.795 476.692 664.538 470.096 660.19 464.258ZM651.443 483.187C653.167 492.177 653.257 500.87 650.954 509.26C648.985 516.389 645.587 522.525 641.327 528.055C636.301 534.583 630.366 539.994 624.029 544.928C615.024 551.94 605.344 557.801 595.648 563.639C589.769 567.176 583.582 570.012 577.235 572.557C571.474 574.871 565.651 577.03 559.891 579.324C554.131 581.618 548.468 584.145 542.904 586.913C540.63 588.051 538.251 588.959 535.907 589.943C531.67 591.713 527.435 593.464 523.189 595.207C518.256 597.233 513.25 599.117 508.384 601.288C502.237 604.043 495.874 606.166 491.027 607.573C485.783 609.21 482.081 610.181 478.529 611.514C471.168 614.279 463.633 616.534 456.073 618.691C444.298 622.036 432.731 625.988 420.981 629.405C417.584 630.397 414.051 630.965 410.58 631.718C405.401 632.849 400.225 633.989 395.045 635.091C389.982 636.166 384.903 637.14 379.852 638.25C375.165 639.276 370.504 640.43 365.835 641.509C361.158 642.59 356.477 643.633 351.813 644.73C349.017 645.389 346.283 646.252 343.457 646.775C339.469 647.505 335.426 648.028 331.394 648.607C325.637 649.442 319.88 650.277 314.105 651.059C300.821 652.854 287.42 653.44 273.738 650.79C265.946 649.285 258.258 647.165 250.853 643.459C242.535 639.299 235.073 633.686 229.024 625.861C225.819 621.719 223.279 617.107 221.902 612.014C219.493 603.112 221.528 596.701 228.024 591.708C231.59 588.971 235.558 586.837 238.958 583.841C239.734 583.151 240.751 583.436 241.631 583.123C244.568 582.079 247.66 581.59 250.762 581.128C259.756 579.778 268.884 580.165 278.103 581.584C285.891 582.779 293.636 584.57 301.382 586.362C314.773 589.453 328.097 590.485 341.405 590.053C345.253 589.931 349.092 589.734 352.943 589.572C357.376 589.393 361.577 588.188 365.866 587.394C371.141 586.417 376.374 585.27 381.627 584.203C387.554 582.994 393.476 581.797 399.4 580.579C406.44 579.139 413.35 577.273 420.279 575.46C434.547 571.715 448.48 566.966 462.543 562.623C465.699 561.648 468.874 560.705 471.95 559.521C475.549 558.125 479.256 557.045 482.864 555.676C488.788 553.437 494.725 551.214 500.564 548.778C509.322 545.121 517.894 541.073 526.255 536.557C538.467 529.963 549.641 521.827 559.642 511.908C563.812 507.777 567.849 503.484 571.943 499.259C577.79 493.214 583.555 487.058 589.922 481.638C596.316 476.2 603.27 471.725 610.897 468.469C616.407 466.116 622.189 464.583 628.396 464.765C633.471 464.92 638.263 466.389 642.799 469.62C647.428 472.949 650.317 477.287 651.443 483.187Z" fill="#1B1B1B"/>
<path d="M594.765 317.913C593.114 316.233 591.203 314.961 589.207 313.903C584.617 311.463 579.85 309.761 574.974 308.468C573.579 308.098 571.909 308.618 570.826 307.318C569.79 306.078 569.17 304.449 568.334 303.017C566.206 299.374 564.423 295.494 561.943 292.09C553.719 280.833 543.783 271.872 532.115 265.268C523.987 260.666 515.487 257.706 506.76 255.706C497.55 253.591 488.349 252.777 479.151 252.88C467.699 253.007 456.572 254.713 445.726 257.58C442.113 258.535 438.575 259.729 435.064 261C429.092 263.164 423.304 265.712 417.693 268.646C408.102 273.67 399.274 279.866 391.166 287.165C383.601 293.978 376.812 301.576 371.45 310.594C368.647 315.304 365.28 319.578 362.891 324.705C361.159 324.016 359.401 323.326 357.647 322.624C347.122 318.427 336.475 314.886 325.619 312.572C312.924 309.863 300.289 308.955 287.722 309.873C279.373 310.486 271.174 311.793 263.134 313.774C261.282 314.228 259.486 314.843 257.635 315.277C253.82 316.181 249.913 316.823 246.815 319.467C246.628 319.628 246.389 319.71 246.182 319.839C241.851 322.382 237.02 323.785 232.387 325.633C229.608 326.745 226.865 327.912 224.438 329.695C214.531 336.953 205.632 345.393 198.128 355.45C191.24 364.681 185.821 374.879 182.981 386.726C180.066 398.886 180.475 411.277 184.387 423.909C184.673 424.824 184.583 425.405 184.059 426.062C181.215 429.604 178.378 433.162 176.056 437.163C174.11 440.514 172.435 444.017 172.232 448.232C172.127 450.355 172.531 452.444 173.792 454.28C175.939 457.402 179.386 458.345 182.432 456.822C184.28 455.901 185.598 454.373 187.008 452.508C187.22 453.258 187.372 453.718 187.476 454.183C188.482 458.741 189.746 463.267 191.147 467.732C193.176 474.209 195.746 480.51 198.767 486.637C203.22 495.662 208.706 503.95 215.443 511.312C225.187 521.954 236.537 529.687 249.141 535.085C263.402 541.196 278 544.148 292.773 545.274C302.844 546.038 312.79 545.893 322.345 543.215C326.556 542.03 330.492 540.32 334.093 537.869C335.217 537.104 335.223 537.074 336.104 538.276C340.927 544.883 347.021 549.638 353.895 553.17C360.84 556.737 368.099 558.783 375.471 560.025C385.558 561.722 395.554 561.862 405.47 561.08C410.591 560.676 415.652 559.981 420.697 559.142C426.16 558.23 431.566 557.084 436.86 555.615C442.055 554.176 447.222 552.633 452.279 550.749C456.163 549.299 460.032 547.807 463.833 546.166C469.593 543.683 475.181 540.849 480.579 537.642C489.566 532.306 497.974 526.154 505.053 518.167C510.451 512.082 514.402 505.042 516.291 496.59C517.337 491.91 518.401 487.235 519.362 482.525C519.595 481.395 520.117 480.898 521.095 480.627C522.816 480.157 524.635 480.135 526.385 479.843C528.191 479.544 530.035 479.402 531.715 478.551C535.889 476.421 540.232 474.653 544.521 472.778C548.373 471.094 552.186 469.319 555.622 466.852C562.936 461.597 569.697 455.648 575.74 448.794C583.588 439.888 590.002 429.901 594.314 418.261C598.05 408.165 599.965 397.529 599.921 386.255C599.886 375.653 598.146 365.16 595.064 354.759C594.418 352.575 593.686 350.408 592.995 348.238C592.434 346.488 591.63 344.765 590.962 343.02C590.317 341.342 589.695 339.657 588.891 338.028C587.722 335.667 586.765 333.193 585.669 330.632C586.242 330.738 586.612 330.812 586.983 330.868C590.252 331.302 593.376 331.106 596.076 329.24C597.6 328.183 598.431 326.579 598.045 324.541C597.57 322.08 596.58 319.748 594.765 317.913ZM392.168 395.674C395.691 392.928 398.229 389.208 400.552 385.282C400.772 384.906 400.934 384.481 401.422 384.126C402.092 385.468 402.818 386.755 403.388 388.099C404.786 391.403 406.94 394.185 409.047 397C412.184 401.207 415.1 405.593 418.883 409.227C423.348 413.515 428.212 417.099 433.299 420.362C438.89 423.94 444.735 426.924 450.374 430.712C447.051 433.791 443.167 436.01 440.144 439.325C437.109 442.653 434.236 446.157 431.273 449.594C427 447.029 422.754 444.662 418.656 441.978C414.472 439.235 410.976 435.514 407.8 431.46C404.032 426.65 401.07 421.34 398.548 415.755C395.947 409.988 393.713 404.099 391.594 398.156C391.194 397.013 391.274 396.379 392.168 395.674ZM407.4 448.373C411.388 451.654 414.963 455.482 418.833 458.93C419.244 459.292 419.502 459.719 418.926 460.036C414.597 462.419 410.225 464.703 405.029 464.82C404.722 464.83 404.399 464.769 404.093 464.731C403.655 464.678 403.214 464.616 402.668 464.539C402.907 462.394 403.384 460.57 403.905 458.751C404.968 455.079 405.958 451.392 405.438 447.192C406.316 447.355 406.86 447.929 407.4 448.373ZM391.837 414.798C393.737 421.839 394.522 428.93 394.235 436.021C394.035 440.938 393.258 445.694 392.054 450.328C391.588 452.112 390.934 453.765 390.01 455.294C388.735 457.4 387.487 459.535 386.986 462.106C386.845 462.853 386.399 462.895 385.784 462.933C383.272 463.083 380.776 462.608 378.284 461.974C374.306 460.95 370.373 459.574 366.333 459.019C364.027 458.702 361.749 458.611 359.215 458.983C359.969 457.018 360.563 455.337 361.238 453.696C363.542 448.107 366.098 442.666 368.107 436.905C370.883 428.977 372.694 420.755 372.473 411.897C372.371 407.963 371.848 404.045 370.892 400.156C370.385 398.108 369.782 396.07 369.192 393.926C370.28 393.874 371.237 394.36 372.205 394.635C376.117 395.736 380.005 396.91 383.924 397.98C384.904 398.243 385.453 398.759 385.949 399.723C388.431 404.571 390.429 409.594 391.837 414.798ZM320.323 490.124C319.223 496.854 319.118 503.674 320.989 510.611C322.064 514.623 323.621 518.478 325.886 522.032C326.11 522.386 326.366 522.71 326.465 523.139C324.323 523.794 322.21 524.581 320.011 525.076C316.853 525.798 313.65 526.393 310.43 526.89C299.594 528.563 288.594 528.617 277.425 526.774C268.219 525.248 259.22 522.516 250.498 518.227C237.627 511.897 226.468 503.009 217.588 490.762C214.743 486.842 212.437 482.569 210.278 478.213C207.165 471.918 204.429 465.48 202.264 458.83C200.167 452.374 198.575 445.876 198.081 439.165C197.755 434.802 199.274 431.741 201.956 429.13C205.596 425.589 209.789 422.891 214.031 420.234C219.203 417.002 224.575 414.103 229.489 410.444C230.087 409.999 230.597 408.868 231.399 409.363C232.232 409.877 231.907 411.083 231.999 411.992C232.535 417.266 232.923 422.548 233.891 427.811C235.343 435.683 238.196 443.032 242.461 449.912C247.393 457.863 252.938 465.243 259.874 471.325C271.556 481.59 284.58 486.392 298.759 486.349C306.034 486.328 313.07 485.217 319.855 483.029C320.473 482.831 321.104 482.647 321.967 482.383C321.4 485.172 320.734 487.607 320.323 490.124ZM271.216 376.534C265.866 377.673 260.562 378.967 255.403 380.704C248.633 382.981 242.04 385.672 235.719 388.973C229.356 392.297 223.027 395.695 216.597 398.899C213.078 400.65 210.007 403.061 206.85 405.368C203.841 407.572 200.846 409.791 197.694 412.114C196.647 409.716 196.438 407.464 196.193 405.252C195.333 397.564 196.46 390.385 199.013 383.567C202.424 374.433 207.78 366.861 213.982 359.958C219.792 353.494 226.282 347.872 233.194 342.786C235.275 341.259 237.691 340.379 239.969 339.224C243.711 337.32 247.55 335.621 251.309 333.74C253.234 332.776 255.278 332.198 257.35 331.63C260.479 330.776 263.635 329.999 266.793 329.23C271.852 328.002 276.995 327.085 282.169 326.328C291.143 325.008 300.226 324.359 309.42 324.51C317.301 324.641 325.192 325.424 333.095 326.964C339.73 328.254 346.084 330.754 352.293 333.965C355.649 335.704 359.067 337.237 362.649 338.111C363.545 338.324 363.925 338.836 364.214 339.713C365.543 343.732 367.052 347.714 368.242 351.766C369.693 356.685 371.447 361.511 372.966 366.409C374.485 371.307 376.042 376.193 377.727 381.04C377.819 381.303 377.947 381.573 377.962 381.831C378 382.326 377.775 382.591 377.285 382.413C377.046 382.327 376.808 382.175 376.589 382.026C371.503 378.744 366.019 377.318 360.471 376.596C348.869 375.072 337.255 373.776 325.658 373.057C312.286 372.224 299.038 372.488 285.961 374.078C280.986 374.662 276.075 375.498 271.216 376.534ZM502.105 486.687C500.037 494.173 496.082 500.36 491.256 505.877C484.427 513.693 476.236 519.629 467.412 524.662C461.377 528.111 455.058 530.962 448.58 533.477C445.282 534.758 441.936 535.95 439.255 536.62C426.264 540.714 413.639 543 400.645 543.749C390.829 544.313 380.951 543.912 371.012 541.607C366.69 540.604 362.394 539.415 358.353 537.154C353.397 534.385 349.314 530.327 345.617 525.814C341.259 520.49 337.685 514.674 335.586 508.022C333.89 502.616 333.464 497.299 334.975 492.102C336.018 488.54 338.167 485.914 340.72 483.652C343.248 481.416 345.883 479.317 348.468 477.148C349.298 476.453 350.366 476.296 351.363 476.056C360.393 473.914 369.599 474.886 378.902 477.338C382.816 478.372 386.732 479.481 390.692 480.07C396.075 480.871 401.297 480.277 406.504 479.641C409.197 479.314 411.861 478.856 414.551 478.521C417.781 478.124 420.685 476.842 423.556 475.514C430.603 472.253 436.561 467.412 441.904 461.672C445.307 458.006 448.548 454.165 452.11 450.666C456.399 446.467 461.003 442.687 466.536 440.442C477.611 435.949 489.443 439.475 497.139 451.858C504.117 463.075 505.378 474.858 502.105 486.687ZM452.481 323.689C441.41 329.559 430.991 336.43 421.161 344.292C412.249 351.424 403.947 359.269 396.345 367.969C393.664 371.039 391.133 374.25 388.397 377.74C386.709 373.437 385.215 369.497 383.6 365.595C381.953 361.626 380.611 357.546 378.805 353.626C378.192 352.304 377.816 350.891 377.258 349.534C375.769 345.873 374.388 342.161 372.964 338.472C372.941 338.404 372.932 338.332 372.896 338.277C371.208 335.868 372.14 333.811 372.959 331.695C375.221 325.866 378.511 320.847 382.41 316.299C387.959 309.83 394.373 304.446 401.095 299.438C407.131 294.939 413.311 290.658 419.726 286.765C424.256 284.021 428.986 281.636 433.638 279.098C435.08 278.31 436.562 277.585 437.976 276.741C440.1 275.482 442.494 274.946 444.854 274.29C448.04 273.41 451.25 272.597 454.475 271.826C460.743 270.341 467.108 269.275 473.564 268.614C481.388 267.815 489.291 267.723 497.291 268.82C506.078 270.033 514.636 272.535 522.885 276.931C531.876 281.728 539.602 288.347 546.403 296.393C547.778 298.025 549.033 299.77 550.383 301.428C550.927 302.097 551.298 302.799 551.429 303.846C550.969 303.846 550.506 303.866 550.036 303.841C545.964 303.624 541.888 303.398 537.818 303.19C535.044 303.044 532.381 303.577 529.672 303.834C521.976 304.566 514.305 305.421 506.629 306.259C502.392 306.72 498.217 307.434 494.087 308.35C489.466 309.37 484.851 310.406 480.393 311.891C470.773 315.105 461.432 318.946 452.481 323.689ZM580.62 355.82C583.168 363.59 585.113 371.48 585.533 379.517C586.022 388.78 584.501 397.543 581.63 405.874C577.737 417.199 571.763 426.985 564.179 435.567C555.183 445.743 544.532 453.509 532.492 459.244C528.039 461.366 523.411 463.109 518.666 464.541C518.378 464.629 518.075 464.675 517.673 464.77C516.446 457.664 514.085 451.026 510.201 444.901C506.318 438.776 501.311 433.895 495.47 429.316C500.535 427.982 504.967 426.111 509.214 423.828C519.907 418.102 528.631 410.072 534.349 398.667C540.062 387.273 541.736 374.704 539.631 361.126C538.694 355.066 537.101 349.141 534.822 343.387C531.931 336.097 528.254 329.196 523.834 322.71C523.333 321.973 522.844 321.222 522.312 320.419C523.381 319.689 524.644 319.969 525.775 319.922C534.347 319.561 542.938 319.399 551.608 320.207C555.879 320.607 560.139 321.311 564.4 322.042C565.417 322.219 566.014 322.777 566.504 323.677C568.961 328.26 571.337 332.877 573.508 337.604C576.249 343.553 578.592 349.634 580.62 355.82Z" fill="#1B1B1B"/>
<path d="M386.658 525.989C377.05 528.787 366.299 524.483 361.249 517.658C357.806 513.009 356.798 508.107 358.319 502.913C358.829 501.163 359.925 499.805 361.129 498.59C361.942 497.771 362.894 497.112 363.656 496.244C365.231 494.436 367.319 493.763 369.581 493.489C376.107 492.682 382.403 494.027 388.309 498.222C391.526 500.506 394.083 503.433 395.476 507.333C397.016 511.65 396.3 515.528 394.375 519.074C392.404 522.699 389.519 525.182 386.658 525.989Z" fill="#1B1B1B"/>
<path d="M459.367 463.395C462.496 462.589 465.241 462.195 468.129 462.586C474.327 463.441 478.708 468.11 480.149 474.383C481.816 481.654 480.465 488.069 476.356 493.454C472.141 498.983 464.159 501.285 457.757 498.365C452.848 496.123 449.106 492.521 447.208 487.087C445.21 481.37 446.086 476.307 449.325 471.978C450.726 470.106 452.587 468.747 454.308 467.247C455.175 466.495 456.099 465.808 456.88 464.972C457.696 464.097 458.63 463.509 459.367 463.395Z" fill="#1B1B1B"/>
<path d="M472.133 587.417C468.775 588.828 465.084 589.751 461.557 591.094C453.246 594.276 444.709 596.785 436.217 599.4C431.102 600.971 425.976 602.536 420.814 603.941C415.166 605.483 409.522 607.012 403.844 608.442C398.229 609.851 392.616 611.24 386.949 612.444C375.993 614.772 365.006 616.958 353.898 618.649C343.902 620.175 333.817 621.125 323.755 622.248C316.391 623.07 309.006 623.777 301.573 624.108C291.771 624.543 281.927 624.488 271.996 622.344C267.615 621.402 263.365 619.823 259.221 617.636C257.86 616.924 257.764 615.735 257.492 614.583C257.053 612.748 257.301 611.147 258.615 609.989C259.257 609.42 259.975 609.462 260.749 609.465C273.705 609.64 286.669 609.863 299.608 609.932C307.732 609.975 315.776 609.338 323.784 608.491C335.5 607.26 347.113 605.538 358.663 603.473C366.536 602.064 374.458 600.831 382.327 599.384C386.289 598.656 390.189 597.636 394.119 596.758C398.48 595.781 402.851 594.862 407.199 593.849C410.204 593.156 413.182 592.331 416.174 591.603C421.016 590.421 425.674 588.664 430.561 587.67C430.746 587.631 430.921 587.564 431.107 587.505C441.879 584.107 452.676 580.812 463.403 577.278C468.353 575.649 473.286 573.944 478.037 571.744C481.117 570.322 484.355 569.272 487.498 567.991C491.622 566.305 495.722 564.545 499.843 562.849C502.636 561.701 505.485 560.695 508.229 559.452C518.065 554.994 527.864 550.427 537.553 545.634C547.932 540.488 558.118 534.97 568.13 529.085C576.529 524.152 584.415 518.375 592.169 512.358C599.415 506.747 606.587 501.017 614.363 496.253C616.139 495.169 617.93 494.362 620.145 495.345C621.023 495.738 621.489 496.314 621.776 497.381C622.595 500.434 621.942 502.932 620.55 505.273C619.016 507.832 617.028 509.851 614.831 511.604C607.555 517.407 600.478 523.499 592.895 528.846C584.067 535.066 574.958 540.752 565.553 545.908C559.261 549.359 552.93 552.742 546.534 555.984C541.095 558.748 535.58 561.335 530.042 563.879C523.928 566.678 517.771 569.37 511.604 572.035C507.679 573.729 503.698 575.279 499.752 576.908C495.107 578.833 490.414 580.642 485.706 582.405C482.883 583.462 480.09 584.611 477.219 585.552C475.554 586.117 474.034 587.069 472.133 587.417Z" fill="#1B1B1B"/>
<path d="M1433.52 176.232C1433.03 175.185 1432.51 174.545 1431.5 174.247C1429.69 173.723 1427.93 173.828 1426.19 174.075C1422.95 174.52 1419.83 175.408 1416.51 175.548C1413.4 175.679 1410.36 176.256 1407.37 176.965C1403.03 178.004 1398.81 179.399 1394.68 181.046C1388.15 183.643 1381.85 186.701 1375.94 190.469C1355.42 203.557 1337.29 219.668 1321.27 238.476C1310.07 251.627 1300.07 265.815 1291.05 280.857C1289.18 283.972 1287.12 286.96 1285.84 290.517C1283.73 296.416 1281.42 302.225 1279.31 308.116C1278.93 309.148 1278.54 309.46 1277.49 309.285C1274.84 308.836 1272.18 308.451 1269.53 308.168C1252.91 306.345 1236.59 307.095 1220.41 309.123C1212.95 310.057 1205.57 311.325 1198.23 312.826C1191.49 314.203 1184.77 315.681 1178.2 317.612C1167.34 320.804 1156.47 324.006 1145.97 328.2C1139.57 330.748 1133.21 333.349 1126.96 336.228C1117.16 340.729 1107.66 345.784 1098.51 351.476C1089.29 357.217 1080.52 363.603 1072.45 371.004C1071.78 371.612 1071.22 372.491 1070.42 372.753C1069.44 373.071 1068.63 371.894 1067.77 371.356C1063.66 368.771 1059.59 366.061 1055.46 363.499C1053.23 362.111 1051.09 360.522 1048.71 359.466C1035.77 353.76 1022.69 348.598 1009.41 344.242C995.699 339.751 981.889 336.117 967.929 333.677C953.911 331.236 939.934 329.967 925.993 330.305C916.123 330.549 906.4 331.492 896.85 333.421C894.01 333.993 891.207 334.719 888.384 335.34C885.24 336.033 882.262 337.152 879.181 337.999C878.955 338.059 878.75 338.204 878.566 338.361C875.274 341.165 871.327 342.763 867.472 344.554C865.241 345.592 863.067 346.724 861.193 348.36C860.848 348.668 860.399 348.869 860.419 349.533C860.488 351.726 861.474 353.244 863.474 354.223C866.118 355.511 868.843 356.325 871.617 356.949C874.566 357.602 877.535 358.148 880.436 359.11C885.321 360.725 889.85 363.322 894.225 366.323C905.789 374.261 915.484 384.321 923.32 396.454C928.849 405.019 932.466 414.479 936.187 423.88C937.394 426.92 938.066 430.104 939.157 433.188C940.039 435.675 940.743 438.244 941.27 440.802C942.288 445.745 943.735 450.595 945.119 455.454C946.286 459.554 947.535 463.628 948.68 467.733C949.132 469.35 949.499 471.029 950.334 472.538C952.268 476.054 954.181 479.577 956.299 482.982C959.541 488.203 963.134 493.133 967.318 497.561C973.182 503.774 979.864 508.653 987.333 511.97C995.825 515.737 1004.32 519.661 1013.53 520.627C1013.44 524.771 1013.34 528.787 1013.26 532.805C1012.98 549.738 1012.68 566.673 1012.43 583.605C1012.38 587.029 1012.06 590.423 1012.47 593.889C1013.93 606.039 1015.39 618.186 1016.87 630.328C1018.61 644.767 1020.3 659.206 1022.56 673.618C1024.25 684.4 1026.13 695.163 1028.3 705.898C1029.33 710.959 1030.45 716.011 1031.6 721.06C1033.15 727.879 1034.85 734.674 1036.7 741.43C1037.57 744.626 1038.59 747.798 1039.46 750.986C1040.72 755.624 1042.38 760.153 1043.77 764.753C1044.95 768.639 1046.45 772.451 1047.96 776.254C1049.8 780.926 1051.64 785.601 1053.65 790.224C1056.22 796.137 1059.03 801.922 1062.11 807.588C1068.6 819.569 1076.18 830.717 1085.63 840.391C1091.17 846.051 1097.2 850.954 1103.84 854.91C1109.56 858.319 1115.57 860.756 1121.66 862.951C1131.97 866.679 1142.42 869.4 1152.98 871.407C1160 872.739 1167.02 873.849 1174.05 874.781C1189.72 876.856 1205.39 878.134 1221.05 879.57C1236.43 880.989 1251.79 882.929 1267.11 886.284C1276.02 888.234 1284.95 890.004 1293.9 891.444C1305.02 893.237 1315.99 893.621 1326.82 892.091C1336.54 890.727 1346.31 889.613 1356.11 888.655C1361.58 888.117 1366.82 886.787 1371.69 884.336C1376.87 881.729 1382.12 879.257 1387.33 876.721C1393.14 873.894 1398.95 871.057 1404.57 867.865C1412.88 863.146 1420.43 857.318 1427.63 850.972C1436.99 842.707 1445.63 833.607 1454.35 824.618C1461.48 817.273 1468.64 809.965 1476.38 803.352C1486.22 794.945 1496.17 786.694 1505.99 778.279C1516.52 769.265 1526.77 759.913 1536.04 749.417C1543.91 740.505 1551.07 731.011 1556.35 719.887C1559.37 713.5 1561.56 706.768 1562.65 699.53C1564.08 690.037 1564.03 680.325 1563.18 670.518C1562.32 660.622 1560.66 650.793 1558.34 641.003C1556.64 633.85 1554.78 626.73 1552.37 619.739C1549.36 610.994 1546.36 602.256 1542.52 593.79C1540.4 589.093 1538.25 584.402 1535.85 579.833C1531.91 572.317 1527.84 564.859 1523.88 557.361C1519.94 549.919 1516.12 542.413 1512.13 534.993C1506.16 523.863 1500.26 512.692 1494.07 501.674C1487.3 489.637 1480.28 477.771 1472.73 466.23C1470.39 462.646 1468.13 458.998 1465.51 455.628C1462.97 452.369 1460.27 449.252 1457.65 446.056C1445.42 431.148 1433.18 416.233 1420.96 401.312C1419.95 400.086 1418.83 398.941 1418.07 397.575C1419.78 395.685 1421.45 393.925 1423.03 392.074C1429.23 384.804 1434.59 376.913 1438.1 367.559C1441.32 358.952 1442.63 349.872 1441.88 340.201C1441.2 331.69 1438.84 323.427 1436.13 315.261C1434.35 309.924 1432.24 304.68 1430.02 299.479C1428.45 295.789 1427.12 291.995 1425.54 288.316C1423.34 283.191 1421.23 278.029 1419.36 272.784C1417.73 268.175 1416.07 263.573 1414.81 258.851C1413.09 252.423 1411.82 245.975 1411.65 239.461C1411.47 233.148 1412.07 226.97 1413.13 220.887C1414.07 215.455 1415.43 210.192 1417.3 205.139C1419.54 199.083 1422.56 193.627 1427.16 189.421C1427.7 188.936 1428.18 188.384 1428.67 187.842C1430.36 185.921 1432.02 183.982 1433.23 181.646C1434.08 179.983 1434.47 178.292 1433.52 176.232ZM1405.38 199.13C1401.03 205.938 1399.64 214.024 1398.49 222.207C1397.05 232.596 1397.65 243.178 1399.46 253.821C1400.32 258.85 1401.59 263.827 1403.34 268.703C1405.19 273.836 1406.97 278.987 1408.89 284.087C1410.26 287.702 1411.82 291.25 1413.29 294.833C1414.56 297.909 1415.77 301.011 1417.08 304.076C1419.31 309.294 1421.17 314.615 1422.97 319.954C1425.36 327.042 1427.12 334.239 1427.32 341.607C1427.48 347.245 1426.57 352.576 1424.84 357.666C1421.96 366.188 1417.33 373.458 1411.88 380.098C1408.01 384.815 1403.79 389.16 1399.36 393.267C1399 393.596 1398.61 393.862 1398.38 394.409C1399.12 395.285 1399.83 396.19 1400.61 397.027C1412.83 410.185 1424.38 423.978 1435.43 438.243C1447.89 454.313 1459.76 470.836 1470.62 488.139C1477.3 498.787 1483.55 509.684 1489.62 520.702C1496.57 533.316 1503.28 546.068 1509.92 558.84C1514.34 567.332 1518.9 575.751 1523.23 584.297C1525.46 588.713 1527.41 593.281 1529.39 597.823C1532.79 605.648 1535.65 613.65 1538.32 621.708C1540.71 628.907 1542.67 636.217 1544.34 643.582C1546 650.947 1547.32 658.332 1548.14 665.769C1549.26 675.9 1549.52 685.942 1548.04 695.773C1547.28 700.734 1546.01 705.475 1544.28 710.045C1540.11 721.044 1533.75 730.35 1526.48 738.94C1517.61 749.424 1507.53 758.494 1497.18 767.242C1486.52 776.261 1475.52 784.813 1464.79 793.725C1456.08 800.955 1447.79 808.698 1439.81 816.807C1432.78 823.958 1425.74 831.118 1418.23 837.707C1415.29 840.293 1412.32 842.862 1409.13 845.092C1406.58 846.87 1403.8 848.307 1401.11 849.879C1393.31 854.444 1385.5 859.002 1377.71 863.572C1372.32 866.73 1366.73 869.463 1360.62 871.04C1357.77 871.773 1354.77 871.987 1351.84 872.423C1345.32 873.401 1338.76 874.223 1332.25 875.209C1318.03 877.366 1303.61 877.572 1288.97 875.452C1282.18 874.472 1275.4 873.333 1268.63 872.043C1255.08 869.459 1241.53 867.382 1227.95 866.296C1214.2 865.198 1200.44 864.339 1186.68 862.62C1176.74 861.378 1166.82 859.802 1156.89 858.108C1149.8 856.899 1142.71 855.458 1135.7 853.444C1128.98 851.517 1122.41 849.001 1116.01 845.725C1104.11 839.644 1094.52 830.471 1086.27 819.419C1079.35 810.147 1073.55 800.168 1068.48 789.744C1065.65 783.938 1063.11 778.019 1060.68 772.036C1058.11 765.72 1055.82 759.315 1053.79 752.844C1051.59 745.818 1049.66 738.719 1048 731.563C1045.84 722.246 1044.3 712.86 1042.4 703.512C1040.06 692 1037.9 680.468 1035.8 668.93C1033.43 655.931 1031.32 642.914 1029.68 629.868C1027.64 613.735 1026.58 597.635 1026.14 581.548C1025.64 563.009 1026.05 544.577 1026.82 526.202C1027.07 520.163 1027.45 514.141 1027.78 508.109C1027.78 507.914 1027.76 507.718 1027.75 507.273C1023.03 506.507 1018.41 505.775 1013.82 504.751C1005.98 503.005 998.287 500.612 990.86 496.943C980.08 491.613 971.381 483.711 965.641 472.29C963.808 468.642 962.089 464.941 960.764 461.073C959.065 456.117 957.204 451.192 955.71 446.182C954.2 441.131 952.573 436.098 951.323 430.986C951.069 429.934 950.648 428.923 950.346 427.876C948.047 419.989 945.5 412.168 942.412 404.521C939.473 397.252 935.585 390.473 931.19 383.987C924.081 373.479 915.428 364.746 905.477 357.456C903.901 356.301 902.157 355.675 900.478 354.837C897.458 353.324 894.412 351.901 891.372 350.449C891.143 350.335 890.881 350.295 890.824 349.826C891.837 349.379 893.017 349.405 894.113 349.264C906.155 347.696 918.292 346.706 930.576 346.625C945.025 346.538 959.507 347.624 974.032 350.122C988.002 352.522 1001.83 356.078 1015.47 360.902C1024.09 363.951 1032.7 367.075 1041.28 370.33C1046.8 372.43 1052.17 375.038 1057.15 378.663C1059.19 380.154 1060.95 381.996 1062.92 383.792C1061.8 385.337 1060.71 386.882 1059.57 388.386C1055.27 394.115 1050.8 399.694 1047.4 406.178C1046.01 408.834 1044.77 411.564 1044.35 414.73C1044.23 415.679 1043.87 416.568 1043.61 417.482C1044.23 417.743 1044.4 417.223 1044.69 416.961C1054.43 407.947 1064.14 398.899 1073.91 389.922C1080.82 383.561 1087.5 376.888 1094.92 371.164C1101.15 366.35 1107.77 362.166 1114.65 358.395C1121.48 354.661 1128.51 351.36 1135.71 348.421C1139.37 346.919 1143.08 345.559 1146.79 344.171C1152.08 342.181 1157.5 340.556 1162.89 338.857C1165.65 337.99 1168.36 336.961 1171.13 336.198C1176.6 334.697 1181.96 332.906 1187.46 331.505C1190.45 330.741 1193.36 329.762 1196.3 328.847C1201.41 327.26 1206.67 326.162 1212.02 325.396C1219.45 324.334 1226.9 323.357 1234.41 322.676C1243.39 321.867 1252.41 321.359 1261.54 321.808C1266.6 322.057 1271.66 322.93 1276.72 323.638C1293.68 326 1310.63 328.408 1327.59 330.806C1328.01 330.863 1328.45 331.141 1328.78 330.694C1328.67 330.23 1328.31 330.063 1328 329.828C1322.52 325.629 1316.59 322.532 1310.46 319.947C1304.98 317.639 1299.43 315.768 1293.7 314.942C1292.42 314.753 1292.24 314.553 1292.15 313.12C1292.02 311.146 1292.64 309.398 1293.26 307.666C1295.58 301.197 1298.94 295.406 1302.33 289.642C1308.65 278.907 1315.61 268.692 1323.21 259.029C1334.17 245.069 1346.35 232.464 1360 221.489C1370.61 212.955 1381.9 205.517 1393.84 199.122C1398.41 196.67 1403.14 194.484 1407.81 192.188C1408.18 192.002 1408.61 191.935 1409.27 191.735C1407.91 194.343 1406.82 196.873 1405.38 199.13Z" fill="#1B1B1B"/>
<path d="M1518.42 613.127C1512.96 605.8 1506 601.227 1498.11 598.626C1484.62 594.184 1471.93 595.542 1460.18 601.688C1450.42 606.799 1441.78 613.753 1433.66 621.432C1426.74 627.976 1420.19 634.951 1413.5 641.747C1403.92 651.465 1393.63 660.162 1381.95 666.831C1370.14 673.583 1358.23 680.178 1345.78 685.633C1341.23 687.625 1336.56 689.326 1331.94 691.139C1328.88 692.338 1325.73 693.36 1322.73 694.704C1317.63 696.989 1312.34 698.833 1307.07 700.655C1302.19 702.343 1297.25 703.904 1292.2 705.15C1286.7 706.51 1281.23 707.993 1275.73 709.371C1269.74 710.869 1263.74 712.286 1257.72 713.632C1252.07 714.901 1246.39 716.062 1240.68 717.152C1230.93 719.012 1221.09 720.469 1211.15 721.417C1199.46 722.529 1187.69 722.351 1175.8 720.495C1165.6 718.904 1155.45 716.531 1145.27 714.713C1136.1 713.076 1126.94 712.036 1117.82 712.308C1110.92 712.507 1104.2 713.509 1097.53 714.977C1090.91 716.431 1084.69 718.772 1079.32 722.813C1069.89 729.899 1063.76 739.551 1063.09 753.109C1062.67 761.69 1064.7 769.785 1068.94 777.456C1073.4 785.551 1079.65 791.787 1086.6 797.2C1093.86 802.847 1101.65 807.222 1109.75 810.838C1118.71 814.834 1127.84 817.75 1137.25 818.837C1147.76 820.058 1158.11 819.665 1168.4 818.784C1176.49 818.096 1184.51 817.072 1192.55 816.126C1195.16 815.814 1197.8 815.567 1200.37 815.121C1202.59 814.73 1204.74 814.061 1206.93 813.571C1212.58 812.32 1218.25 811.087 1223.91 809.891C1228.73 808.873 1233.55 807.854 1238.4 806.962C1244.54 805.832 1250.64 804.55 1256.73 803.233C1260.75 802.365 1264.73 801.356 1268.74 800.435C1273.6 799.316 1278.45 798.171 1283.24 796.784C1285.87 796.02 1288.51 795.254 1291.13 794.447C1298.69 792.116 1306.38 790.2 1313.98 788.02C1320.52 786.154 1327.02 784.154 1333.4 781.812C1338.36 779.991 1343.42 778.411 1348.41 776.667C1353.71 774.82 1359.12 773.294 1364.41 771.438C1366.08 770.917 1367.79 770.49 1369.41 769.858C1373.51 768.248 1377.57 766.551 1381.65 764.889C1386.71 762.824 1391.78 760.803 1396.81 758.697C1401.79 756.617 1406.73 754.444 1411.69 752.349C1416.44 750.351 1421.2 748.389 1425.95 746.418C1430.2 744.666 1434.48 742.999 1438.69 741.178C1442.5 739.531 1446.46 738.226 1450.11 736.183C1461.35 729.914 1472.62 723.719 1483.29 716.43C1494.28 708.925 1504.29 700.211 1512.21 688.881C1517.14 681.829 1521.46 674.373 1524.17 665.749C1527.48 655.207 1527.88 644.147 1526.12 632.658C1525.03 625.561 1522.77 618.965 1518.42 613.127ZM1509.68 632.056C1511.4 641.046 1511.49 649.739 1509.19 658.129C1507.22 665.258 1503.82 671.394 1499.56 676.924C1494.54 683.452 1488.6 688.863 1482.26 693.798C1473.26 700.809 1463.58 706.671 1453.88 712.508C1448 716.045 1441.82 718.881 1435.47 721.426C1429.71 723.74 1423.88 725.899 1418.13 728.193C1412.37 730.487 1406.7 733.014 1401.14 735.782C1398.86 736.92 1396.49 737.828 1394.14 738.812C1389.9 740.582 1385.67 742.333 1381.42 744.076C1376.49 746.103 1371.48 747.987 1366.62 750.157C1360.47 752.913 1354.11 755.035 1349.26 756.442C1344.02 758.079 1340.32 759.05 1336.76 760.383C1329.4 763.148 1321.87 765.403 1314.31 767.56C1302.53 770.906 1290.97 774.858 1279.21 778.274C1275.82 779.266 1272.28 779.835 1268.81 780.588C1263.64 781.719 1258.46 782.858 1253.28 783.961C1248.22 785.036 1243.14 786.009 1238.09 787.119C1233.4 788.145 1228.74 789.299 1224.07 790.378C1219.39 791.459 1214.71 792.503 1210.05 793.599C1207.25 794.258 1204.52 795.121 1201.69 795.644C1197.7 796.374 1193.66 796.897 1189.63 797.476C1183.87 798.311 1178.11 799.146 1172.34 799.928C1159.05 801.723 1145.65 802.31 1131.97 799.659C1124.18 798.155 1116.49 796.034 1109.09 792.328C1100.77 788.168 1093.31 782.555 1087.26 774.731C1084.05 770.588 1081.51 765.976 1080.14 760.883C1077.73 751.981 1079.76 745.57 1086.26 740.577C1089.82 737.84 1093.79 735.706 1097.19 732.71C1097.97 732.02 1098.99 732.306 1099.87 731.992C1102.8 730.949 1105.89 730.46 1109 729.997C1117.99 728.647 1127.12 729.034 1136.34 730.453C1144.12 731.648 1151.87 733.44 1159.62 735.231C1173.01 738.322 1186.33 739.354 1199.64 738.922C1203.49 738.8 1207.33 738.603 1211.18 738.441C1215.61 738.262 1219.81 737.058 1224.1 736.263C1229.38 735.287 1234.61 734.139 1239.86 733.072C1245.79 731.864 1251.71 730.666 1257.63 729.448C1264.67 728.008 1271.58 726.142 1278.51 724.329C1292.78 720.584 1306.71 715.835 1320.78 711.493C1323.93 710.517 1327.11 709.574 1330.18 708.39C1333.78 706.994 1337.49 705.914 1341.1 704.545C1347.02 702.306 1352.96 700.083 1358.8 697.648C1367.56 693.99 1376.13 689.942 1384.49 685.426C1396.7 678.832 1407.88 670.696 1417.88 660.778C1422.05 656.647 1426.08 652.353 1430.18 648.128C1436.02 642.083 1441.79 635.927 1448.16 630.508C1454.55 625.069 1461.5 620.594 1469.13 617.338C1474.64 614.985 1480.42 613.452 1486.63 613.634C1491.7 613.789 1496.5 615.258 1501.03 618.489C1505.66 621.818 1508.55 626.156 1509.68 632.056Z" fill="#1B1B1B"/>
<path d="M1453 466.784C1451.35 465.104 1449.44 463.832 1447.44 462.774C1442.85 460.334 1438.08 458.632 1433.21 457.339C1431.81 456.969 1430.14 457.489 1429.06 456.189C1428.02 454.949 1427.4 453.32 1426.57 451.888C1424.44 448.245 1422.66 444.365 1420.18 440.961C1411.95 429.704 1402.02 420.743 1390.35 414.139C1382.22 409.537 1373.72 406.577 1364.99 404.577C1355.78 402.462 1346.58 401.648 1337.39 401.751C1325.93 401.878 1314.81 403.584 1303.96 406.451C1300.35 407.406 1296.81 408.6 1293.3 409.871C1287.33 412.035 1281.54 414.583 1275.93 417.517C1266.34 422.541 1257.51 428.737 1249.4 436.036C1241.83 442.849 1235.05 450.447 1229.68 459.465C1226.88 464.175 1223.51 468.449 1221.13 473.576C1219.39 472.887 1217.63 472.197 1215.88 471.495C1205.36 467.298 1194.71 463.758 1183.85 461.443C1171.16 458.734 1158.52 457.826 1145.96 458.744C1137.61 459.357 1129.41 460.664 1121.37 462.645C1119.52 463.099 1117.72 463.714 1115.87 464.148C1112.05 465.053 1108.15 465.694 1105.05 468.338C1104.86 468.499 1104.62 468.581 1104.42 468.71C1100.08 471.253 1095.25 472.656 1090.62 474.504C1087.84 475.616 1085.1 476.783 1082.67 478.566C1072.76 485.824 1063.87 494.264 1056.36 504.321C1049.47 513.553 1044.06 523.75 1041.22 535.597C1038.3 547.757 1038.71 560.148 1042.62 572.78C1042.91 573.695 1042.82 574.276 1042.29 574.933C1039.45 578.475 1036.61 582.033 1034.29 586.034C1032.34 589.385 1030.67 592.888 1030.47 597.103C1030.36 599.226 1030.76 601.315 1032.03 603.151C1034.17 606.273 1037.62 607.216 1040.67 605.693C1042.51 604.772 1043.83 603.244 1045.24 601.379C1045.45 602.129 1045.61 602.589 1045.71 603.054C1046.72 607.612 1047.98 612.138 1049.38 616.604C1051.41 623.08 1053.98 629.381 1057 635.508C1061.45 644.533 1066.94 652.821 1073.68 660.183C1083.42 670.825 1094.77 678.558 1107.38 683.956C1121.64 690.067 1136.23 693.019 1151.01 694.145C1161.08 694.909 1171.02 694.764 1180.58 692.086C1184.79 690.901 1188.73 689.192 1192.33 686.74C1193.45 685.975 1193.46 685.945 1194.34 687.147C1199.16 693.754 1205.26 698.509 1212.13 702.041C1219.07 705.608 1226.33 707.654 1233.71 708.896C1243.79 710.593 1253.79 710.733 1263.7 709.951C1268.82 709.547 1273.89 708.852 1278.93 708.013C1284.39 707.102 1289.8 705.955 1295.09 704.486C1300.29 703.047 1305.46 701.504 1310.51 699.621C1314.4 698.17 1318.27 696.678 1322.07 695.037C1327.83 692.554 1333.41 689.72 1338.81 686.513C1347.8 681.177 1356.21 675.025 1363.29 667.038C1368.69 660.953 1372.64 653.913 1374.53 645.461C1375.57 640.781 1376.64 636.106 1377.6 631.397C1377.83 630.266 1378.35 629.769 1379.33 629.498C1381.05 629.028 1382.87 629.006 1384.62 628.714C1386.42 628.415 1388.27 628.273 1389.95 627.422C1394.12 625.292 1398.47 623.524 1402.75 621.65C1406.61 619.965 1410.42 618.19 1413.86 615.723C1421.17 610.468 1427.93 604.519 1433.97 597.665C1441.82 588.759 1448.24 578.772 1452.55 567.132C1456.28 557.036 1458.2 546.4 1458.16 535.126C1458.12 524.524 1456.38 514.031 1453.3 503.63C1452.65 501.446 1451.92 499.279 1451.23 497.11C1450.67 495.359 1449.86 493.636 1449.2 491.891C1448.55 490.213 1447.93 488.528 1447.12 486.899C1445.96 484.538 1445 482.065 1443.9 479.503C1444.48 479.609 1444.85 479.683 1445.22 479.739C1448.49 480.173 1451.61 479.977 1454.31 478.111C1455.83 477.054 1456.66 475.45 1456.28 473.412C1455.8 470.951 1454.81 468.619 1453 466.784ZM1250.4 544.546C1253.93 541.799 1256.46 538.08 1258.79 534.153C1259.01 533.777 1259.17 533.352 1259.66 532.997C1260.33 534.339 1261.05 535.626 1261.62 536.97C1263.02 540.274 1265.17 543.056 1267.28 545.872C1270.42 550.078 1273.33 554.464 1277.12 558.098C1281.58 562.386 1286.45 565.97 1291.53 569.233C1297.12 572.811 1302.97 575.796 1308.61 579.584C1305.28 582.662 1301.4 584.881 1298.38 588.196C1295.34 591.524 1292.47 595.028 1289.51 598.465C1285.23 595.9 1280.99 593.533 1276.89 590.849C1272.71 588.106 1269.21 584.385 1266.03 580.331C1262.27 575.521 1259.3 570.211 1256.78 564.626C1254.18 558.859 1251.95 552.97 1249.83 547.027C1249.43 545.884 1249.51 545.25 1250.4 544.546ZM1265.63 597.244C1269.62 600.525 1273.2 604.353 1277.07 607.801C1277.48 608.163 1277.74 608.59 1277.16 608.907C1272.83 611.29 1268.46 613.574 1263.26 613.691C1262.96 613.701 1262.63 613.64 1262.33 613.602C1261.89 613.549 1261.45 613.487 1260.9 613.41C1261.14 611.265 1261.62 609.441 1262.14 607.622C1263.2 603.95 1264.19 600.263 1263.67 596.063C1264.55 596.226 1265.09 596.8 1265.63 597.244ZM1250.07 563.669C1251.97 570.71 1252.76 577.801 1252.47 584.892C1252.27 589.809 1251.49 594.565 1250.29 599.199C1249.82 600.983 1249.17 602.636 1248.24 604.165C1246.97 606.271 1245.72 608.406 1245.22 610.977C1245.08 611.724 1244.63 611.766 1244.02 611.805C1241.51 611.954 1239.01 611.48 1236.52 610.845C1232.54 609.821 1228.61 608.445 1224.57 607.89C1222.26 607.573 1219.98 607.482 1217.45 607.854C1218.2 605.889 1218.8 604.208 1219.47 602.567C1221.78 596.978 1224.33 591.537 1226.34 585.776C1229.12 577.848 1230.93 569.626 1230.71 560.769C1230.61 556.834 1230.08 552.916 1229.13 549.027C1228.62 546.979 1228.02 544.941 1227.43 542.797C1228.51 542.745 1229.47 543.231 1230.44 543.507C1234.35 544.607 1238.24 545.781 1242.16 546.851C1243.14 547.114 1243.69 547.63 1244.18 548.594C1246.66 553.442 1248.66 558.465 1250.07 563.669ZM1178.56 638.995C1177.46 645.725 1177.35 652.545 1179.22 659.482C1180.3 663.494 1181.86 667.349 1184.12 670.903C1184.34 671.257 1184.6 671.581 1184.7 672.01C1182.56 672.666 1180.44 673.452 1178.24 673.947C1175.09 674.669 1171.88 675.264 1168.66 675.761C1157.83 677.434 1146.83 677.488 1135.66 675.645C1126.45 674.119 1117.45 671.387 1108.73 667.098C1095.86 660.768 1084.7 651.88 1075.82 639.633C1072.98 635.713 1070.67 631.44 1068.51 627.084C1065.4 620.79 1062.66 614.351 1060.5 607.701C1058.4 601.245 1056.81 594.747 1056.32 588.036C1055.99 583.673 1057.51 580.612 1060.19 578.001C1063.83 574.46 1068.02 571.762 1072.27 569.105C1077.44 565.873 1082.81 562.974 1087.72 559.315C1088.32 558.87 1088.83 557.739 1089.63 558.235C1090.47 558.749 1090.14 559.954 1090.23 560.863C1090.77 566.137 1091.16 571.419 1092.12 576.682C1093.58 584.554 1096.43 591.903 1100.69 598.783C1105.63 606.734 1111.17 614.114 1118.11 620.196C1129.79 630.461 1142.81 635.263 1156.99 635.22C1164.27 635.199 1171.3 634.088 1178.09 631.9C1178.71 631.702 1179.34 631.518 1180.2 631.254C1179.63 634.043 1178.97 636.478 1178.56 638.995ZM1129.45 525.405C1124.1 526.544 1118.8 527.838 1113.64 529.575C1106.87 531.852 1100.27 534.543 1093.95 537.844C1087.59 541.168 1081.26 544.566 1074.83 547.77C1071.31 549.521 1068.24 551.932 1065.08 554.239C1062.08 556.443 1059.08 558.662 1055.93 560.985C1054.88 558.587 1054.67 556.335 1054.43 554.123C1053.57 546.436 1054.69 539.256 1057.25 532.438C1060.66 523.304 1066.01 515.732 1072.22 508.829C1078.03 502.365 1084.52 496.743 1091.43 491.657C1093.51 490.13 1095.93 489.251 1098.2 488.095C1101.94 486.191 1105.78 484.492 1109.54 482.611C1111.47 481.647 1113.51 481.069 1115.58 480.501C1118.71 479.647 1121.87 478.87 1125.03 478.101C1130.09 476.873 1135.23 475.956 1140.4 475.199C1149.38 473.88 1158.46 473.23 1167.65 473.381C1175.53 473.512 1183.43 474.295 1191.33 475.835C1197.96 477.125 1204.32 479.625 1210.53 482.836C1213.88 484.575 1217.3 486.108 1220.88 486.982C1221.78 487.195 1222.16 487.707 1222.45 488.584C1223.78 492.603 1225.29 496.585 1226.48 500.637C1227.93 505.556 1229.68 510.382 1231.2 515.28C1232.72 520.178 1234.28 525.064 1235.96 529.912C1236.05 530.174 1236.18 530.444 1236.2 530.702C1236.23 531.197 1236.01 531.463 1235.52 531.284C1235.28 531.198 1235.04 531.046 1234.82 530.897C1229.74 527.615 1224.25 526.189 1218.7 525.467C1207.1 523.943 1195.49 522.647 1183.89 521.928C1170.52 521.095 1157.27 521.359 1144.19 522.949C1139.22 523.533 1134.31 524.369 1129.45 525.405ZM1360.34 635.558C1358.27 643.044 1354.32 649.231 1349.49 654.748C1342.66 662.564 1334.47 668.5 1325.65 673.533C1319.61 676.982 1313.29 679.833 1306.81 682.348C1303.52 683.629 1300.17 684.821 1297.49 685.491C1284.5 689.585 1271.87 691.871 1258.88 692.62C1249.06 693.184 1239.19 692.783 1229.25 690.478C1224.92 689.475 1220.63 688.286 1216.59 686.025C1211.63 683.256 1207.55 679.198 1203.85 674.685C1199.49 669.361 1195.92 663.545 1193.82 656.893C1192.12 651.487 1191.7 646.17 1193.21 640.973C1194.25 637.411 1196.4 634.785 1198.95 632.523C1201.48 630.287 1204.12 628.188 1206.7 626.019C1207.53 625.324 1208.6 625.167 1209.6 624.927C1218.63 622.785 1227.83 623.757 1237.14 626.209C1241.05 627.243 1244.97 628.352 1248.93 628.941C1254.31 629.742 1259.53 629.148 1264.74 628.512C1267.43 628.185 1270.1 627.727 1272.79 627.392C1276.01 626.995 1278.92 625.713 1281.79 624.385C1288.84 621.124 1294.8 616.283 1300.14 610.543C1303.54 606.877 1306.78 603.036 1310.34 599.537C1314.63 595.338 1319.24 591.558 1324.77 589.313C1335.84 584.82 1347.68 588.346 1355.37 600.73C1362.35 611.946 1363.61 623.729 1360.34 635.558ZM1310.72 472.56C1299.64 478.43 1289.22 485.301 1279.4 493.163C1270.48 500.295 1262.18 508.14 1254.58 516.84C1251.9 519.91 1249.37 523.121 1246.63 526.611C1244.94 522.308 1243.45 518.369 1241.83 514.466C1240.19 510.497 1238.84 506.417 1237.04 502.497C1236.43 501.175 1236.05 499.762 1235.49 498.405C1234 494.745 1232.62 491.032 1231.2 487.343C1231.17 487.275 1231.17 487.203 1231.13 487.148C1229.44 484.739 1230.37 482.682 1231.19 480.566C1233.45 474.737 1236.75 469.718 1240.64 465.17C1246.19 458.701 1252.61 453.317 1259.33 448.309C1265.36 443.81 1271.54 439.529 1277.96 435.636C1282.49 432.892 1287.22 430.508 1291.87 427.969C1293.31 427.181 1294.8 426.457 1296.21 425.612C1298.33 424.353 1300.73 423.817 1303.09 423.161C1306.27 422.281 1309.48 421.468 1312.71 420.697C1318.98 419.212 1325.34 418.146 1331.8 417.485C1339.62 416.686 1347.52 416.594 1355.53 417.691C1364.31 418.904 1372.87 421.406 1381.12 425.802C1390.11 430.6 1397.84 437.218 1404.64 445.264C1406.01 446.896 1407.27 448.641 1408.62 450.3C1409.16 450.968 1409.53 451.67 1409.66 452.717C1409.2 452.717 1408.74 452.737 1408.27 452.712C1404.2 452.495 1400.12 452.269 1396.05 452.061C1393.28 451.915 1390.62 452.448 1387.91 452.705C1380.21 453.437 1372.54 454.292 1364.86 455.13C1360.63 455.591 1356.45 456.305 1352.32 457.221C1347.7 458.241 1343.09 459.277 1338.63 460.762C1329.01 463.976 1319.67 467.817 1310.72 472.56ZM1438.85 504.691C1441.4 512.462 1443.35 520.351 1443.77 528.388C1444.26 537.651 1442.73 546.414 1439.86 554.745C1435.97 566.07 1430 575.856 1422.41 584.438C1413.42 594.614 1402.77 602.38 1390.73 608.115C1386.27 610.237 1381.64 611.98 1376.9 613.412C1376.61 613.5 1376.31 613.546 1375.91 613.641C1374.68 606.535 1372.32 599.897 1368.44 593.773C1364.55 587.648 1359.54 582.766 1353.7 578.187C1358.77 576.854 1363.2 574.982 1367.45 572.699C1378.14 566.973 1386.87 558.943 1392.58 547.538C1398.3 536.144 1399.97 523.576 1397.86 509.997C1396.93 503.937 1395.33 498.012 1393.06 492.258C1390.16 484.968 1386.49 478.067 1382.07 471.581C1381.57 470.844 1381.08 470.093 1380.55 469.29C1381.62 468.56 1382.88 468.84 1384.01 468.794C1392.58 468.432 1401.17 468.27 1409.84 469.078C1414.11 469.478 1418.37 470.182 1422.63 470.913C1423.65 471.09 1424.25 471.648 1424.74 472.548C1427.19 477.131 1429.57 481.748 1431.74 486.475C1434.48 492.424 1436.83 498.505 1438.85 504.691Z" fill="#1B1B1B"/>
<path d="M1244.89 674.858C1235.28 677.656 1224.53 673.352 1219.48 666.527C1216.04 661.878 1215.03 656.976 1216.55 651.782C1217.06 650.032 1218.16 648.674 1219.36 647.46C1220.18 646.64 1221.13 645.981 1221.89 645.113C1223.46 643.306 1225.55 642.632 1227.82 642.358C1234.34 641.551 1240.64 642.897 1246.54 647.091C1249.76 649.375 1252.32 652.302 1253.71 656.202C1255.25 660.519 1254.53 664.397 1252.61 667.943C1250.64 671.568 1247.75 674.051 1244.89 674.858Z" fill="#1B1B1B"/>
<path d="M1317.6 612.265C1320.73 611.459 1323.47 611.065 1326.36 611.456C1332.56 612.311 1336.94 616.98 1338.38 623.253C1340.05 630.525 1338.7 636.939 1334.59 642.324C1330.38 647.853 1322.39 650.155 1315.99 647.235C1311.08 644.993 1307.34 641.391 1305.44 635.957C1303.44 630.241 1304.32 625.177 1307.56 620.848C1308.96 618.976 1310.82 617.617 1312.54 616.117C1313.41 615.365 1314.33 614.678 1315.11 613.842C1315.93 612.967 1316.86 612.379 1317.6 612.265Z" fill="#1B1B1B"/>
<path d="M1330.37 736.288C1327.01 737.699 1323.32 738.622 1319.79 739.965C1311.48 743.148 1302.94 745.656 1294.45 748.271C1289.34 749.843 1284.21 751.407 1279.05 752.812C1273.4 754.354 1267.76 755.883 1262.08 757.313C1256.46 758.722 1250.85 760.111 1245.18 761.315C1234.23 763.643 1223.24 765.829 1212.13 767.52C1202.14 769.046 1192.05 769.996 1181.99 771.119C1174.63 771.941 1167.24 772.649 1159.81 772.979C1150.01 773.414 1140.16 773.359 1130.23 771.215C1125.85 770.273 1121.6 768.694 1117.45 766.507C1116.09 765.795 1116 764.606 1115.73 763.454C1115.29 761.619 1115.53 760.018 1116.85 758.86C1117.49 758.291 1118.21 758.333 1118.98 758.337C1131.94 758.511 1144.9 758.734 1157.84 758.803C1165.97 758.846 1174.01 758.209 1182.02 757.362C1193.73 756.131 1205.35 754.409 1216.9 752.344C1224.77 750.935 1232.69 749.702 1240.56 748.255C1244.52 747.527 1248.42 746.507 1252.35 745.629C1256.71 744.652 1261.08 743.733 1265.43 742.72C1268.44 742.027 1271.42 741.203 1274.41 740.474C1279.25 739.292 1283.91 737.535 1288.8 736.541C1288.98 736.502 1289.15 736.435 1289.34 736.376C1300.11 732.978 1310.91 729.683 1321.64 726.149C1326.59 724.52 1331.52 722.815 1336.27 720.615C1339.35 719.193 1342.59 718.144 1345.73 716.862C1349.86 715.176 1353.96 713.416 1358.08 711.72C1360.87 710.572 1363.72 709.566 1366.46 708.323C1376.3 703.865 1386.1 699.298 1395.79 694.505C1406.17 689.359 1416.35 683.841 1426.36 677.956C1434.76 673.023 1442.65 667.246 1450.4 661.229C1457.65 655.618 1464.82 649.889 1472.6 645.124C1474.37 644.04 1476.16 643.233 1478.38 644.216C1479.26 644.609 1479.72 645.185 1480.01 646.252C1480.83 649.305 1480.18 651.803 1478.78 654.144C1477.25 656.703 1475.26 658.722 1473.07 660.475C1465.79 666.278 1458.71 672.37 1451.13 677.717C1442.3 683.938 1433.19 689.623 1423.79 694.779C1417.5 698.23 1411.16 701.613 1404.77 704.855C1399.33 707.619 1393.81 710.206 1388.28 712.75C1382.16 715.549 1376 718.241 1369.84 720.906C1365.91 722.6 1361.93 724.15 1357.99 725.779C1353.34 727.704 1348.65 729.513 1343.94 731.276C1341.12 732.333 1338.32 733.482 1335.45 734.424C1333.79 734.988 1332.27 735.94 1330.37 736.288Z" fill="#1B1B1B"/>
</svg>
